{
  "asset" : {
    "generator" : "UE Viewer (umodel) build 1587",
    "version" : "2.0"
  },
  "scene" : 0,
  "scenes" : [
    {
      "nodes" : [ 0 ]
    }
  ],
  "nodes" : [
    {
      "name" : "standardfence",
      "mesh" : 0
    }
  ],
  "materials" : [
    {
      "name" : "chainlink_Mat",
      "pbrMetallicRoughness" : {
        "baseColorFactor" : [ 0.3, 0.3, 0.3, 1.0 ],
        "metallicFactor" : 0.1,
        "roughnessFactor" : 0.5
      }
    },
    {
      "name" : "M_Metal_Steel",
      "pbrMetallicRoughness" : {
        "baseColorFactor" : [ 0.9, 0.3, 0.3, 1.0 ],
        "metallicFactor" : 0.1,
        "roughnessFactor" : 0.5
      }
    },
    {
      "name" : "nomat",
      "pbrMetallicRoughness" : {
        "baseColorFactor" : [ 0.3, 0.9, 0.3, 1.0 ],
        "metallicFactor" : 0.1,
        "roughnessFactor" : 0.5
      }
    }
  ],
  "meshes" : [
    {
      "primitives" : [
        {
          "attributes" : {
            "POSITION" : 1,
            "NORMAL" : 2,
            "TANGENT" : 3,
            "TEXCOORD_0" : 4
          },
          "indices" : 0,
          "material" : 0
        },
        {
          "attributes" : {
            "POSITION" : 6,
            "NORMAL" : 7,
            "TANGENT" : 8,
            "TEXCOORD_0" : 9
          },
          "indices" : 5,
          "material" : 1
        },
        {
          "attributes" : {
            "POSITION" : 11,
            "NORMAL" : 12,
            "TANGENT" : 13,
            "TEXCOORD_0" : 14
          },
          "indices" : 10,
          "material" : 2
        }
      ],
      "name" : "standardfence"
    }
  ],
  "buffers" : [
    {
      "uri" : "standardfence.bin",
      "byteLength" : 45300
    }
  ],
  "bufferViews" : [
    {
      "buffer" : 0,
      "byteOffset" : 0,
      "byteLength" : 1668
    },
    {
      "buffer" : 0,
      "byteOffset" : 1668,
      "byteLength" : 10008
    },
    {
      "buffer" : 0,
      "byteOffset" : 11676,
      "byteLength" : 10008
    },
    {
      "buffer" : 0,
      "byteOffset" : 21684,
      "byteLength" : 13344
    },
    {
      "buffer" : 0,
      "byteOffset" : 35028,
      "byteLength" : 6672
    },
    {
      "buffer" : 0,
      "byteOffset" : 41700,
      "byteLength" : 24
    },
    {
      "buffer" : 0,
      "byteOffset" : 41724,
      "byteLength" : 144
    },
    {
      "buffer" : 0,
      "byteOffset" : 41868,
      "byteLength" : 144
    },
    {
      "buffer" : 0,
      "byteOffset" : 42012,
      "byteLength" : 192
    },
    {
      "buffer" : 0,
      "byteOffset" : 42204,
      "byteLength" : 96
    },
    {
      "buffer" : 0,
      "byteOffset" : 42300,
      "byteLength" : 120
    },
    {
      "buffer" : 0,
      "byteOffset" : 42420,
      "byteLength" : 720
    },
    {
      "buffer" : 0,
      "byteOffset" : 43140,
      "byteLength" : 720
    },
    {
      "buffer" : 0,
      "byteOffset" : 43860,
      "byteLength" : 960
    },
    {
      "buffer" : 0,
      "byteOffset" : 44820,
      "byteLength" : 480
    }
  ],
  "accessors" : [
    {
      "bufferView" : 0,
      "componentType" : 5123,
      "count" : 834,
      "type" : "SCALAR"
    },
    {
      "bufferView" : 1,
      "min" : [ -4.11108, -0.00262914, -0.223128 ],
      "max" : [ 0.091816, 2.82996, 0.106923 ],
      "componentType" : 5126,
      "count" : 834,
      "type" : "VEC3"
    },
    {
      "bufferView" : 2,
      "componentType" : 5126,
      "count" : 834,
      "type" : "VEC3"
    },
    {
      "bufferView" : 3,
      "componentType" : 5126,
      "count" : 834,
      "type" : "VEC4"
    },
    {
      "bufferView" : 4,
      "componentType" : 5126,
      "count" : 834,
      "type" : "VEC2"
    },
    {
      "bufferView" : 5,
      "componentType" : 5123,
      "count" : 12,
      "type" : "SCALAR"
    },
    {
      "bufferView" : 6,
      "min" : [ -4.02095, 0.0381629, -0.000208915 ],
      "max" : [ -0.00669831, 2.54643, 0.000955522 ],
      "componentType" : 5126,
      "count" : 12,
      "type" : "VEC3"
    },
    {
      "bufferView" : 7,
      "componentType" : 5126,
      "count" : 12,
      "type" : "VEC3"
    },
    {
      "bufferView" : 8,
      "componentType" : 5126,
      "count" : 12,
      "type" : "VEC4"
    },
    {
      "bufferView" : 9,
      "componentType" : 5126,
      "count" : 12,
      "type" : "VEC2"
    },
    {
      "bufferView" : 10,
      "componentType" : 5123,
      "count" : 60,
      "type" : "SCALAR"
    },
    {
      "bufferView" : 11,
      "min" : [ -4.04443, -4.76837e-08, -0.147084 ],
      "max" : [ 0.0182, 2.79066, 0.0360215 ],
      "componentType" : 5126,
      "count" : 60,
      "type" : "VEC3"
    },
    {
      "bufferView" : 12,
      "componentType" : 5126,
      "count" : 60,
      "type" : "VEC3"
    },
    {
      "bufferView" : 13,
      "componentType" : 5126,
      "count" : 60,
      "type" : "VEC4"
    },
    {
      "bufferView" : 14,
      "componentType" : 5126,
      "count" : 60,
      "type" : "VEC2"
    }
  ]
}
