{
  "asset" : {
    "generator" : "UE Viewer (umodel) build 1587",
    "version" : "2.0"
  },
  "scene" : 0,
  "scenes" : [
    {
      "nodes" : [ 0 ]
    }
  ],
  "nodes" : [
    {
      "name" : "chairRes",
      "mesh" : 0
    }
  ],
  "materials" : [
    {
      "name" : "M_Metal_Chrome",
      "pbrMetallicRoughness" : {
        "baseColorFactor" : [ 0.3, 0.3, 0.3, 1.0 ],
        "metallicFactor" : 0.1,
        "roughnessFactor" : 0.5
      }
    },
    {
      "name" : "Black",
      "pbrMetallicRoughness" : {
        "baseColorFactor" : [ 0.9, 0.3, 0.3, 1.0 ],
        "metallicFactor" : 0.1,
        "roughnessFactor" : 0.5
      }
    },
    {
      "name" : "M_Metal_Chrome",
      "pbrMetallicRoughness" : {
        "baseColorFactor" : [ 0.3, 0.9, 0.3, 1.0 ],
        "metallicFactor" : 0.1,
        "roughnessFactor" : 0.5
      }
    },
    {
      "name" : "Black",
      "pbrMetallicRoughness" : {
        "baseColorFactor" : [ 0.3, 0.3, 0.9, 1.0 ],
        "metallicFactor" : 0.1,
        "roughnessFactor" : 0.5
      }
    },
    {
      "name" : "M_Metal_Chrome",
      "pbrMetallicRoughness" : {
        "baseColorFactor" : [ 0.9, 0.9, 0.9, 1.0 ],
        "metallicFactor" : 0.1,
        "roughnessFactor" : 0.5
      }
    },
    {
      "name" : "Black",
      "pbrMetallicRoughness" : {
        "baseColorFactor" : [ 0.9, 0.9, 0.3, 1.0 ],
        "metallicFactor" : 0.1,
        "roughnessFactor" : 0.5
      }
    },
    {
      "name" : "M_Metal_Chrome",
      "pbrMetallicRoughness" : {
        "baseColorFactor" : [ 0.9, 0.3, 0.9, 1.0 ],
        "metallicFactor" : 0.1,
        "roughnessFactor" : 0.5
      }
    },
    {
      "name" : "Black",
      "pbrMetallicRoughness" : {
        "baseColorFactor" : [ 0.3, 0.9, 0.9, 1.0 ],
        "metallicFactor" : 0.1,
        "roughnessFactor" : 0.5
      }
    },
    {
      "name" : "M_Metal_Chrome",
      "pbrMetallicRoughness" : {
        "baseColorFactor" : [ 1, 0.3, 0.3, 1.0 ],
        "metallicFactor" : 0.1,
        "roughnessFactor" : 0.5
      }
    },
    {
      "name" : "01_-_Default",
      "pbrMetallicRoughness" : {
        "baseColorFactor" : [ 0.6, 0.3, 0.3, 1.0 ],
        "metallicFactor" : 0.1,
        "roughnessFactor" : 0.5
      }
    },
    {
      "name" : "M_Metal_Chrome",
      "pbrMetallicRoughness" : {
        "baseColorFactor" : [ 1, 0.9, 0.3, 1.0 ],
        "metallicFactor" : 0.1,
        "roughnessFactor" : 0.5
      }
    }
  ],
  "meshes" : [
    {
      "primitives" : [
        {
          "attributes" : {
            "POSITION" : 1,
            "NORMAL" : 2,
            "TANGENT" : 3,
            "TEXCOORD_0" : 4
          },
          "indices" : 0,
          "material" : 0
        },
        {
          "attributes" : {
            "POSITION" : 6,
            "NORMAL" : 7,
            "TANGENT" : 8,
            "TEXCOORD_0" : 9
          },
          "indices" : 5,
          "material" : 1
        },
        {
          "attributes" : {
            "POSITION" : 11,
            "NORMAL" : 12,
            "TANGENT" : 13,
            "TEXCOORD_0" : 14
          },
          "indices" : 10,
          "material" : 2
        },
        {
          "attributes" : {
            "POSITION" : 16,
            "NORMAL" : 17,
            "TANGENT" : 18,
            "TEXCOORD_0" : 19
          },
          "indices" : 15,
          "material" : 3
        },
        {
          "attributes" : {
            "POSITION" : 21,
            "NORMAL" : 22,
            "TANGENT" : 23,
            "TEXCOORD_0" : 24
          },
          "indices" : 20,
          "material" : 4
        },
        {
          "attributes" : {
            "POSITION" : 26,
            "NORMAL" : 27,
            "TANGENT" : 28,
            "TEXCOORD_0" : 29
          },
          "indices" : 25,
          "material" : 5
        },
        {
          "attributes" : {
            "POSITION" : 31,
            "NORMAL" : 32,
            "TANGENT" : 33,
            "TEXCOORD_0" : 34
          },
          "indices" : 30,
          "material" : 6
        },
        {
          "attributes" : {
            "POSITION" : 36,
            "NORMAL" : 37,
            "TANGENT" : 38,
            "TEXCOORD_0" : 39
          },
          "indices" : 35,
          "material" : 7
        },
        {
          "attributes" : {
            "POSITION" : 41,
            "NORMAL" : 42,
            "TANGENT" : 43,
            "TEXCOORD_0" : 44
          },
          "indices" : 40,
          "material" : 8
        },
        {
          "attributes" : {
            "POSITION" : 46,
            "NORMAL" : 47,
            "TANGENT" : 48,
            "TEXCOORD_0" : 49
          },
          "indices" : 45,
          "material" : 9
        },
        {
          "attributes" : {
            "POSITION" : 51,
            "NORMAL" : 52,
            "TANGENT" : 53,
            "TEXCOORD_0" : 54
          },
          "indices" : 50,
          "material" : 10
        }
      ],
      "name" : "chairRes"
    }
  ],
  "buffers" : [
    {
      "uri" : "chairRes.bin",
      "byteLength" : 328200
    }
  ],
  "bufferViews" : [
    {
      "buffer" : 0,
      "byteOffset" : 0,
      "byteLength" : 2688
    },
    {
      "buffer" : 0,
      "byteOffset" : 2688,
      "byteLength" : 16128
    },
    {
      "buffer" : 0,
      "byteOffset" : 18816,
      "byteLength" : 16128
    },
    {
      "buffer" : 0,
      "byteOffset" : 34944,
      "byteLength" : 21504
    },
    {
      "buffer" : 0,
      "byteOffset" : 56448,
      "byteLength" : 10752
    },
    {
      "buffer" : 0,
      "byteOffset" : 67200,
      "byteLength" : 216
    },
    {
      "buffer" : 0,
      "byteOffset" : 67416,
      "byteLength" : 1296
    },
    {
      "buffer" : 0,
      "byteOffset" : 68712,
      "byteLength" : 1296
    },
    {
      "buffer" : 0,
      "byteOffset" : 70008,
      "byteLength" : 1728
    },
    {
      "buffer" : 0,
      "byteOffset" : 71736,
      "byteLength" : 864
    },
    {
      "buffer" : 0,
      "byteOffset" : 72600,
      "byteLength" : 216
    },
    {
      "buffer" : 0,
      "byteOffset" : 72816,
      "byteLength" : 1296
    },
    {
      "buffer" : 0,
      "byteOffset" : 74112,
      "byteLength" : 1296
    },
    {
      "buffer" : 0,
      "byteOffset" : 75408,
      "byteLength" : 1728
    },
    {
      "buffer" : 0,
      "byteOffset" : 77136,
      "byteLength" : 864
    },
    {
      "buffer" : 0,
      "byteOffset" : 78000,
      "byteLength" : 720
    },
    {
      "buffer" : 0,
      "byteOffset" : 78720,
      "byteLength" : 4320
    },
    {
      "buffer" : 0,
      "byteOffset" : 83040,
      "byteLength" : 4320
    },
    {
      "buffer" : 0,
      "byteOffset" : 87360,
      "byteLength" : 5760
    },
    {
      "buffer" : 0,
      "byteOffset" : 93120,
      "byteLength" : 2880
    },
    {
      "buffer" : 0,
      "byteOffset" : 96000,
      "byteLength" : 3120
    },
    {
      "buffer" : 0,
      "byteOffset" : 99120,
      "byteLength" : 18720
    },
    {
      "buffer" : 0,
      "byteOffset" : 117840,
      "byteLength" : 18720
    },
    {
      "buffer" : 0,
      "byteOffset" : 136560,
      "byteLength" : 24960
    },
    {
      "buffer" : 0,
      "byteOffset" : 161520,
      "byteLength" : 12480
    },
    {
      "buffer" : 0,
      "byteOffset" : 174000,
      "byteLength" : 216
    },
    {
      "buffer" : 0,
      "byteOffset" : 174216,
      "byteLength" : 1296
    },
    {
      "buffer" : 0,
      "byteOffset" : 175512,
      "byteLength" : 1296
    },
    {
      "buffer" : 0,
      "byteOffset" : 176808,
      "byteLength" : 1728
    },
    {
      "buffer" : 0,
      "byteOffset" : 178536,
      "byteLength" : 864
    },
    {
      "buffer" : 0,
      "byteOffset" : 179400,
      "byteLength" : 216
    },
    {
      "buffer" : 0,
      "byteOffset" : 179616,
      "byteLength" : 1296
    },
    {
      "buffer" : 0,
      "byteOffset" : 180912,
      "byteLength" : 1296
    },
    {
      "buffer" : 0,
      "byteOffset" : 182208,
      "byteLength" : 1728
    },
    {
      "buffer" : 0,
      "byteOffset" : 183936,
      "byteLength" : 864
    },
    {
      "buffer" : 0,
      "byteOffset" : 184800,
      "byteLength" : 720
    },
    {
      "buffer" : 0,
      "byteOffset" : 185520,
      "byteLength" : 4320
    },
    {
      "buffer" : 0,
      "byteOffset" : 189840,
      "byteLength" : 4320
    },
    {
      "buffer" : 0,
      "byteOffset" : 194160,
      "byteLength" : 5760
    },
    {
      "buffer" : 0,
      "byteOffset" : 199920,
      "byteLength" : 2880
    },
    {
      "buffer" : 0,
      "byteOffset" : 202800,
      "byteLength" : 432
    },
    {
      "buffer" : 0,
      "byteOffset" : 203232,
      "byteLength" : 2592
    },
    {
      "buffer" : 0,
      "byteOffset" : 205824,
      "byteLength" : 2592
    },
    {
      "buffer" : 0,
      "byteOffset" : 208416,
      "byteLength" : 3456
    },
    {
      "buffer" : 0,
      "byteOffset" : 211872,
      "byteLength" : 1728
    },
    {
      "buffer" : 0,
      "byteOffset" : 213600,
      "byteLength" : 4392
    },
    {
      "buffer" : 0,
      "byteOffset" : 217992,
      "byteLength" : 26352
    },
    {
      "buffer" : 0,
      "byteOffset" : 244344,
      "byteLength" : 26352
    },
    {
      "buffer" : 0,
      "byteOffset" : 270696,
      "byteLength" : 35136
    },
    {
      "buffer" : 0,
      "byteOffset" : 305832,
      "byteLength" : 17568
    },
    {
      "buffer" : 0,
      "byteOffset" : 323400,
      "byteLength" : 192
    },
    {
      "buffer" : 0,
      "byteOffset" : 323592,
      "byteLength" : 1152
    },
    {
      "buffer" : 0,
      "byteOffset" : 324744,
      "byteLength" : 1152
    },
    {
      "buffer" : 0,
      "byteOffset" : 325896,
      "byteLength" : 1536
    },
    {
      "buffer" : 0,
      "byteOffset" : 327432,
      "byteLength" : 768
    }
  ],
  "accessors" : [
    {
      "bufferView" : 0,
      "componentType" : 5123,
      "count" : 1344,
      "type" : "SCALAR"
    },
    {
      "bufferView" : 1,
      "min" : [ 0.578839, 0.551531, 0.466816 ],
      "max" : [ 0.687848, 0.732665, 1.05761 ],
      "componentType" : 5126,
      "count" : 1344,
      "type" : "VEC3"
    },
    {
      "bufferView" : 2,
      "componentType" : 5126,
      "count" : 1344,
      "type" : "VEC3"
    },
    {
      "bufferView" : 3,
      "componentType" : 5126,
      "count" : 1344,
      "type" : "VEC4"
    },
    {
      "bufferView" : 4,
      "componentType" : 5126,
      "count" : 1344,
      "type" : "VEC2"
    },
    {
      "bufferView" : 5,
      "componentType" : 5123,
      "count" : 108,
      "type" : "SCALAR"
    },
    {
      "bufferView" : 6,
      "min" : [ 0.713314, 0.926842, 1.06745 ],
      "max" : [ 0.745786, 0.94808, 1.09858 ],
      "componentType" : 5126,
      "count" : 108,
      "type" : "VEC3"
    },
    {
      "bufferView" : 7,
      "componentType" : 5126,
      "count" : 108,
      "type" : "VEC3"
    },
    {
      "bufferView" : 8,
      "componentType" : 5126,
      "count" : 108,
      "type" : "VEC4"
    },
    {
      "bufferView" : 9,
      "componentType" : 5126,
      "count" : 108,
      "type" : "VEC2"
    },
    {
      "bufferView" : 10,
      "componentType" : 5123,
      "count" : 108,
      "type" : "SCALAR"
    },
    {
      "bufferView" : 11,
      "min" : [ 0.657399, 0.0162682, 1.04079 ],
      "max" : [ 0.959501, 0.71895, 1.08378 ],
      "componentType" : 5126,
      "count" : 108,
      "type" : "VEC3"
    },
    {
      "bufferView" : 12,
      "componentType" : 5126,
      "count" : 108,
      "type" : "VEC3"
    },
    {
      "bufferView" : 13,
      "componentType" : 5126,
      "count" : 108,
      "type" : "VEC4"
    },
    {
      "bufferView" : 14,
      "componentType" : 5126,
      "count" : 108,
      "type" : "VEC2"
    },
    {
      "bufferView" : 15,
      "componentType" : 5123,
      "count" : 360,
      "type" : "SCALAR"
    },
    {
      "bufferView" : 16,
      "min" : [ 0.569157, 5.72205e-08, 0.406364 ],
      "max" : [ 0.965769, 0.94808, 1.09858 ],
      "componentType" : 5126,
      "count" : 360,
      "type" : "VEC3"
    },
    {
      "bufferView" : 17,
      "componentType" : 5126,
      "count" : 360,
      "type" : "VEC3"
    },
    {
      "bufferView" : 18,
      "componentType" : 5126,
      "count" : 360,
      "type" : "VEC4"
    },
    {
      "bufferView" : 19,
      "componentType" : 5126,
      "count" : 360,
      "type" : "VEC2"
    },
    {
      "bufferView" : 20,
      "componentType" : 5123,
      "count" : 1560,
      "type" : "SCALAR"
    },
    {
      "bufferView" : 21,
      "min" : [ 0.106575, 0.0162682, 0.408133 ],
      "max" : [ 0.742428, 0.934815, 1.12164 ],
      "componentType" : 5126,
      "count" : 1560,
      "type" : "VEC3"
    },
    {
      "bufferView" : 22,
      "componentType" : 5126,
      "count" : 1560,
      "type" : "VEC3"
    },
    {
      "bufferView" : 23,
      "componentType" : 5126,
      "count" : 1560,
      "type" : "VEC4"
    },
    {
      "bufferView" : 24,
      "componentType" : 5126,
      "count" : 1560,
      "type" : "VEC2"
    },
    {
      "bufferView" : 25,
      "componentType" : 5123,
      "count" : 108,
      "type" : "SCALAR"
    },
    {
      "bufferView" : 26,
      "min" : [ 0.55947, 0.926842, 1.15632 ],
      "max" : [ 0.589728, 0.94808, 1.18862 ],
      "componentType" : 5126,
      "count" : 108,
      "type" : "VEC3"
    },
    {
      "bufferView" : 27,
      "componentType" : 5126,
      "count" : 108,
      "type" : "VEC3"
    },
    {
      "bufferView" : 28,
      "componentType" : 5126,
      "count" : 108,
      "type" : "VEC4"
    },
    {
      "bufferView" : 29,
      "componentType" : 5126,
      "count" : 108,
      "type" : "VEC2"
    },
    {
      "bufferView" : 30,
      "componentType" : 5123,
      "count" : 108,
      "type" : "SCALAR"
    },
    {
      "bufferView" : 31,
      "min" : [ 0.440294, 0.0162682, 1.0944 ],
      "max" : [ 0.594084, 0.71895, 1.36638 ],
      "componentType" : 5126,
      "count" : 108,
      "type" : "VEC3"
    },
    {
      "bufferView" : 32,
      "componentType" : 5126,
      "count" : 108,
      "type" : "VEC3"
    },
    {
      "bufferView" : 33,
      "componentType" : 5126,
      "count" : 108,
      "type" : "VEC4"
    },
    {
      "bufferView" : 34,
      "componentType" : 5126,
      "count" : 108,
      "type" : "VEC2"
    },
    {
      "bufferView" : 35,
      "componentType" : 5123,
      "count" : 360,
      "type" : "SCALAR"
    },
    {
      "bufferView" : 36,
      "min" : [ 0.0591223, -4.31787e-17, 0.70086 ],
      "max" : [ 0.589461, 0.94808, 1.37196 ],
      "componentType" : 5126,
      "count" : 360,
      "type" : "VEC3"
    },
    {
      "bufferView" : 37,
      "componentType" : 5126,
      "count" : 360,
      "type" : "VEC3"
    },
    {
      "bufferView" : 38,
      "componentType" : 5126,
      "count" : 360,
      "type" : "VEC4"
    },
    {
      "bufferView" : 39,
      "componentType" : 5126,
      "count" : 360,
      "type" : "VEC2"
    },
    {
      "bufferView" : 40,
      "componentType" : 5123,
      "count" : 216,
      "type" : "SCALAR"
    },
    {
      "bufferView" : 41,
      "min" : [ 0.060512, 0.0162682, 0.701991 ],
      "max" : [ 0.594084, 0.934815, 1.1849 ],
      "componentType" : 5126,
      "count" : 216,
      "type" : "VEC3"
    },
    {
      "bufferView" : 42,
      "componentType" : 5126,
      "count" : 216,
      "type" : "VEC3"
    },
    {
      "bufferView" : 43,
      "componentType" : 5126,
      "count" : 216,
      "type" : "VEC4"
    },
    {
      "bufferView" : 44,
      "componentType" : 5126,
      "count" : 216,
      "type" : "VEC2"
    },
    {
      "bufferView" : 45,
      "componentType" : 5123,
      "count" : 2196,
      "type" : "SCALAR"
    },
    {
      "bufferView" : 46,
      "min" : [ 0.0114966, 0.730453, 0.343766 ],
      "max" : [ 1.00036, 1.45634, 1.38311 ],
      "componentType" : 5126,
      "count" : 2196,
      "type" : "VEC3"
    },
    {
      "bufferView" : 47,
      "componentType" : 5126,
      "count" : 2196,
      "type" : "VEC3"
    },
    {
      "bufferView" : 48,
      "componentType" : 5126,
      "count" : 2196,
      "type" : "VEC4"
    },
    {
      "bufferView" : 49,
      "componentType" : 5126,
      "count" : 2196,
      "type" : "VEC2"
    },
    {
      "bufferView" : 50,
      "componentType" : 5123,
      "count" : 96,
      "type" : "SCALAR"
    },
    {
      "bufferView" : 51,
      "min" : [ 0.537625, 0.706078, 1.00153 ],
      "max" : [ 0.674443, 0.729411, 1.09399 ],
      "componentType" : 5126,
      "count" : 96,
      "type" : "VEC3"
    },
    {
      "bufferView" : 52,
      "componentType" : 5126,
      "count" : 96,
      "type" : "VEC3"
    },
    {
      "bufferView" : 53,
      "componentType" : 5126,
      "count" : 96,
      "type" : "VEC4"
    },
    {
      "bufferView" : 54,
      "componentType" : 5126,
      "count" : 96,
      "type" : "VEC2"
    }
  ]
}
