{
  "asset" : {
    "generator" : "UE Viewer (umodel) build 1587",
    "version" : "2.0"
  },
  "scene" : 0,
  "scenes" : [
    {
      "nodes" : [ 0 ]
    }
  ],
  "nodes" : [
    {
      "name" : "TableRes",
      "mesh" : 0
    }
  ],
  "materials" : [
    {
      "name" : "M_Metal_Chrome",
      "pbrMetallicRoughness" : {
        "baseColorFactor" : [ 0.3, 0.3, 0.3, 1.0 ],
        "metallicFactor" : 0.1,
        "roughnessFactor" : 0.5
      }
    },
    {
      "name" : "01_-_Default",
      "pbrMetallicRoughness" : {
        "baseColorFactor" : [ 0.9, 0.3, 0.3, 1.0 ],
        "metallicFactor" : 0.1,
        "roughnessFactor" : 0.5
      }
    },
    {
      "name" : "M_Metal_Chrome",
      "pbrMetallicRoughness" : {
        "baseColorFactor" : [ 0.3, 0.9, 0.3, 1.0 ],
        "metallicFactor" : 0.1,
        "roughnessFactor" : 0.5
      }
    },
    {
      "name" : "01_-_Default",
      "pbrMetallicRoughness" : {
        "baseColorFactor" : [ 0.3, 0.3, 0.9, 1.0 ],
        "metallicFactor" : 0.1,
        "roughnessFactor" : 0.5
      }
    },
    {
      "name" : "M_Metal_Chrome",
      "pbrMetallicRoughness" : {
        "baseColorFactor" : [ 0.9, 0.9, 0.9, 1.0 ],
        "metallicFactor" : 0.1,
        "roughnessFactor" : 0.5
      }
    },
    {
      "name" : "01_-_Default",
      "pbrMetallicRoughness" : {
        "baseColorFactor" : [ 0.9, 0.9, 0.3, 1.0 ],
        "metallicFactor" : 0.1,
        "roughnessFactor" : 0.5
      }
    },
    {
      "name" : "M_Metal_Chrome",
      "pbrMetallicRoughness" : {
        "baseColorFactor" : [ 0.9, 0.3, 0.9, 1.0 ],
        "metallicFactor" : 0.1,
        "roughnessFactor" : 0.5
      }
    },
    {
      "name" : "01_-_Default",
      "pbrMetallicRoughness" : {
        "baseColorFactor" : [ 0.3, 0.9, 0.9, 1.0 ],
        "metallicFactor" : 0.1,
        "roughnessFactor" : 0.5
      }
    },
    {
      "name" : "M_Metal_Chrome",
      "pbrMetallicRoughness" : {
        "baseColorFactor" : [ 1, 0.3, 0.3, 1.0 ],
        "metallicFactor" : 0.1,
        "roughnessFactor" : 0.5
      }
    },
    {
      "name" : "01_-_Default",
      "pbrMetallicRoughness" : {
        "baseColorFactor" : [ 0.6, 0.3, 0.3, 1.0 ],
        "metallicFactor" : 0.1,
        "roughnessFactor" : 0.5
      }
    },
    {
      "name" : "M_Metal_Chrome",
      "pbrMetallicRoughness" : {
        "baseColorFactor" : [ 1, 0.9, 0.3, 1.0 ],
        "metallicFactor" : 0.1,
        "roughnessFactor" : 0.5
      }
    },
    {
      "name" : "01_-_Default",
      "pbrMetallicRoughness" : {
        "baseColorFactor" : [ 1, 0.3, 0.9, 1.0 ],
        "metallicFactor" : 0.1,
        "roughnessFactor" : 0.5
      }
    },
    {
      "name" : "01_-_Default",
      "pbrMetallicRoughness" : {
        "baseColorFactor" : [ 0.6, 0.9, 0.9, 1.0 ],
        "metallicFactor" : 0.1,
        "roughnessFactor" : 0.5
      }
    }
  ],
  "meshes" : [
    {
      "primitives" : [
        {
          "attributes" : {
            "POSITION" : 1,
            "NORMAL" : 2,
            "TANGENT" : 3,
            "TEXCOORD_0" : 4
          },
          "indices" : 0,
          "material" : 0
        },
        {
          "attributes" : {
            "POSITION" : 6,
            "NORMAL" : 7,
            "TANGENT" : 8,
            "TEXCOORD_0" : 9
          },
          "indices" : 5,
          "material" : 1
        },
        {
          "attributes" : {
            "POSITION" : 11,
            "NORMAL" : 12,
            "TANGENT" : 13,
            "TEXCOORD_0" : 14
          },
          "indices" : 10,
          "material" : 2
        },
        {
          "attributes" : {
            "POSITION" : 16,
            "NORMAL" : 17,
            "TANGENT" : 18,
            "TEXCOORD_0" : 19
          },
          "indices" : 15,
          "material" : 3
        },
        {
          "attributes" : {
            "POSITION" : 21,
            "NORMAL" : 22,
            "TANGENT" : 23,
            "TEXCOORD_0" : 24
          },
          "indices" : 20,
          "material" : 4
        },
        {
          "attributes" : {
            "POSITION" : 26,
            "NORMAL" : 27,
            "TANGENT" : 28,
            "TEXCOORD_0" : 29
          },
          "indices" : 25,
          "material" : 5
        },
        {
          "attributes" : {
            "POSITION" : 31,
            "NORMAL" : 32,
            "TANGENT" : 33,
            "TEXCOORD_0" : 34
          },
          "indices" : 30,
          "material" : 6
        },
        {
          "attributes" : {
            "POSITION" : 36,
            "NORMAL" : 37,
            "TANGENT" : 38,
            "TEXCOORD_0" : 39
          },
          "indices" : 35,
          "material" : 7
        },
        {
          "attributes" : {
            "POSITION" : 41,
            "NORMAL" : 42,
            "TANGENT" : 43,
            "TEXCOORD_0" : 44
          },
          "indices" : 40,
          "material" : 8
        },
        {
          "attributes" : {
            "POSITION" : 46,
            "NORMAL" : 47,
            "TANGENT" : 48,
            "TEXCOORD_0" : 49
          },
          "indices" : 45,
          "material" : 9
        },
        {
          "attributes" : {
            "POSITION" : 51,
            "NORMAL" : 52,
            "TANGENT" : 53,
            "TEXCOORD_0" : 54
          },
          "indices" : 50,
          "material" : 10
        },
        {
          "attributes" : {
            "POSITION" : 56,
            "NORMAL" : 57,
            "TANGENT" : 58,
            "TEXCOORD_0" : 59
          },
          "indices" : 55,
          "material" : 11
        },
        {
          "attributes" : {
            "POSITION" : 61,
            "NORMAL" : 62,
            "TANGENT" : 63,
            "TEXCOORD_0" : 64
          },
          "indices" : 60,
          "material" : 12
        }
      ],
      "name" : "TableRes"
    }
  ],
  "buffers" : [
    {
      "uri" : "TableRes.bin",
      "byteLength" : 545400
    }
  ],
  "bufferViews" : [
    {
      "buffer" : 0,
      "byteOffset" : 0,
      "byteLength" : 5184
    },
    {
      "buffer" : 0,
      "byteOffset" : 5184,
      "byteLength" : 31104
    },
    {
      "buffer" : 0,
      "byteOffset" : 36288,
      "byteLength" : 31104
    },
    {
      "buffer" : 0,
      "byteOffset" : 67392,
      "byteLength" : 41472
    },
    {
      "buffer" : 0,
      "byteOffset" : 108864,
      "byteLength" : 20736
    },
    {
      "buffer" : 0,
      "byteOffset" : 129600,
      "byteLength" : 288
    },
    {
      "buffer" : 0,
      "byteOffset" : 129888,
      "byteLength" : 1728
    },
    {
      "buffer" : 0,
      "byteOffset" : 131616,
      "byteLength" : 1728
    },
    {
      "buffer" : 0,
      "byteOffset" : 133344,
      "byteLength" : 2304
    },
    {
      "buffer" : 0,
      "byteOffset" : 135648,
      "byteLength" : 1152
    },
    {
      "buffer" : 0,
      "byteOffset" : 136800,
      "byteLength" : 288
    },
    {
      "buffer" : 0,
      "byteOffset" : 137088,
      "byteLength" : 1728
    },
    {
      "buffer" : 0,
      "byteOffset" : 138816,
      "byteLength" : 1728
    },
    {
      "buffer" : 0,
      "byteOffset" : 140544,
      "byteLength" : 2304
    },
    {
      "buffer" : 0,
      "byteOffset" : 142848,
      "byteLength" : 1152
    },
    {
      "buffer" : 0,
      "byteOffset" : 144000,
      "byteLength" : 552
    },
    {
      "buffer" : 0,
      "byteOffset" : 144552,
      "byteLength" : 3312
    },
    {
      "buffer" : 0,
      "byteOffset" : 147864,
      "byteLength" : 3312
    },
    {
      "buffer" : 0,
      "byteOffset" : 151176,
      "byteLength" : 4416
    },
    {
      "buffer" : 0,
      "byteOffset" : 155592,
      "byteLength" : 2208
    },
    {
      "buffer" : 0,
      "byteOffset" : 157800,
      "byteLength" : 5184
    },
    {
      "buffer" : 0,
      "byteOffset" : 162984,
      "byteLength" : 31104
    },
    {
      "buffer" : 0,
      "byteOffset" : 194088,
      "byteLength" : 31104
    },
    {
      "buffer" : 0,
      "byteOffset" : 225192,
      "byteLength" : 41472
    },
    {
      "buffer" : 0,
      "byteOffset" : 266664,
      "byteLength" : 20736
    },
    {
      "buffer" : 0,
      "byteOffset" : 287400,
      "byteLength" : 288
    },
    {
      "buffer" : 0,
      "byteOffset" : 287688,
      "byteLength" : 1728
    },
    {
      "buffer" : 0,
      "byteOffset" : 289416,
      "byteLength" : 1728
    },
    {
      "buffer" : 0,
      "byteOffset" : 291144,
      "byteLength" : 2304
    },
    {
      "buffer" : 0,
      "byteOffset" : 293448,
      "byteLength" : 1152
    },
    {
      "buffer" : 0,
      "byteOffset" : 294600,
      "byteLength" : 288
    },
    {
      "buffer" : 0,
      "byteOffset" : 294888,
      "byteLength" : 1728
    },
    {
      "buffer" : 0,
      "byteOffset" : 296616,
      "byteLength" : 1728
    },
    {
      "buffer" : 0,
      "byteOffset" : 298344,
      "byteLength" : 2304
    },
    {
      "buffer" : 0,
      "byteOffset" : 300648,
      "byteLength" : 1152
    },
    {
      "buffer" : 0,
      "byteOffset" : 301800,
      "byteLength" : 552
    },
    {
      "buffer" : 0,
      "byteOffset" : 302352,
      "byteLength" : 3312
    },
    {
      "buffer" : 0,
      "byteOffset" : 305664,
      "byteLength" : 3312
    },
    {
      "buffer" : 0,
      "byteOffset" : 308976,
      "byteLength" : 4416
    },
    {
      "buffer" : 0,
      "byteOffset" : 313392,
      "byteLength" : 2208
    },
    {
      "buffer" : 0,
      "byteOffset" : 315600,
      "byteLength" : 5184
    },
    {
      "buffer" : 0,
      "byteOffset" : 320784,
      "byteLength" : 31104
    },
    {
      "buffer" : 0,
      "byteOffset" : 351888,
      "byteLength" : 31104
    },
    {
      "buffer" : 0,
      "byteOffset" : 382992,
      "byteLength" : 41472
    },
    {
      "buffer" : 0,
      "byteOffset" : 424464,
      "byteLength" : 20736
    },
    {
      "buffer" : 0,
      "byteOffset" : 445200,
      "byteLength" : 288
    },
    {
      "buffer" : 0,
      "byteOffset" : 445488,
      "byteLength" : 1728
    },
    {
      "buffer" : 0,
      "byteOffset" : 447216,
      "byteLength" : 1728
    },
    {
      "buffer" : 0,
      "byteOffset" : 448944,
      "byteLength" : 2304
    },
    {
      "buffer" : 0,
      "byteOffset" : 451248,
      "byteLength" : 1152
    },
    {
      "buffer" : 0,
      "byteOffset" : 452400,
      "byteLength" : 288
    },
    {
      "buffer" : 0,
      "byteOffset" : 452688,
      "byteLength" : 1728
    },
    {
      "buffer" : 0,
      "byteOffset" : 454416,
      "byteLength" : 1728
    },
    {
      "buffer" : 0,
      "byteOffset" : 456144,
      "byteLength" : 2304
    },
    {
      "buffer" : 0,
      "byteOffset" : 458448,
      "byteLength" : 1152
    },
    {
      "buffer" : 0,
      "byteOffset" : 459600,
      "byteLength" : 552
    },
    {
      "buffer" : 0,
      "byteOffset" : 460152,
      "byteLength" : 3312
    },
    {
      "buffer" : 0,
      "byteOffset" : 463464,
      "byteLength" : 3312
    },
    {
      "buffer" : 0,
      "byteOffset" : 466776,
      "byteLength" : 4416
    },
    {
      "buffer" : 0,
      "byteOffset" : 471192,
      "byteLength" : 2208
    },
    {
      "buffer" : 0,
      "byteOffset" : 473400,
      "byteLength" : 2880
    },
    {
      "buffer" : 0,
      "byteOffset" : 476280,
      "byteLength" : 17280
    },
    {
      "buffer" : 0,
      "byteOffset" : 493560,
      "byteLength" : 17280
    },
    {
      "buffer" : 0,
      "byteOffset" : 510840,
      "byteLength" : 23040
    },
    {
      "buffer" : 0,
      "byteOffset" : 533880,
      "byteLength" : 11520
    }
  ],
  "accessors" : [
    {
      "bufferView" : 0,
      "componentType" : 5123,
      "count" : 2592,
      "type" : "SCALAR"
    },
    {
      "bufferView" : 1,
      "min" : [ -0.00972384, 0.0118632, -0.424685 ],
      "max" : [ 0.0409035, 1.13735, -0.0138391 ],
      "componentType" : 5126,
      "count" : 2592,
      "type" : "VEC3"
    },
    {
      "bufferView" : 2,
      "componentType" : 5126,
      "count" : 2592,
      "type" : "VEC3"
    },
    {
      "bufferView" : 3,
      "componentType" : 5126,
      "count" : 2592,
      "type" : "VEC4"
    },
    {
      "bufferView" : 4,
      "componentType" : 5126,
      "count" : 2592,
      "type" : "VEC2"
    },
    {
      "bufferView" : 5,
      "componentType" : 5123,
      "count" : 144,
      "type" : "SCALAR"
    },
    {
      "bufferView" : 6,
      "min" : [ -0.00972384, 1.14039, -0.325411 ],
      "max" : [ 0.0409035, 1.14637, -0.24098 ],
      "componentType" : 5126,
      "count" : 144,
      "type" : "VEC3"
    },
    {
      "bufferView" : 7,
      "componentType" : 5126,
      "count" : 144,
      "type" : "VEC3"
    },
    {
      "bufferView" : 8,
      "componentType" : 5126,
      "count" : 144,
      "type" : "VEC4"
    },
    {
      "bufferView" : 9,
      "componentType" : 5126,
      "count" : 144,
      "type" : "VEC2"
    },
    {
      "bufferView" : 10,
      "componentType" : 5123,
      "count" : 144,
      "type" : "SCALAR"
    },
    {
      "bufferView" : 11,
      "min" : [ -0.00972384, 1.10033, -0.318477 ],
      "max" : [ 0.0409035, 1.14039, -0.23745 ],
      "componentType" : 5126,
      "count" : 144,
      "type" : "VEC3"
    },
    {
      "bufferView" : 12,
      "componentType" : 5126,
      "count" : 144,
      "type" : "VEC3"
    },
    {
      "bufferView" : 13,
      "componentType" : 5126,
      "count" : 144,
      "type" : "VEC4"
    },
    {
      "bufferView" : 14,
      "componentType" : 5126,
      "count" : 144,
      "type" : "VEC2"
    },
    {
      "bufferView" : 15,
      "componentType" : 5123,
      "count" : 276,
      "type" : "SCALAR"
    },
    {
      "bufferView" : 16,
      "min" : [ -0.00972384, -5.19957e-08, -0.442947 ],
      "max" : [ 0.0409035, 1.14637, -0.247914 ],
      "componentType" : 5126,
      "count" : 276,
      "type" : "VEC3"
    },
    {
      "bufferView" : 17,
      "componentType" : 5126,
      "count" : 276,
      "type" : "VEC3"
    },
    {
      "bufferView" : 18,
      "componentType" : 5126,
      "count" : 276,
      "type" : "VEC4"
    },
    {
      "bufferView" : 19,
      "componentType" : 5126,
      "count" : 276,
      "type" : "VEC2"
    },
    {
      "bufferView" : 20,
      "componentType" : 5123,
      "count" : 2592,
      "type" : "SCALAR"
    },
    {
      "bufferView" : 21,
      "min" : [ 0.0465196, 0.0118633, 0.0337595 ],
      "max" : [ 0.406705, 1.13735, 0.256656 ],
      "componentType" : 5126,
      "count" : 2592,
      "type" : "VEC3"
    },
    {
      "bufferView" : 22,
      "componentType" : 5126,
      "count" : 2592,
      "type" : "VEC3"
    },
    {
      "bufferView" : 23,
      "componentType" : 5126,
      "count" : 2592,
      "type" : "VEC4"
    },
    {
      "bufferView" : 24,
      "componentType" : 5126,
      "count" : 2592,
      "type" : "VEC2"
    },
    {
      "bufferView" : 25,
      "componentType" : 5123,
      "count" : 144,
      "type" : "SCALAR"
    },
    {
      "bufferView" : 26,
      "min" : [ 0.244048, 1.14039, 0.148648 ],
      "max" : [ 0.321493, 1.14637, 0.210501 ],
      "componentType" : 5126,
      "count" : 144,
      "type" : "VEC3"
    },
    {
      "bufferView" : 27,
      "componentType" : 5126,
      "count" : 144,
      "type" : "VEC3"
    },
    {
      "bufferView" : 28,
      "componentType" : 5126,
      "count" : 144,
      "type" : "VEC4"
    },
    {
      "bufferView" : 29,
      "componentType" : 5126,
      "count" : 144,
      "type" : "VEC2"
    },
    {
      "bufferView" : 30,
      "componentType" : 5123,
      "count" : 144,
      "type" : "SCALAR"
    },
    {
      "bufferView" : 31,
      "min" : [ 0.238593, 1.10033, 0.14191 ],
      "max" : [ 0.315488, 1.14039, 0.207034 ],
      "componentType" : 5126,
      "count" : 144,
      "type" : "VEC3"
    },
    {
      "bufferView" : 32,
      "componentType" : 5126,
      "count" : 144,
      "type" : "VEC3"
    },
    {
      "bufferView" : 33,
      "componentType" : 5126,
      "count" : 144,
      "type" : "VEC4"
    },
    {
      "bufferView" : 34,
      "componentType" : 5126,
      "count" : 144,
      "type" : "VEC2"
    },
    {
      "bufferView" : 35,
      "componentType" : 5123,
      "count" : 276,
      "type" : "SCALAR"
    },
    {
      "bufferView" : 36,
      "min" : [ 0.250053, 3.95556e-08, 0.152114 ],
      "max" : [ 0.422516, 1.14637, 0.265768 ],
      "componentType" : 5126,
      "count" : 276,
      "type" : "VEC3"
    },
    {
      "bufferView" : 37,
      "componentType" : 5126,
      "count" : 276,
      "type" : "VEC3"
    },
    {
      "bufferView" : 38,
      "componentType" : 5126,
      "count" : 276,
      "type" : "VEC4"
    },
    {
      "bufferView" : 39,
      "componentType" : 5126,
      "count" : 276,
      "type" : "VEC2"
    },
    {
      "bufferView" : 40,
      "componentType" : 5123,
      "count" : 2592,
      "type" : "SCALAR"
    },
    {
      "bufferView" : 41,
      "min" : [ -0.375525, 0.0118633, 0.0337596 ],
      "max" : [ -0.0153399, 1.13735, 0.256655 ],
      "componentType" : 5126,
      "count" : 2592,
      "type" : "VEC3"
    },
    {
      "bufferView" : 42,
      "componentType" : 5126,
      "count" : 2592,
      "type" : "VEC3"
    },
    {
      "bufferView" : 43,
      "componentType" : 5126,
      "count" : 2592,
      "type" : "VEC4"
    },
    {
      "bufferView" : 44,
      "componentType" : 5126,
      "count" : 2592,
      "type" : "VEC2"
    },
    {
      "bufferView" : 45,
      "componentType" : 5123,
      "count" : 144,
      "type" : "SCALAR"
    },
    {
      "bufferView" : 46,
      "min" : [ -0.290313, 1.14039, 0.148648 ],
      "max" : [ -0.212868, 1.14637, 0.210501 ],
      "componentType" : 5126,
      "count" : 144,
      "type" : "VEC3"
    },
    {
      "bufferView" : 47,
      "componentType" : 5126,
      "count" : 144,
      "type" : "VEC3"
    },
    {
      "bufferView" : 48,
      "componentType" : 5126,
      "count" : 144,
      "type" : "VEC4"
    },
    {
      "bufferView" : 49,
      "componentType" : 5126,
      "count" : 144,
      "type" : "VEC2"
    },
    {
      "bufferView" : 50,
      "componentType" : 5123,
      "count" : 144,
      "type" : "SCALAR"
    },
    {
      "bufferView" : 51,
      "min" : [ -0.284308, 1.10033, 0.141909 ],
      "max" : [ -0.207413, 1.14039, 0.207034 ],
      "componentType" : 5126,
      "count" : 144,
      "type" : "VEC3"
    },
    {
      "bufferView" : 52,
      "componentType" : 5126,
      "count" : 144,
      "type" : "VEC3"
    },
    {
      "bufferView" : 53,
      "componentType" : 5126,
      "count" : 144,
      "type" : "VEC4"
    },
    {
      "bufferView" : 54,
      "componentType" : 5126,
      "count" : 144,
      "type" : "VEC2"
    },
    {
      "bufferView" : 55,
      "componentType" : 5123,
      "count" : 276,
      "type" : "SCALAR"
    },
    {
      "bufferView" : 56,
      "min" : [ -0.391337, 3.95556e-08, 0.152114 ],
      "max" : [ -0.218873, 1.14637, 0.265768 ],
      "componentType" : 5126,
      "count" : 276,
      "type" : "VEC3"
    },
    {
      "bufferView" : 57,
      "componentType" : 5126,
      "count" : 276,
      "type" : "VEC3"
    },
    {
      "bufferView" : 58,
      "componentType" : 5126,
      "count" : 276,
      "type" : "VEC4"
    },
    {
      "bufferView" : 59,
      "componentType" : 5126,
      "count" : 276,
      "type" : "VEC2"
    },
    {
      "bufferView" : 60,
      "componentType" : 5123,
      "count" : 1440,
      "type" : "SCALAR"
    },
    {
      "bufferView" : 61,
      "min" : [ -0.746619, 1.14637, -0.736891 ],
      "max" : [ 0.777799, 1.1705, 0.787527 ],
      "componentType" : 5126,
      "count" : 1440,
      "type" : "VEC3"
    },
    {
      "bufferView" : 62,
      "componentType" : 5126,
      "count" : 1440,
      "type" : "VEC3"
    },
    {
      "bufferView" : 63,
      "componentType" : 5126,
      "count" : 1440,
      "type" : "VEC4"
    },
    {
      "bufferView" : 64,
      "componentType" : 5126,
      "count" : 1440,
      "type" : "VEC2"
    }
  ]
}
