{
  "asset" : {
    "generator" : "UE Viewer (umodel) build 1587",
    "version" : "2.0"
  },
  "scene" : 0,
  "scenes" : [
    {
      "nodes" : [ 0 ]
    }
  ],
  "nodes" : [
    {
      "name" : "fountain",
      "mesh" : 0
    }
  ],
  "materials" : [
    {
      "name" : "M_Brick_Hewn_Stone",
      "pbrMetallicRoughness" : {
        "baseColorFactor" : [ 0.3, 0.3, 0.3, 1.0 ],
        "metallicFactor" : 0.1,
        "roughnessFactor" : 0.5
      }
    },
    {
      "name" : "M_Water_Lake",
      "pbrMetallicRoughness" : {
        "baseColorFactor" : [ 0.9, 0.3, 0.3, 1.0 ],
        "metallicFactor" : 0.1,
        "roughnessFactor" : 0.5
      }
    }
  ],
  "meshes" : [
    {
      "primitives" : [
        {
          "attributes" : {
            "POSITION" : 1,
            "NORMAL" : 2,
            "TANGENT" : 3,
            "TEXCOORD_0" : 4
          },
          "indices" : 0,
          "material" : 0
        },
        {
          "attributes" : {
            "POSITION" : 6,
            "NORMAL" : 7,
            "TANGENT" : 8,
            "TEXCOORD_0" : 9
          },
          "indices" : 5,
          "material" : 1
        }
      ],
      "name" : "fountain"
    }
  ],
  "buffers" : [
    {
      "uri" : "fountain.bin",
      "byteLength" : 11328984
    }
  ],
  "bufferViews" : [
    {
      "buffer" : 0,
      "byteOffset" : 0,
      "byteLength" : 868968
    },
    {
      "buffer" : 0,
      "byteOffset" : 868968,
      "byteLength" : 2606904
    },
    {
      "buffer" : 0,
      "byteOffset" : 3475872,
      "byteLength" : 2606904
    },
    {
      "buffer" : 0,
      "byteOffset" : 6082776,
      "byteLength" : 3475872
    },
    {
      "buffer" : 0,
      "byteOffset" : 9558648,
      "byteLength" : 1737936
    },
    {
      "buffer" : 0,
      "byteOffset" : 11296584,
      "byteLength" : 1296
    },
    {
      "buffer" : 0,
      "byteOffset" : 11297880,
      "byteLength" : 7776
    },
    {
      "buffer" : 0,
      "byteOffset" : 11305656,
      "byteLength" : 7776
    },
    {
      "buffer" : 0,
      "byteOffset" : 11313432,
      "byteLength" : 10368
    },
    {
      "buffer" : 0,
      "byteOffset" : 11323800,
      "byteLength" : 5184
    }
  ],
  "accessors" : [
    {
      "bufferView" : 0,
      "componentType" : 5125,
      "count" : 217242,
      "type" : "SCALAR"
    },
    {
      "bufferView" : 1,
      "min" : [ -3.92863, -0.2, -6.35873 ],
      "max" : [ 8.09899, 2.2, 5.6689 ],
      "componentType" : 5126,
      "count" : 217242,
      "type" : "VEC3"
    },
    {
      "bufferView" : 2,
      "componentType" : 5126,
      "count" : 217242,
      "type" : "VEC3"
    },
    {
      "bufferView" : 3,
      "componentType" : 5126,
      "count" : 217242,
      "type" : "VEC4"
    },
    {
      "bufferView" : 4,
      "componentType" : 5126,
      "count" : 217242,
      "type" : "VEC2"
    },
    {
      "bufferView" : 5,
      "componentType" : 5123,
      "count" : 648,
      "type" : "SCALAR"
    },
    {
      "bufferView" : 6,
      "min" : [ -3.38447, 0.258485, -6.08909 ],
      "max" : [ 7.79178, 0.702968, 5.2414 ],
      "componentType" : 5126,
      "count" : 648,
      "type" : "VEC3"
    },
    {
      "bufferView" : 7,
      "componentType" : 5126,
      "count" : 648,
      "type" : "VEC3"
    },
    {
      "bufferView" : 8,
      "componentType" : 5126,
      "count" : 648,
      "type" : "VEC4"
    },
    {
      "bufferView" : 9,
      "componentType" : 5126,
      "count" : 648,
      "type" : "VEC2"
    }
  ]
}
