{
  "asset" : {
    "generator" : "UE Viewer (umodel) build 1587",
    "version" : "2.0"
  },
  "scene" : 0,
  "scenes" : [
    {
      "nodes" : [ 0 ]
    }
  ],
  "nodes" : [
    {
      "name" : "locker",
      "mesh" : 0
    }
  ],
  "materials" : [
    {
      "name" : "wood_3_6_Mat",
      "pbrMetallicRoughness" : {
        "baseColorFactor" : [ 0.3, 0.3, 0.3, 1.0 ],
        "metallicFactor" : 0.1,
        "roughnessFactor" : 0.5
      }
    },
    {
      "name" : "M_Wood_Walnut",
      "pbrMetallicRoughness" : {
        "baseColorFactor" : [ 0.9, 0.3, 0.3, 1.0 ],
        "metallicFactor" : 0.1,
        "roughnessFactor" : 0.5
      }
    },
    {
      "name" : "wood_3_6_Mat",
      "pbrMetallicRoughness" : {
        "baseColorFactor" : [ 0.3, 0.9, 0.3, 1.0 ],
        "metallicFactor" : 0.1,
        "roughnessFactor" : 0.5
      }
    },
    {
      "name" : "M_Wood_Walnut",
      "pbrMetallicRoughness" : {
        "baseColorFactor" : [ 0.3, 0.3, 0.9, 1.0 ],
        "metallicFactor" : 0.1,
        "roughnessFactor" : 0.5
      }
    },
    {
      "name" : "wood_3_6_Mat",
      "pbrMetallicRoughness" : {
        "baseColorFactor" : [ 0.9, 0.9, 0.9, 1.0 ],
        "metallicFactor" : 0.1,
        "roughnessFactor" : 0.5
      }
    }
  ],
  "meshes" : [
    {
      "primitives" : [
        {
          "attributes" : {
            "POSITION" : 1,
            "NORMAL" : 2,
            "TANGENT" : 3,
            "TEXCOORD_0" : 4
          },
          "indices" : 0,
          "material" : 0
        },
        {
          "attributes" : {
            "POSITION" : 6,
            "NORMAL" : 7,
            "TANGENT" : 8,
            "TEXCOORD_0" : 9
          },
          "indices" : 5,
          "material" : 1
        },
        {
          "attributes" : {
            "POSITION" : 11,
            "NORMAL" : 12,
            "TANGENT" : 13,
            "TEXCOORD_0" : 14
          },
          "indices" : 10,
          "material" : 2
        },
        {
          "attributes" : {
            "POSITION" : 16,
            "NORMAL" : 17,
            "TANGENT" : 18,
            "TEXCOORD_0" : 19
          },
          "indices" : 15,
          "material" : 3
        },
        {
          "attributes" : {
            "POSITION" : 21,
            "NORMAL" : 22,
            "TANGENT" : 23,
            "TEXCOORD_0" : 24
          },
          "indices" : 20,
          "material" : 4
        }
      ],
      "name" : "locker"
    }
  ],
  "buffers" : [
    {
      "uri" : "locker.bin",
      "byteLength" : 42900
    }
  ],
  "bufferViews" : [
    {
      "buffer" : 0,
      "byteOffset" : 0,
      "byteLength" : 648
    },
    {
      "buffer" : 0,
      "byteOffset" : 648,
      "byteLength" : 3888
    },
    {
      "buffer" : 0,
      "byteOffset" : 4536,
      "byteLength" : 3888
    },
    {
      "buffer" : 0,
      "byteOffset" : 8424,
      "byteLength" : 5184
    },
    {
      "buffer" : 0,
      "byteOffset" : 13608,
      "byteLength" : 2592
    },
    {
      "buffer" : 0,
      "byteOffset" : 16200,
      "byteLength" : 216
    },
    {
      "buffer" : 0,
      "byteOffset" : 16416,
      "byteLength" : 1296
    },
    {
      "buffer" : 0,
      "byteOffset" : 17712,
      "byteLength" : 1296
    },
    {
      "buffer" : 0,
      "byteOffset" : 19008,
      "byteLength" : 1728
    },
    {
      "buffer" : 0,
      "byteOffset" : 20736,
      "byteLength" : 864
    },
    {
      "buffer" : 0,
      "byteOffset" : 21600,
      "byteLength" : 492
    },
    {
      "buffer" : 0,
      "byteOffset" : 22092,
      "byteLength" : 2952
    },
    {
      "buffer" : 0,
      "byteOffset" : 25044,
      "byteLength" : 2952
    },
    {
      "buffer" : 0,
      "byteOffset" : 27996,
      "byteLength" : 3936
    },
    {
      "buffer" : 0,
      "byteOffset" : 31932,
      "byteLength" : 1968
    },
    {
      "buffer" : 0,
      "byteOffset" : 33900,
      "byteLength" : 216
    },
    {
      "buffer" : 0,
      "byteOffset" : 34116,
      "byteLength" : 1296
    },
    {
      "buffer" : 0,
      "byteOffset" : 35412,
      "byteLength" : 1296
    },
    {
      "buffer" : 0,
      "byteOffset" : 36708,
      "byteLength" : 1728
    },
    {
      "buffer" : 0,
      "byteOffset" : 38436,
      "byteLength" : 864
    },
    {
      "buffer" : 0,
      "byteOffset" : 39300,
      "byteLength" : 144
    },
    {
      "buffer" : 0,
      "byteOffset" : 39444,
      "byteLength" : 864
    },
    {
      "buffer" : 0,
      "byteOffset" : 40308,
      "byteLength" : 864
    },
    {
      "buffer" : 0,
      "byteOffset" : 41172,
      "byteLength" : 1152
    },
    {
      "buffer" : 0,
      "byteOffset" : 42324,
      "byteLength" : 576
    }
  ],
  "accessors" : [
    {
      "bufferView" : 0,
      "componentType" : 5123,
      "count" : 324,
      "type" : "SCALAR"
    },
    {
      "bufferView" : 1,
      "min" : [ -0.490163, 0.00803388, -1.42978 ],
      "max" : [ 0.392305, 1.22386, 1.223 ],
      "componentType" : 5126,
      "count" : 324,
      "type" : "VEC3"
    },
    {
      "bufferView" : 2,
      "componentType" : 5126,
      "count" : 324,
      "type" : "VEC3"
    },
    {
      "bufferView" : 3,
      "componentType" : 5126,
      "count" : 324,
      "type" : "VEC4"
    },
    {
      "bufferView" : 4,
      "componentType" : 5126,
      "count" : 324,
      "type" : "VEC2"
    },
    {
      "bufferView" : 5,
      "componentType" : 5123,
      "count" : 108,
      "type" : "SCALAR"
    },
    {
      "bufferView" : 6,
      "min" : [ 0.390297, 0.481427, -1.23438 ],
      "max" : [ 0.419077, 1.03185, 1.22121 ],
      "componentType" : 5126,
      "count" : 108,
      "type" : "VEC3"
    },
    {
      "bufferView" : 7,
      "componentType" : 5126,
      "count" : 108,
      "type" : "VEC3"
    },
    {
      "bufferView" : 8,
      "componentType" : 5126,
      "count" : 108,
      "type" : "VEC4"
    },
    {
      "bufferView" : 9,
      "componentType" : 5126,
      "count" : 108,
      "type" : "VEC2"
    },
    {
      "bufferView" : 10,
      "componentType" : 5123,
      "count" : 246,
      "type" : "SCALAR"
    },
    {
      "bufferView" : 11,
      "min" : [ -0.49392, 0.0176186, -1.42606 ],
      "max" : [ 0.390758, 1.22386, 1.41998 ],
      "componentType" : 5126,
      "count" : 246,
      "type" : "VEC3"
    },
    {
      "bufferView" : 12,
      "componentType" : 5126,
      "count" : 246,
      "type" : "VEC3"
    },
    {
      "bufferView" : 13,
      "componentType" : 5126,
      "count" : 246,
      "type" : "VEC4"
    },
    {
      "bufferView" : 14,
      "componentType" : 5126,
      "count" : 246,
      "type" : "VEC2"
    },
    {
      "bufferView" : 15,
      "componentType" : 5123,
      "count" : 108,
      "type" : "SCALAR"
    },
    {
      "bufferView" : 16,
      "min" : [ 0.390297, 0.19085, -1.23438 ],
      "max" : [ 0.419077, 0.741274, 1.22121 ],
      "componentType" : 5126,
      "count" : 108,
      "type" : "VEC3"
    },
    {
      "bufferView" : 17,
      "componentType" : 5126,
      "count" : 108,
      "type" : "VEC3"
    },
    {
      "bufferView" : 18,
      "componentType" : 5126,
      "count" : 108,
      "type" : "VEC4"
    },
    {
      "bufferView" : 19,
      "componentType" : 5126,
      "count" : 108,
      "type" : "VEC2"
    },
    {
      "bufferView" : 20,
      "componentType" : 5123,
      "count" : 72,
      "type" : "SCALAR"
    },
    {
      "bufferView" : 21,
      "min" : [ -0.493431, 0.00675119, -1.42616 ],
      "max" : [ -0.450418, 1.18046, 1.42089 ],
      "componentType" : 5126,
      "count" : 72,
      "type" : "VEC3"
    },
    {
      "bufferView" : 22,
      "componentType" : 5126,
      "count" : 72,
      "type" : "VEC3"
    },
    {
      "bufferView" : 23,
      "componentType" : 5126,
      "count" : 72,
      "type" : "VEC4"
    },
    {
      "bufferView" : 24,
      "componentType" : 5126,
      "count" : 72,
      "type" : "VEC2"
    }
  ]
}
