{
  "asset" : {
    "generator" : "UE Viewer (umodel) build 1587",
    "version" : "2.0"
  },
  "scene" : 0,
  "scenes" : [
    {
      "nodes" : [ 0 ]
    }
  ],
  "nodes" : [
    {
      "name" : "mirror2",
      "mesh" : 0
    }
  ],
  "materials" : [
    {
      "name" : "M_Metal_Gold",
      "pbrMetallicRoughness" : {
        "baseColorFactor" : [ 0.3, 0.3, 0.3, 1.0 ],
        "metallicFactor" : 0.1,
        "roughnessFactor" : 0.5
      }
    },
    {
      "name" : "mirror",
      "pbrMetallicRoughness" : {
        "baseColorFactor" : [ 0.9, 0.3, 0.3, 1.0 ],
        "metallicFactor" : 0.1,
        "roughnessFactor" : 0.5
      }
    }
  ],
  "meshes" : [
    {
      "primitives" : [
        {
          "attributes" : {
            "POSITION" : 1,
            "NORMAL" : 2,
            "TANGENT" : 3,
            "TEXCOORD_0" : 4
          },
          "indices" : 0,
          "material" : 0
        },
        {
          "attributes" : {
            "POSITION" : 6,
            "NORMAL" : 7,
            "TANGENT" : 8,
            "TEXCOORD_0" : 9
          },
          "indices" : 5,
          "material" : 1
        }
      ],
      "name" : "mirror2"
    }
  ],
  "buffers" : [
    {
      "uri" : "mirror2.bin",
      "byteLength" : 3621228
    }
  ],
  "bufferViews" : [
    {
      "buffer" : 0,
      "byteOffset" : 0,
      "byteLength" : 278256
    },
    {
      "buffer" : 0,
      "byteOffset" : 278256,
      "byteLength" : 834768
    },
    {
      "buffer" : 0,
      "byteOffset" : 1113024,
      "byteLength" : 834768
    },
    {
      "buffer" : 0,
      "byteOffset" : 1947792,
      "byteLength" : 1113024
    },
    {
      "buffer" : 0,
      "byteOffset" : 3060816,
      "byteLength" : 556512
    },
    {
      "buffer" : 0,
      "byteOffset" : 3617328,
      "byteLength" : 156
    },
    {
      "buffer" : 0,
      "byteOffset" : 3617484,
      "byteLength" : 936
    },
    {
      "buffer" : 0,
      "byteOffset" : 3618420,
      "byteLength" : 936
    },
    {
      "buffer" : 0,
      "byteOffset" : 3619356,
      "byteLength" : 1248
    },
    {
      "buffer" : 0,
      "byteOffset" : 3620604,
      "byteLength" : 624
    }
  ],
  "accessors" : [
    {
      "bufferView" : 0,
      "componentType" : 5125,
      "count" : 69564,
      "type" : "SCALAR"
    },
    {
      "bufferView" : 1,
      "min" : [ -0.0604801, -0.00775717, -0.679337 ],
      "max" : [ 0.0396598, 1.79224, 0.657733 ],
      "componentType" : 5126,
      "count" : 69564,
      "type" : "VEC3"
    },
    {
      "bufferView" : 2,
      "componentType" : 5126,
      "count" : 69564,
      "type" : "VEC3"
    },
    {
      "bufferView" : 3,
      "componentType" : 5126,
      "count" : 69564,
      "type" : "VEC4"
    },
    {
      "bufferView" : 4,
      "componentType" : 5126,
      "count" : 69564,
      "type" : "VEC2"
    },
    {
      "bufferView" : 5,
      "componentType" : 5123,
      "count" : 78,
      "type" : "SCALAR"
    },
    {
      "bufferView" : 6,
      "min" : [ 0.00947984, 0.01911, -0.678347 ],
      "max" : [ 0.00947984, 1.78836, 0.640243 ],
      "componentType" : 5126,
      "count" : 78,
      "type" : "VEC3"
    },
    {
      "bufferView" : 7,
      "componentType" : 5126,
      "count" : 78,
      "type" : "VEC3"
    },
    {
      "bufferView" : 8,
      "componentType" : 5126,
      "count" : 78,
      "type" : "VEC4"
    },
    {
      "bufferView" : 9,
      "componentType" : 5126,
      "count" : 78,
      "type" : "VEC2"
    }
  ]
}
