{
  "asset" : {
    "generator" : "UE Viewer (umodel) build 1587",
    "version" : "2.0"
  },
  "scene" : 0,
  "scenes" : [
    {
      "nodes" : [ 0 ]
    }
  ],
  "nodes" : [
    {
      "name" : "bench",
      "mesh" : 0
    }
  ],
  "materials" : [
    {
      "name" : "chrome08_210",
      "pbrMetallicRoughness" : {
        "baseColorFactor" : [ 0.3, 0.3, 0.3, 1.0 ],
        "metallicFactor" : 0.1,
        "roughnessFactor" : 0.5
      }
    },
    {
      "name" : "w__3_",
      "pbrMetallicRoughness" : {
        "baseColorFactor" : [ 0.9, 0.3, 0.3, 1.0 ],
        "metallicFactor" : 0.1,
        "roughnessFactor" : 0.5
      }
    },
    {
      "name" : "chrome08_210",
      "pbrMetallicRoughness" : {
        "baseColorFactor" : [ 0.3, 0.9, 0.3, 1.0 ],
        "metallicFactor" : 0.1,
        "roughnessFactor" : 0.5
      }
    }
  ],
  "meshes" : [
    {
      "primitives" : [
        {
          "attributes" : {
            "POSITION" : 1,
            "NORMAL" : 2,
            "TANGENT" : 3,
            "TEXCOORD_0" : 4
          },
          "indices" : 0,
          "material" : 0
        },
        {
          "attributes" : {
            "POSITION" : 6,
            "NORMAL" : 7,
            "TANGENT" : 8,
            "TEXCOORD_0" : 9
          },
          "indices" : 5,
          "material" : 1
        },
        {
          "attributes" : {
            "POSITION" : 11,
            "NORMAL" : 12,
            "TANGENT" : 13,
            "TEXCOORD_0" : 14
          },
          "indices" : 10,
          "material" : 2
        }
      ],
      "name" : "bench"
    }
  ],
  "buffers" : [
    {
      "uri" : "bench.bin",
      "byteLength" : 2827500
    }
  ],
  "bufferViews" : [
    {
      "buffer" : 0,
      "byteOffset" : 0,
      "byteLength" : 86796
    },
    {
      "buffer" : 0,
      "byteOffset" : 86796,
      "byteLength" : 520776
    },
    {
      "buffer" : 0,
      "byteOffset" : 607572,
      "byteLength" : 520776
    },
    {
      "buffer" : 0,
      "byteOffset" : 1128348,
      "byteLength" : 694368
    },
    {
      "buffer" : 0,
      "byteOffset" : 1822716,
      "byteLength" : 347184
    },
    {
      "buffer" : 0,
      "byteOffset" : 2169900,
      "byteLength" : 12240
    },
    {
      "buffer" : 0,
      "byteOffset" : 2182140,
      "byteLength" : 73440
    },
    {
      "buffer" : 0,
      "byteOffset" : 2255580,
      "byteLength" : 73440
    },
    {
      "buffer" : 0,
      "byteOffset" : 2329020,
      "byteLength" : 97920
    },
    {
      "buffer" : 0,
      "byteOffset" : 2426940,
      "byteLength" : 48960
    },
    {
      "buffer" : 0,
      "byteOffset" : 2475900,
      "byteLength" : 14064
    },
    {
      "buffer" : 0,
      "byteOffset" : 2489964,
      "byteLength" : 84384
    },
    {
      "buffer" : 0,
      "byteOffset" : 2574348,
      "byteLength" : 84384
    },
    {
      "buffer" : 0,
      "byteOffset" : 2658732,
      "byteLength" : 112512
    },
    {
      "buffer" : 0,
      "byteOffset" : 2771244,
      "byteLength" : 56256
    }
  ],
  "accessors" : [
    {
      "bufferView" : 0,
      "componentType" : 5123,
      "count" : 43398,
      "type" : "SCALAR"
    },
    {
      "bufferView" : 1,
      "min" : [ -9.16589, 0.00875732, -3.23931 ],
      "max" : [ 9.13639, 6.9598, 3.21702 ],
      "componentType" : 5126,
      "count" : 43398,
      "type" : "VEC3"
    },
    {
      "bufferView" : 2,
      "componentType" : 5126,
      "count" : 43398,
      "type" : "VEC3"
    },
    {
      "bufferView" : 3,
      "componentType" : 5126,
      "count" : 43398,
      "type" : "VEC4"
    },
    {
      "bufferView" : 4,
      "componentType" : 5126,
      "count" : 43398,
      "type" : "VEC2"
    },
    {
      "bufferView" : 5,
      "componentType" : 5123,
      "count" : 6120,
      "type" : "SCALAR"
    },
    {
      "bufferView" : 6,
      "min" : [ -9.01864, 2.91532, -2.2971 ],
      "max" : [ 8.98137, 7.09733, 3.03651 ],
      "componentType" : 5126,
      "count" : 6120,
      "type" : "VEC3"
    },
    {
      "bufferView" : 7,
      "componentType" : 5126,
      "count" : 6120,
      "type" : "VEC3"
    },
    {
      "bufferView" : 8,
      "componentType" : 5126,
      "count" : 6120,
      "type" : "VEC4"
    },
    {
      "bufferView" : 9,
      "componentType" : 5126,
      "count" : 6120,
      "type" : "VEC2"
    },
    {
      "bufferView" : 10,
      "componentType" : 5123,
      "count" : 7032,
      "type" : "SCALAR"
    },
    {
      "bufferView" : 11,
      "min" : [ -9.17976, 2.66203, -1.77386 ],
      "max" : [ 9.14429, 4.97971, 2.45173 ],
      "componentType" : 5126,
      "count" : 7032,
      "type" : "VEC3"
    },
    {
      "bufferView" : 12,
      "componentType" : 5126,
      "count" : 7032,
      "type" : "VEC3"
    },
    {
      "bufferView" : 13,
      "componentType" : 5126,
      "count" : 7032,
      "type" : "VEC4"
    },
    {
      "bufferView" : 14,
      "componentType" : 5126,
      "count" : 7032,
      "type" : "VEC2"
    }
  ]
}
