{
  "asset" : {
    "generator" : "UE Viewer (umodel) build 1587",
    "version" : "2.0"
  },
  "scene" : 0,
  "scenes" : [
    {
      "nodes" : [ 0 ]
    }
  ],
  "nodes" : [
    {
      "name" : "sofa1mesh",
      "mesh" : 0
    }
  ],
  "materials" : [
    {
      "name" : "08_-_Default",
      "pbrMetallicRoughness" : {
        "baseColorFactor" : [ 0.3, 0.3, 0.3, 1.0 ],
        "metallicFactor" : 0.1,
        "roughnessFactor" : 0.5
      }
    },
    {
      "name" : "wood_162_Mat",
      "pbrMetallicRoughness" : {
        "baseColorFactor" : [ 0.9, 0.3, 0.3, 1.0 ],
        "metallicFactor" : 0.1,
        "roughnessFactor" : 0.5
      }
    }
  ],
  "meshes" : [
    {
      "primitives" : [
        {
          "attributes" : {
            "POSITION" : 1,
            "NORMAL" : 2,
            "TANGENT" : 3,
            "TEXCOORD_0" : 4
          },
          "indices" : 0,
          "material" : 0
        },
        {
          "attributes" : {
            "POSITION" : 6,
            "NORMAL" : 7,
            "TANGENT" : 8,
            "TEXCOORD_0" : 9
          },
          "indices" : 5,
          "material" : 1
        }
      ],
      "name" : "sofa1mesh"
    }
  ],
  "buffers" : [
    {
      "uri" : "sofa1mesh.bin",
      "byteLength" : 5447328
    }
  ],
  "bufferViews" : [
    {
      "buffer" : 0,
      "byteOffset" : 0,
      "byteLength" : 416256
    },
    {
      "buffer" : 0,
      "byteOffset" : 416256,
      "byteLength" : 1248768
    },
    {
      "buffer" : 0,
      "byteOffset" : 1665024,
      "byteLength" : 1248768
    },
    {
      "buffer" : 0,
      "byteOffset" : 2913792,
      "byteLength" : 1665024
    },
    {
      "buffer" : 0,
      "byteOffset" : 4578816,
      "byteLength" : 832512
    },
    {
      "buffer" : 0,
      "byteOffset" : 5411328,
      "byteLength" : 1440
    },
    {
      "buffer" : 0,
      "byteOffset" : 5412768,
      "byteLength" : 8640
    },
    {
      "buffer" : 0,
      "byteOffset" : 5421408,
      "byteLength" : 8640
    },
    {
      "buffer" : 0,
      "byteOffset" : 5430048,
      "byteLength" : 11520
    },
    {
      "buffer" : 0,
      "byteOffset" : 5441568,
      "byteLength" : 5760
    }
  ],
  "accessors" : [
    {
      "bufferView" : 0,
      "componentType" : 5125,
      "count" : 104064,
      "type" : "SCALAR"
    },
    {
      "bufferView" : 1,
      "min" : [ -0.594757, 0.271255, -1.07231 ],
      "max" : [ 0.72395, 1.37558, 1.15274 ],
      "componentType" : 5126,
      "count" : 104064,
      "type" : "VEC3"
    },
    {
      "bufferView" : 2,
      "componentType" : 5126,
      "count" : 104064,
      "type" : "VEC3"
    },
    {
      "bufferView" : 3,
      "componentType" : 5126,
      "count" : 104064,
      "type" : "VEC4"
    },
    {
      "bufferView" : 4,
      "componentType" : 5126,
      "count" : 104064,
      "type" : "VEC2"
    },
    {
      "bufferView" : 5,
      "componentType" : 5123,
      "count" : 720,
      "type" : "SCALAR"
    },
    {
      "bufferView" : 6,
      "min" : [ -0.556609, 0.0285373, -1.00157 ],
      "max" : [ 0.552366, 0.274804, 1.07089 ],
      "componentType" : 5126,
      "count" : 720,
      "type" : "VEC3"
    },
    {
      "bufferView" : 7,
      "componentType" : 5126,
      "count" : 720,
      "type" : "VEC3"
    },
    {
      "bufferView" : 8,
      "componentType" : 5126,
      "count" : 720,
      "type" : "VEC4"
    },
    {
      "bufferView" : 9,
      "componentType" : 5126,
      "count" : 720,
      "type" : "VEC2"
    }
  ]
}
