{
  "asset" : {
    "generator" : "UE Viewer (umodel) build 1587",
    "version" : "2.0"
  },
  "scene" : 0,
  "scenes" : [
    {
      "nodes" : [ 0 ]
    }
  ],
  "nodes" : [
    {
      "name" : "tv",
      "mesh" : 0
    }
  ],
  "materials" : [
    {
      "name" : "_Tv_rack_black_a",
      "pbrMetallicRoughness" : {
        "baseColorFactor" : [ 0.3, 0.3, 0.3, 1.0 ],
        "metallicFactor" : 0.1,
        "roughnessFactor" : 0.5
      }
    },
    {
      "name" : "_Black_",
      "pbrMetallicRoughness" : {
        "baseColorFactor" : [ 0.9, 0.3, 0.3, 1.0 ],
        "metallicFactor" : 0.1,
        "roughnessFactor" : 0.5
      }
    },
    {
      "name" : "01_-_Default",
      "pbrMetallicRoughness" : {
        "baseColorFactor" : [ 0.3, 0.9, 0.3, 1.0 ],
        "metallicFactor" : 0.1,
        "roughnessFactor" : 0.5
      }
    },
    {
      "name" : "_Tv_rack_blac2",
      "pbrMetallicRoughness" : {
        "baseColorFactor" : [ 0.3, 0.3, 0.9, 1.0 ],
        "metallicFactor" : 0.1,
        "roughnessFactor" : 0.5
      }
    },
    {
      "name" : "_Tv_rack_blac1",
      "pbrMetallicRoughness" : {
        "baseColorFactor" : [ 0.9, 0.9, 0.9, 1.0 ],
        "metallicFactor" : 0.1,
        "roughnessFactor" : 0.5
      }
    }
  ],
  "meshes" : [
    {
      "primitives" : [
        {
          "attributes" : {
            "POSITION" : 1,
            "NORMAL" : 2,
            "TANGENT" : 3,
            "TEXCOORD_0" : 4
          },
          "indices" : 0,
          "material" : 0
        },
        {
          "attributes" : {
            "POSITION" : 6,
            "NORMAL" : 7,
            "TANGENT" : 8,
            "TEXCOORD_0" : 9
          },
          "indices" : 5,
          "material" : 1
        },
        {
          "attributes" : {
            "POSITION" : 11,
            "NORMAL" : 12,
            "TANGENT" : 13,
            "TEXCOORD_0" : 14
          },
          "indices" : 10,
          "material" : 2
        },
        {
          "attributes" : {
            "POSITION" : 16,
            "NORMAL" : 17,
            "TANGENT" : 18,
            "TEXCOORD_0" : 19
          },
          "indices" : 15,
          "material" : 3
        },
        {
          "attributes" : {
            "POSITION" : 21,
            "NORMAL" : 22,
            "TANGENT" : 23,
            "TEXCOORD_0" : 24
          },
          "indices" : 20,
          "material" : 4
        }
      ],
      "name" : "tv"
    }
  ],
  "buffers" : [
    {
      "uri" : "tv.bin",
      "byteLength" : 3195452
    }
  ],
  "bufferViews" : [
    {
      "buffer" : 0,
      "byteOffset" : 0,
      "byteLength" : 52716
    },
    {
      "buffer" : 0,
      "byteOffset" : 52716,
      "byteLength" : 316296
    },
    {
      "buffer" : 0,
      "byteOffset" : 369012,
      "byteLength" : 316296
    },
    {
      "buffer" : 0,
      "byteOffset" : 685308,
      "byteLength" : 421728
    },
    {
      "buffer" : 0,
      "byteOffset" : 1107036,
      "byteLength" : 210864
    },
    {
      "buffer" : 0,
      "byteOffset" : 1317900,
      "byteLength" : 10752
    },
    {
      "buffer" : 0,
      "byteOffset" : 1328652,
      "byteLength" : 64512
    },
    {
      "buffer" : 0,
      "byteOffset" : 1393164,
      "byteLength" : 64512
    },
    {
      "buffer" : 0,
      "byteOffset" : 1457676,
      "byteLength" : 86016
    },
    {
      "buffer" : 0,
      "byteOffset" : 1543692,
      "byteLength" : 43008
    },
    {
      "buffer" : 0,
      "byteOffset" : 1586700,
      "byteLength" : 72
    },
    {
      "buffer" : 0,
      "byteOffset" : 1586772,
      "byteLength" : 432
    },
    {
      "buffer" : 0,
      "byteOffset" : 1587204,
      "byteLength" : 432
    },
    {
      "buffer" : 0,
      "byteOffset" : 1587636,
      "byteLength" : 576
    },
    {
      "buffer" : 0,
      "byteOffset" : 1588212,
      "byteLength" : 288
    },
    {
      "buffer" : 0,
      "byteOffset" : 1588500,
      "byteLength" : 23136
    },
    {
      "buffer" : 0,
      "byteOffset" : 1611636,
      "byteLength" : 138816
    },
    {
      "buffer" : 0,
      "byteOffset" : 1750452,
      "byteLength" : 138816
    },
    {
      "buffer" : 0,
      "byteOffset" : 1889268,
      "byteLength" : 185088
    },
    {
      "buffer" : 0,
      "byteOffset" : 2074356,
      "byteLength" : 92544
    },
    {
      "buffer" : 0,
      "byteOffset" : 2166900,
      "byteLength" : 41144
    },
    {
      "buffer" : 0,
      "byteOffset" : 2208044,
      "byteLength" : 246852
    },
    {
      "buffer" : 0,
      "byteOffset" : 2454896,
      "byteLength" : 246852
    },
    {
      "buffer" : 0,
      "byteOffset" : 2701748,
      "byteLength" : 329136
    },
    {
      "buffer" : 0,
      "byteOffset" : 3030884,
      "byteLength" : 164568
    }
  ],
  "accessors" : [
    {
      "bufferView" : 0,
      "componentType" : 5123,
      "count" : 26358,
      "type" : "SCALAR"
    },
    {
      "bufferView" : 1,
      "min" : [ -0.0490403, -0.615323, -1.04604 ],
      "max" : [ 0.0159659, 0.615652, 1.07399 ],
      "componentType" : 5126,
      "count" : 26358,
      "type" : "VEC3"
    },
    {
      "bufferView" : 2,
      "componentType" : 5126,
      "count" : 26358,
      "type" : "VEC3"
    },
    {
      "bufferView" : 3,
      "componentType" : 5126,
      "count" : 26358,
      "type" : "VEC4"
    },
    {
      "bufferView" : 4,
      "componentType" : 5126,
      "count" : 26358,
      "type" : "VEC2"
    },
    {
      "bufferView" : 5,
      "componentType" : 5123,
      "count" : 5376,
      "type" : "SCALAR"
    },
    {
      "bufferView" : 6,
      "min" : [ 0.0159644, -0.619813, -0.983084 ],
      "max" : [ 0.0310838, 0.619813, 1.14545 ],
      "componentType" : 5126,
      "count" : 5376,
      "type" : "VEC3"
    },
    {
      "bufferView" : 7,
      "componentType" : 5126,
      "count" : 5376,
      "type" : "VEC3"
    },
    {
      "bufferView" : 8,
      "componentType" : 5126,
      "count" : 5376,
      "type" : "VEC4"
    },
    {
      "bufferView" : 9,
      "componentType" : 5126,
      "count" : 5376,
      "type" : "VEC2"
    },
    {
      "bufferView" : 10,
      "componentType" : 5123,
      "count" : 36,
      "type" : "SCALAR"
    },
    {
      "bufferView" : 11,
      "min" : [ 0.0189879, -0.564635, -0.922615 ],
      "max" : [ 0.0265485, 0.564635, 1.08498 ],
      "componentType" : 5126,
      "count" : 36,
      "type" : "VEC3"
    },
    {
      "bufferView" : 12,
      "componentType" : 5126,
      "count" : 36,
      "type" : "VEC3"
    },
    {
      "bufferView" : 13,
      "componentType" : 5126,
      "count" : 36,
      "type" : "VEC4"
    },
    {
      "bufferView" : 14,
      "componentType" : 5126,
      "count" : 36,
      "type" : "VEC2"
    },
    {
      "bufferView" : 15,
      "componentType" : 5123,
      "count" : 11568,
      "type" : "SCALAR"
    },
    {
      "bufferView" : 16,
      "min" : [ -0.0176423, -0.431098, -0.428796 ],
      "max" : [ -0.0027055, 0.437484, -0.39877 ],
      "componentType" : 5126,
      "count" : 11568,
      "type" : "VEC3"
    },
    {
      "bufferView" : 17,
      "componentType" : 5126,
      "count" : 11568,
      "type" : "VEC3"
    },
    {
      "bufferView" : 18,
      "componentType" : 5126,
      "count" : 11568,
      "type" : "VEC4"
    },
    {
      "bufferView" : 19,
      "componentType" : 5126,
      "count" : 11568,
      "type" : "VEC2"
    },
    {
      "bufferView" : 20,
      "componentType" : 5123,
      "count" : 20571,
      "type" : "SCALAR"
    },
    {
      "bufferView" : 21,
      "min" : [ 0.0309209, -0.605181, 0.00992464 ],
      "max" : [ 0.0336307, -0.572665, 0.152436 ],
      "componentType" : 5126,
      "count" : 20571,
      "type" : "VEC3"
    },
    {
      "bufferView" : 22,
      "componentType" : 5126,
      "count" : 20571,
      "type" : "VEC3"
    },
    {
      "bufferView" : 23,
      "componentType" : 5126,
      "count" : 20571,
      "type" : "VEC4"
    },
    {
      "bufferView" : 24,
      "componentType" : 5126,
      "count" : 20571,
      "type" : "VEC2"
    }
  ]
}
