{
  "asset" : {
    "generator" : "UE Viewer (umodel) build 1587",
    "version" : "2.0"
  },
  "scene" : 0,
  "scenes" : [
    {
      "nodes" : [ 0 ]
    }
  ],
  "nodes" : [
    {
      "name" : "hang2",
      "mesh" : 0
    }
  ],
  "materials" : [
    {
      "name" : "Material__30__тк",
      "pbrMetallicRoughness" : {
        "baseColorFactor" : [ 0.3, 0.3, 0.3, 1.0 ],
        "metallicFactor" : 0.1,
        "roughnessFactor" : 0.5
      }
    }
  ],
  "meshes" : [
    {
      "primitives" : [
        {
          "attributes" : {
            "POSITION" : 1,
            "NORMAL" : 2,
            "TANGENT" : 3,
            "TEXCOORD_0" : 4
          },
          "indices" : 0,
          "material" : 0
        }
      ],
      "name" : "hang2"
    }
  ],
  "buffers" : [
    {
      "uri" : "hang2.bin",
      "byteLength" : 1348200
    }
  ],
  "bufferViews" : [
    {
      "buffer" : 0,
      "byteOffset" : 0,
      "byteLength" : 53928
    },
    {
      "buffer" : 0,
      "byteOffset" : 53928,
      "byteLength" : 323568
    },
    {
      "buffer" : 0,
      "byteOffset" : 377496,
      "byteLength" : 323568
    },
    {
      "buffer" : 0,
      "byteOffset" : 701064,
      "byteLength" : 431424
    },
    {
      "buffer" : 0,
      "byteOffset" : 1132488,
      "byteLength" : 215712
    }
  ],
  "accessors" : [
    {
      "bufferView" : 0,
      "componentType" : 5123,
      "count" : 26964,
      "type" : "SCALAR"
    },
    {
      "bufferView" : 1,
      "min" : [ -0.77313, 0.00976679, -0.266962 ],
      "max" : [ 0.285236, 2.60559, 0.315436 ],
      "componentType" : 5126,
      "count" : 26964,
      "type" : "VEC3"
    },
    {
      "bufferView" : 2,
      "componentType" : 5126,
      "count" : 26964,
      "type" : "VEC3"
    },
    {
      "bufferView" : 3,
      "componentType" : 5126,
      "count" : 26964,
      "type" : "VEC4"
    },
    {
      "bufferView" : 4,
      "componentType" : 5126,
      "count" : 26964,
      "type" : "VEC2"
    }
  ]
}
