{
  "asset" : {
    "generator" : "UE Viewer (umodel) build 1587",
    "version" : "2.0"
  },
  "scene" : 0,
  "scenes" : [
    {
      "nodes" : [ 0 ]
    }
  ],
  "nodes" : [
    {
      "name" : "hang3",
      "mesh" : 0
    }
  ],
  "materials" : [
    {
      "name" : "chrome08_210",
      "pbrMetallicRoughness" : {
        "baseColorFactor" : [ 0.3, 0.3, 0.3, 1.0 ],
        "metallicFactor" : 0.1,
        "roughnessFactor" : 0.5
      }
    }
  ],
  "meshes" : [
    {
      "primitives" : [
        {
          "attributes" : {
            "POSITION" : 1,
            "NORMAL" : 2,
            "TANGENT" : 3,
            "TEXCOORD_0" : 4
          },
          "indices" : 0,
          "material" : 0
        }
      ],
      "name" : "hang3"
    }
  ],
  "buffers" : [
    {
      "uri" : "hang3.bin",
      "byteLength" : 783000
    }
  ],
  "bufferViews" : [
    {
      "buffer" : 0,
      "byteOffset" : 0,
      "byteLength" : 31320
    },
    {
      "buffer" : 0,
      "byteOffset" : 31320,
      "byteLength" : 187920
    },
    {
      "buffer" : 0,
      "byteOffset" : 219240,
      "byteLength" : 187920
    },
    {
      "buffer" : 0,
      "byteOffset" : 407160,
      "byteLength" : 250560
    },
    {
      "buffer" : 0,
      "byteOffset" : 657720,
      "byteLength" : 125280
    }
  ],
  "accessors" : [
    {
      "bufferView" : 0,
      "componentType" : 5123,
      "count" : 15660,
      "type" : "SCALAR"
    },
    {
      "bufferView" : 1,
      "min" : [ -0.168612, 0.0109909, -0.544446 ],
      "max" : [ 0.211182, 0.428782, 0.532906 ],
      "componentType" : 5126,
      "count" : 15660,
      "type" : "VEC3"
    },
    {
      "bufferView" : 2,
      "componentType" : 5126,
      "count" : 15660,
      "type" : "VEC3"
    },
    {
      "bufferView" : 3,
      "componentType" : 5126,
      "count" : 15660,
      "type" : "VEC4"
    },
    {
      "bufferView" : 4,
      "componentType" : 5126,
      "count" : 15660,
      "type" : "VEC2"
    }
  ]
}
