{
  "asset" : {
    "generator" : "UE Viewer (umodel) build 1587",
    "version" : "2.0"
  },
  "scene" : 0,
  "scenes" : [
    {
      "nodes" : [ 0 ]
    }
  ],
  "nodes" : [
    {
      "name" : "mirror",
      "mesh" : 0
    }
  ],
  "materials" : [
    {
      "name" : "M_Metal_Chrome",
      "pbrMetallicRoughness" : {
        "baseColorFactor" : [ 0.3, 0.3, 0.3, 1.0 ],
        "metallicFactor" : 0.1,
        "roughnessFactor" : 0.5
      }
    },
    {
      "name" : "WOOD_84_Mat",
      "pbrMetallicRoughness" : {
        "baseColorFactor" : [ 0.9, 0.3, 0.3, 1.0 ],
        "metallicFactor" : 0.1,
        "roughnessFactor" : 0.5
      }
    },
    {
      "name" : "M_Metal_Chrome",
      "pbrMetallicRoughness" : {
        "baseColorFactor" : [ 0.3, 0.9, 0.3, 1.0 ],
        "metallicFactor" : 0.1,
        "roughnessFactor" : 0.5
      }
    },
    {
      "name" : "WOOD_84_Mat",
      "pbrMetallicRoughness" : {
        "baseColorFactor" : [ 0.3, 0.3, 0.9, 1.0 ],
        "metallicFactor" : 0.1,
        "roughnessFactor" : 0.5
      }
    },
    {
      "name" : "M_Metal_Chrome",
      "pbrMetallicRoughness" : {
        "baseColorFactor" : [ 0.9, 0.9, 0.9, 1.0 ],
        "metallicFactor" : 0.1,
        "roughnessFactor" : 0.5
      }
    },
    {
      "name" : "WOOD_84_Mat",
      "pbrMetallicRoughness" : {
        "baseColorFactor" : [ 0.9, 0.9, 0.3, 1.0 ],
        "metallicFactor" : 0.1,
        "roughnessFactor" : 0.5
      }
    },
    {
      "name" : "M_Metal_Chrome",
      "pbrMetallicRoughness" : {
        "baseColorFactor" : [ 0.9, 0.3, 0.9, 1.0 ],
        "metallicFactor" : 0.1,
        "roughnessFactor" : 0.5
      }
    },
    {
      "name" : "WOOD_84_Mat",
      "pbrMetallicRoughness" : {
        "baseColorFactor" : [ 0.3, 0.9, 0.9, 1.0 ],
        "metallicFactor" : 0.1,
        "roughnessFactor" : 0.5
      }
    },
    {
      "name" : "M_Metal_Chrome",
      "pbrMetallicRoughness" : {
        "baseColorFactor" : [ 1, 0.3, 0.3, 1.0 ],
        "metallicFactor" : 0.1,
        "roughnessFactor" : 0.5
      }
    },
    {
      "name" : "WOOD_84_Mat",
      "pbrMetallicRoughness" : {
        "baseColorFactor" : [ 0.6, 0.3, 0.3, 1.0 ],
        "metallicFactor" : 0.1,
        "roughnessFactor" : 0.5
      }
    },
    {
      "name" : "M_Metal_Chrome",
      "pbrMetallicRoughness" : {
        "baseColorFactor" : [ 1, 0.9, 0.3, 1.0 ],
        "metallicFactor" : 0.1,
        "roughnessFactor" : 0.5
      }
    },
    {
      "name" : "WOOD_84_Mat",
      "pbrMetallicRoughness" : {
        "baseColorFactor" : [ 1, 0.3, 0.9, 1.0 ],
        "metallicFactor" : 0.1,
        "roughnessFactor" : 0.5
      }
    },
    {
      "name" : "M_Metal_Chrome",
      "pbrMetallicRoughness" : {
        "baseColorFactor" : [ 0.6, 0.9, 0.9, 1.0 ],
        "metallicFactor" : 0.1,
        "roughnessFactor" : 0.5
      }
    }
  ],
  "meshes" : [
    {
      "primitives" : [
        {
          "attributes" : {
            "POSITION" : 1,
            "NORMAL" : 2,
            "TANGENT" : 3,
            "TEXCOORD_0" : 4
          },
          "indices" : 0,
          "material" : 0
        },
        {
          "attributes" : {
            "POSITION" : 6,
            "NORMAL" : 7,
            "TANGENT" : 8,
            "TEXCOORD_0" : 9
          },
          "indices" : 5,
          "material" : 1
        },
        {
          "attributes" : {
            "POSITION" : 11,
            "NORMAL" : 12,
            "TANGENT" : 13,
            "TEXCOORD_0" : 14
          },
          "indices" : 10,
          "material" : 2
        },
        {
          "attributes" : {
            "POSITION" : 16,
            "NORMAL" : 17,
            "TANGENT" : 18,
            "TEXCOORD_0" : 19
          },
          "indices" : 15,
          "material" : 3
        },
        {
          "attributes" : {
            "POSITION" : 21,
            "NORMAL" : 22,
            "TANGENT" : 23,
            "TEXCOORD_0" : 24
          },
          "indices" : 20,
          "material" : 4
        },
        {
          "attributes" : {
            "POSITION" : 26,
            "NORMAL" : 27,
            "TANGENT" : 28,
            "TEXCOORD_0" : 29
          },
          "indices" : 25,
          "material" : 5
        },
        {
          "attributes" : {
            "POSITION" : 31,
            "NORMAL" : 32,
            "TANGENT" : 33,
            "TEXCOORD_0" : 34
          },
          "indices" : 30,
          "material" : 6
        },
        {
          "attributes" : {
            "POSITION" : 36,
            "NORMAL" : 37,
            "TANGENT" : 38,
            "TEXCOORD_0" : 39
          },
          "indices" : 35,
          "material" : 7
        },
        {
          "attributes" : {
            "POSITION" : 41,
            "NORMAL" : 42,
            "TANGENT" : 43,
            "TEXCOORD_0" : 44
          },
          "indices" : 40,
          "material" : 8
        },
        {
          "attributes" : {
            "POSITION" : 46,
            "NORMAL" : 47,
            "TANGENT" : 48,
            "TEXCOORD_0" : 49
          },
          "indices" : 45,
          "material" : 9
        },
        {
          "attributes" : {
            "POSITION" : 51,
            "NORMAL" : 52,
            "TANGENT" : 53,
            "TEXCOORD_0" : 54
          },
          "indices" : 50,
          "material" : 10
        },
        {
          "attributes" : {
            "POSITION" : 56,
            "NORMAL" : 57,
            "TANGENT" : 58,
            "TEXCOORD_0" : 59
          },
          "indices" : 55,
          "material" : 11
        },
        {
          "attributes" : {
            "POSITION" : 61,
            "NORMAL" : 62,
            "TANGENT" : 63,
            "TEXCOORD_0" : 64
          },
          "indices" : 60,
          "material" : 12
        }
      ],
      "name" : "mirror"
    }
  ],
  "buffers" : [
    {
      "uri" : "mirror.bin",
      "byteLength" : 69000
    }
  ],
  "bufferViews" : [
    {
      "buffer" : 0,
      "byteOffset" : 0,
      "byteLength" : 24
    },
    {
      "buffer" : 0,
      "byteOffset" : 24,
      "byteLength" : 144
    },
    {
      "buffer" : 0,
      "byteOffset" : 168,
      "byteLength" : 144
    },
    {
      "buffer" : 0,
      "byteOffset" : 312,
      "byteLength" : 192
    },
    {
      "buffer" : 0,
      "byteOffset" : 504,
      "byteLength" : 96
    },
    {
      "buffer" : 0,
      "byteOffset" : 600,
      "byteLength" : 768
    },
    {
      "buffer" : 0,
      "byteOffset" : 1368,
      "byteLength" : 4608
    },
    {
      "buffer" : 0,
      "byteOffset" : 5976,
      "byteLength" : 4608
    },
    {
      "buffer" : 0,
      "byteOffset" : 10584,
      "byteLength" : 6144
    },
    {
      "buffer" : 0,
      "byteOffset" : 16728,
      "byteLength" : 3072
    },
    {
      "buffer" : 0,
      "byteOffset" : 19800,
      "byteLength" : 48
    },
    {
      "buffer" : 0,
      "byteOffset" : 19848,
      "byteLength" : 288
    },
    {
      "buffer" : 0,
      "byteOffset" : 20136,
      "byteLength" : 288
    },
    {
      "buffer" : 0,
      "byteOffset" : 20424,
      "byteLength" : 384
    },
    {
      "buffer" : 0,
      "byteOffset" : 20808,
      "byteLength" : 192
    },
    {
      "buffer" : 0,
      "byteOffset" : 21000,
      "byteLength" : 144
    },
    {
      "buffer" : 0,
      "byteOffset" : 21144,
      "byteLength" : 864
    },
    {
      "buffer" : 0,
      "byteOffset" : 22008,
      "byteLength" : 864
    },
    {
      "buffer" : 0,
      "byteOffset" : 22872,
      "byteLength" : 1152
    },
    {
      "buffer" : 0,
      "byteOffset" : 24024,
      "byteLength" : 576
    },
    {
      "buffer" : 0,
      "byteOffset" : 24600,
      "byteLength" : 24
    },
    {
      "buffer" : 0,
      "byteOffset" : 24624,
      "byteLength" : 144
    },
    {
      "buffer" : 0,
      "byteOffset" : 24768,
      "byteLength" : 144
    },
    {
      "buffer" : 0,
      "byteOffset" : 24912,
      "byteLength" : 192
    },
    {
      "buffer" : 0,
      "byteOffset" : 25104,
      "byteLength" : 96
    },
    {
      "buffer" : 0,
      "byteOffset" : 25200,
      "byteLength" : 216
    },
    {
      "buffer" : 0,
      "byteOffset" : 25416,
      "byteLength" : 1296
    },
    {
      "buffer" : 0,
      "byteOffset" : 26712,
      "byteLength" : 1296
    },
    {
      "buffer" : 0,
      "byteOffset" : 28008,
      "byteLength" : 1728
    },
    {
      "buffer" : 0,
      "byteOffset" : 29736,
      "byteLength" : 864
    },
    {
      "buffer" : 0,
      "byteOffset" : 30600,
      "byteLength" : 24
    },
    {
      "buffer" : 0,
      "byteOffset" : 30624,
      "byteLength" : 144
    },
    {
      "buffer" : 0,
      "byteOffset" : 30768,
      "byteLength" : 144
    },
    {
      "buffer" : 0,
      "byteOffset" : 30912,
      "byteLength" : 192
    },
    {
      "buffer" : 0,
      "byteOffset" : 31104,
      "byteLength" : 96
    },
    {
      "buffer" : 0,
      "byteOffset" : 31200,
      "byteLength" : 576
    },
    {
      "buffer" : 0,
      "byteOffset" : 31776,
      "byteLength" : 3456
    },
    {
      "buffer" : 0,
      "byteOffset" : 35232,
      "byteLength" : 3456
    },
    {
      "buffer" : 0,
      "byteOffset" : 38688,
      "byteLength" : 4608
    },
    {
      "buffer" : 0,
      "byteOffset" : 43296,
      "byteLength" : 2304
    },
    {
      "buffer" : 0,
      "byteOffset" : 45600,
      "byteLength" : 48
    },
    {
      "buffer" : 0,
      "byteOffset" : 45648,
      "byteLength" : 288
    },
    {
      "buffer" : 0,
      "byteOffset" : 45936,
      "byteLength" : 288
    },
    {
      "buffer" : 0,
      "byteOffset" : 46224,
      "byteLength" : 384
    },
    {
      "buffer" : 0,
      "byteOffset" : 46608,
      "byteLength" : 192
    },
    {
      "buffer" : 0,
      "byteOffset" : 46800,
      "byteLength" : 528
    },
    {
      "buffer" : 0,
      "byteOffset" : 47328,
      "byteLength" : 3168
    },
    {
      "buffer" : 0,
      "byteOffset" : 50496,
      "byteLength" : 3168
    },
    {
      "buffer" : 0,
      "byteOffset" : 53664,
      "byteLength" : 4224
    },
    {
      "buffer" : 0,
      "byteOffset" : 57888,
      "byteLength" : 2112
    },
    {
      "buffer" : 0,
      "byteOffset" : 60000,
      "byteLength" : 48
    },
    {
      "buffer" : 0,
      "byteOffset" : 60048,
      "byteLength" : 288
    },
    {
      "buffer" : 0,
      "byteOffset" : 60336,
      "byteLength" : 288
    },
    {
      "buffer" : 0,
      "byteOffset" : 60624,
      "byteLength" : 384
    },
    {
      "buffer" : 0,
      "byteOffset" : 61008,
      "byteLength" : 192
    },
    {
      "buffer" : 0,
      "byteOffset" : 61200,
      "byteLength" : 264
    },
    {
      "buffer" : 0,
      "byteOffset" : 61464,
      "byteLength" : 1584
    },
    {
      "buffer" : 0,
      "byteOffset" : 63048,
      "byteLength" : 1584
    },
    {
      "buffer" : 0,
      "byteOffset" : 64632,
      "byteLength" : 2112
    },
    {
      "buffer" : 0,
      "byteOffset" : 66744,
      "byteLength" : 1056
    },
    {
      "buffer" : 0,
      "byteOffset" : 67800,
      "byteLength" : 48
    },
    {
      "buffer" : 0,
      "byteOffset" : 67848,
      "byteLength" : 288
    },
    {
      "buffer" : 0,
      "byteOffset" : 68136,
      "byteLength" : 288
    },
    {
      "buffer" : 0,
      "byteOffset" : 68424,
      "byteLength" : 384
    },
    {
      "buffer" : 0,
      "byteOffset" : 68808,
      "byteLength" : 192
    }
  ],
  "accessors" : [
    {
      "bufferView" : 0,
      "componentType" : 5123,
      "count" : 12,
      "type" : "SCALAR"
    },
    {
      "bufferView" : 1,
      "min" : [ -0.363147, 0.196377, -0.00371431 ],
      "max" : [ 0.366849, 1.57407, 0.0670443 ],
      "componentType" : 5126,
      "count" : 12,
      "type" : "VEC3"
    },
    {
      "bufferView" : 2,
      "componentType" : 5126,
      "count" : 12,
      "type" : "VEC3"
    },
    {
      "bufferView" : 3,
      "componentType" : 5126,
      "count" : 12,
      "type" : "VEC4"
    },
    {
      "bufferView" : 4,
      "componentType" : 5126,
      "count" : 12,
      "type" : "VEC2"
    },
    {
      "bufferView" : 5,
      "componentType" : 5123,
      "count" : 384,
      "type" : "SCALAR"
    },
    {
      "bufferView" : 6,
      "min" : [ -0.569649, -0.0101254, -0.0472559 ],
      "max" : [ 0.573351, 1.78057, 0.0670444 ],
      "componentType" : 5126,
      "count" : 384,
      "type" : "VEC3"
    },
    {
      "bufferView" : 7,
      "componentType" : 5126,
      "count" : 384,
      "type" : "VEC3"
    },
    {
      "bufferView" : 8,
      "componentType" : 5126,
      "count" : 384,
      "type" : "VEC4"
    },
    {
      "bufferView" : 9,
      "componentType" : 5126,
      "count" : 384,
      "type" : "VEC2"
    },
    {
      "bufferView" : 10,
      "componentType" : 5123,
      "count" : 24,
      "type" : "SCALAR"
    },
    {
      "bufferView" : 11,
      "min" : [ -0.365383, 0.19414, -0.00142886 ],
      "max" : [ 0.369086, 1.57631, 0.0647589 ],
      "componentType" : 5126,
      "count" : 24,
      "type" : "VEC3"
    },
    {
      "bufferView" : 12,
      "componentType" : 5126,
      "count" : 24,
      "type" : "VEC3"
    },
    {
      "bufferView" : 13,
      "componentType" : 5126,
      "count" : 24,
      "type" : "VEC4"
    },
    {
      "bufferView" : 14,
      "componentType" : 5126,
      "count" : 24,
      "type" : "VEC2"
    },
    {
      "bufferView" : 15,
      "componentType" : 5123,
      "count" : 72,
      "type" : "SCALAR"
    },
    {
      "bufferView" : 16,
      "min" : [ -0.569649, -0.00851287, -0.0472559 ],
      "max" : [ 0.573351, 1.77896, 0.0670444 ],
      "componentType" : 5126,
      "count" : 72,
      "type" : "VEC3"
    },
    {
      "bufferView" : 17,
      "componentType" : 5126,
      "count" : 72,
      "type" : "VEC3"
    },
    {
      "bufferView" : 18,
      "componentType" : 5126,
      "count" : 72,
      "type" : "VEC4"
    },
    {
      "bufferView" : 19,
      "componentType" : 5126,
      "count" : 72,
      "type" : "VEC2"
    },
    {
      "bufferView" : 20,
      "componentType" : 5123,
      "count" : 12,
      "type" : "SCALAR"
    },
    {
      "bufferView" : 21,
      "min" : [ -0.363958, 0.195565, -0.00371431 ],
      "max" : [ 0.367661, 1.57488, -0.00142861 ],
      "componentType" : 5126,
      "count" : 12,
      "type" : "VEC3"
    },
    {
      "bufferView" : 22,
      "componentType" : 5126,
      "count" : 12,
      "type" : "VEC3"
    },
    {
      "bufferView" : 23,
      "componentType" : 5126,
      "count" : 12,
      "type" : "VEC4"
    },
    {
      "bufferView" : 24,
      "componentType" : 5126,
      "count" : 12,
      "type" : "VEC2"
    },
    {
      "bufferView" : 25,
      "componentType" : 5123,
      "count" : 108,
      "type" : "SCALAR"
    },
    {
      "bufferView" : 26,
      "min" : [ -0.568034, -0.0101254, -0.0472559 ],
      "max" : [ 0.571736, 1.78057, 0.0670444 ],
      "componentType" : 5126,
      "count" : 108,
      "type" : "VEC3"
    },
    {
      "bufferView" : 27,
      "componentType" : 5126,
      "count" : 108,
      "type" : "VEC3"
    },
    {
      "bufferView" : 28,
      "componentType" : 5126,
      "count" : 108,
      "type" : "VEC4"
    },
    {
      "bufferView" : 29,
      "componentType" : 5126,
      "count" : 108,
      "type" : "VEC2"
    },
    {
      "bufferView" : 30,
      "componentType" : 5123,
      "count" : 12,
      "type" : "SCALAR"
    },
    {
      "bufferView" : 31,
      "min" : [ -0.365383, 0.19414, 0.0647586 ],
      "max" : [ 0.369086, 1.57631, 0.0670443 ],
      "componentType" : 5126,
      "count" : 12,
      "type" : "VEC3"
    },
    {
      "bufferView" : 32,
      "componentType" : 5126,
      "count" : 12,
      "type" : "VEC3"
    },
    {
      "bufferView" : 33,
      "componentType" : 5126,
      "count" : 12,
      "type" : "VEC4"
    },
    {
      "bufferView" : 34,
      "componentType" : 5126,
      "count" : 12,
      "type" : "VEC2"
    },
    {
      "bufferView" : 35,
      "componentType" : 5123,
      "count" : 288,
      "type" : "SCALAR"
    },
    {
      "bufferView" : 36,
      "min" : [ -0.569649, -0.0101254, -0.0472559 ],
      "max" : [ 0.573351, 1.78057, 0.0670444 ],
      "componentType" : 5126,
      "count" : 288,
      "type" : "VEC3"
    },
    {
      "bufferView" : 37,
      "componentType" : 5126,
      "count" : 288,
      "type" : "VEC3"
    },
    {
      "bufferView" : 38,
      "componentType" : 5126,
      "count" : 288,
      "type" : "VEC4"
    },
    {
      "bufferView" : 39,
      "componentType" : 5126,
      "count" : 288,
      "type" : "VEC2"
    },
    {
      "bufferView" : 40,
      "componentType" : 5123,
      "count" : 24,
      "type" : "SCALAR"
    },
    {
      "bufferView" : 41,
      "min" : [ -0.363958, 0.195565, -0.00371431 ],
      "max" : [ 0.367661, 1.57488, -0.00142861 ],
      "componentType" : 5126,
      "count" : 24,
      "type" : "VEC3"
    },
    {
      "bufferView" : 42,
      "componentType" : 5126,
      "count" : 24,
      "type" : "VEC3"
    },
    {
      "bufferView" : 43,
      "componentType" : 5126,
      "count" : 24,
      "type" : "VEC4"
    },
    {
      "bufferView" : 44,
      "componentType" : 5126,
      "count" : 24,
      "type" : "VEC2"
    },
    {
      "bufferView" : 45,
      "componentType" : 5123,
      "count" : 264,
      "type" : "SCALAR"
    },
    {
      "bufferView" : 46,
      "min" : [ -0.568034, -0.0101254, -0.0472559 ],
      "max" : [ 0.571736, 1.78057, 0.0670444 ],
      "componentType" : 5126,
      "count" : 264,
      "type" : "VEC3"
    },
    {
      "bufferView" : 47,
      "componentType" : 5126,
      "count" : 264,
      "type" : "VEC3"
    },
    {
      "bufferView" : 48,
      "componentType" : 5126,
      "count" : 264,
      "type" : "VEC4"
    },
    {
      "bufferView" : 49,
      "componentType" : 5126,
      "count" : 264,
      "type" : "VEC2"
    },
    {
      "bufferView" : 50,
      "componentType" : 5123,
      "count" : 24,
      "type" : "SCALAR"
    },
    {
      "bufferView" : 51,
      "min" : [ -0.365383, 0.19414, 0.0647586 ],
      "max" : [ 0.369086, 1.57631, 0.0670443 ],
      "componentType" : 5126,
      "count" : 24,
      "type" : "VEC3"
    },
    {
      "bufferView" : 52,
      "componentType" : 5126,
      "count" : 24,
      "type" : "VEC3"
    },
    {
      "bufferView" : 53,
      "componentType" : 5126,
      "count" : 24,
      "type" : "VEC4"
    },
    {
      "bufferView" : 54,
      "componentType" : 5126,
      "count" : 24,
      "type" : "VEC2"
    },
    {
      "bufferView" : 55,
      "componentType" : 5123,
      "count" : 132,
      "type" : "SCALAR"
    },
    {
      "bufferView" : 56,
      "min" : [ -0.568028, -0.00851287, -0.00600034 ],
      "max" : [ 0.571731, 1.77896, 0.0670444 ],
      "componentType" : 5126,
      "count" : 132,
      "type" : "VEC3"
    },
    {
      "bufferView" : 57,
      "componentType" : 5126,
      "count" : 132,
      "type" : "VEC3"
    },
    {
      "bufferView" : 58,
      "componentType" : 5126,
      "count" : 132,
      "type" : "VEC4"
    },
    {
      "bufferView" : 59,
      "componentType" : 5126,
      "count" : 132,
      "type" : "VEC2"
    },
    {
      "bufferView" : 60,
      "componentType" : 5123,
      "count" : 24,
      "type" : "SCALAR"
    },
    {
      "bufferView" : 61,
      "min" : [ -0.365383, 0.19414, -0.00142886 ],
      "max" : [ 0.369086, 1.57631, 0.0647589 ],
      "componentType" : 5126,
      "count" : 24,
      "type" : "VEC3"
    },
    {
      "bufferView" : 62,
      "componentType" : 5126,
      "count" : 24,
      "type" : "VEC3"
    },
    {
      "bufferView" : 63,
      "componentType" : 5126,
      "count" : 24,
      "type" : "VEC4"
    },
    {
      "bufferView" : 64,
      "componentType" : 5126,
      "count" : 24,
      "type" : "VEC2"
    }
  ]
}
