{
  "asset" : {
    "generator" : "UE Viewer (umodel) build 1587",
    "version" : "2.0"
  },
  "scene" : 0,
  "scenes" : [
    {
      "nodes" : [ 0 ]
    }
  ],
  "nodes" : [
    {
      "name" : "sink",
      "mesh" : 0
    }
  ],
  "materials" : [
    {
      "name" : "M_Metal_Chrome",
      "pbrMetallicRoughness" : {
        "baseColorFactor" : [ 0.3, 0.3, 0.3, 1.0 ],
        "metallicFactor" : 0.1,
        "roughnessFactor" : 0.5
      }
    },
    {
      "name" : "M_Metal_Brushed_Nickel",
      "pbrMetallicRoughness" : {
        "baseColorFactor" : [ 0.9, 0.3, 0.3, 1.0 ],
        "metallicFactor" : 0.1,
        "roughnessFactor" : 0.5
      }
    },
    {
      "name" : "WOOD_98_Mat",
      "pbrMetallicRoughness" : {
        "baseColorFactor" : [ 0.3, 0.9, 0.3, 1.0 ],
        "metallicFactor" : 0.1,
        "roughnessFactor" : 0.5
      }
    },
    {
      "name" : "M_Wood_Pine",
      "pbrMetallicRoughness" : {
        "baseColorFactor" : [ 0.3, 0.3, 0.9, 1.0 ],
        "metallicFactor" : 0.1,
        "roughnessFactor" : 0.5
      }
    },
    {
      "name" : "WOOD_98_Mat",
      "pbrMetallicRoughness" : {
        "baseColorFactor" : [ 0.9, 0.9, 0.9, 1.0 ],
        "metallicFactor" : 0.1,
        "roughnessFactor" : 0.5
      }
    },
    {
      "name" : "M_Wood_Pine",
      "pbrMetallicRoughness" : {
        "baseColorFactor" : [ 0.9, 0.9, 0.3, 1.0 ],
        "metallicFactor" : 0.1,
        "roughnessFactor" : 0.5
      }
    },
    {
      "name" : "WOOD_98_Mat",
      "pbrMetallicRoughness" : {
        "baseColorFactor" : [ 0.9, 0.3, 0.9, 1.0 ],
        "metallicFactor" : 0.1,
        "roughnessFactor" : 0.5
      }
    },
    {
      "name" : "M_Wood_Pine",
      "pbrMetallicRoughness" : {
        "baseColorFactor" : [ 0.3, 0.9, 0.9, 1.0 ],
        "metallicFactor" : 0.1,
        "roughnessFactor" : 0.5
      }
    },
    {
      "name" : "WOOD_98_Mat",
      "pbrMetallicRoughness" : {
        "baseColorFactor" : [ 1, 0.3, 0.3, 1.0 ],
        "metallicFactor" : 0.1,
        "roughnessFactor" : 0.5
      }
    },
    {
      "name" : "M_Wood_Pine",
      "pbrMetallicRoughness" : {
        "baseColorFactor" : [ 0.6, 0.3, 0.3, 1.0 ],
        "metallicFactor" : 0.1,
        "roughnessFactor" : 0.5
      }
    }
  ],
  "meshes" : [
    {
      "primitives" : [
        {
          "attributes" : {
            "POSITION" : 1,
            "NORMAL" : 2,
            "TANGENT" : 3,
            "TEXCOORD_0" : 4
          },
          "indices" : 0,
          "material" : 0
        },
        {
          "attributes" : {
            "POSITION" : 6,
            "NORMAL" : 7,
            "TANGENT" : 8,
            "TEXCOORD_0" : 9
          },
          "indices" : 5,
          "material" : 1
        },
        {
          "attributes" : {
            "POSITION" : 11,
            "NORMAL" : 12,
            "TANGENT" : 13,
            "TEXCOORD_0" : 14
          },
          "indices" : 10,
          "material" : 2
        },
        {
          "attributes" : {
            "POSITION" : 16,
            "NORMAL" : 17,
            "TANGENT" : 18,
            "TEXCOORD_0" : 19
          },
          "indices" : 15,
          "material" : 3
        },
        {
          "attributes" : {
            "POSITION" : 21,
            "NORMAL" : 22,
            "TANGENT" : 23,
            "TEXCOORD_0" : 24
          },
          "indices" : 20,
          "material" : 4
        },
        {
          "attributes" : {
            "POSITION" : 26,
            "NORMAL" : 27,
            "TANGENT" : 28,
            "TEXCOORD_0" : 29
          },
          "indices" : 25,
          "material" : 5
        },
        {
          "attributes" : {
            "POSITION" : 31,
            "NORMAL" : 32,
            "TANGENT" : 33,
            "TEXCOORD_0" : 34
          },
          "indices" : 30,
          "material" : 6
        },
        {
          "attributes" : {
            "POSITION" : 36,
            "NORMAL" : 37,
            "TANGENT" : 38,
            "TEXCOORD_0" : 39
          },
          "indices" : 35,
          "material" : 7
        },
        {
          "attributes" : {
            "POSITION" : 41,
            "NORMAL" : 42,
            "TANGENT" : 43,
            "TEXCOORD_0" : 44
          },
          "indices" : 40,
          "material" : 8
        },
        {
          "attributes" : {
            "POSITION" : 46,
            "NORMAL" : 47,
            "TANGENT" : 48,
            "TEXCOORD_0" : 49
          },
          "indices" : 45,
          "material" : 9
        }
      ],
      "name" : "sink"
    }
  ],
  "buffers" : [
    {
      "uri" : "sink.bin",
      "byteLength" : 2073000
    }
  ],
  "bufferViews" : [
    {
      "buffer" : 0,
      "byteOffset" : 0,
      "byteLength" : 21792
    },
    {
      "buffer" : 0,
      "byteOffset" : 21792,
      "byteLength" : 130752
    },
    {
      "buffer" : 0,
      "byteOffset" : 152544,
      "byteLength" : 130752
    },
    {
      "buffer" : 0,
      "byteOffset" : 283296,
      "byteLength" : 174336
    },
    {
      "buffer" : 0,
      "byteOffset" : 457632,
      "byteLength" : 87168
    },
    {
      "buffer" : 0,
      "byteOffset" : 544800,
      "byteLength" : 24864
    },
    {
      "buffer" : 0,
      "byteOffset" : 569664,
      "byteLength" : 149184
    },
    {
      "buffer" : 0,
      "byteOffset" : 718848,
      "byteLength" : 149184
    },
    {
      "buffer" : 0,
      "byteOffset" : 868032,
      "byteLength" : 198912
    },
    {
      "buffer" : 0,
      "byteOffset" : 1066944,
      "byteLength" : 99456
    },
    {
      "buffer" : 0,
      "byteOffset" : 1166400,
      "byteLength" : 16656
    },
    {
      "buffer" : 0,
      "byteOffset" : 1183056,
      "byteLength" : 99936
    },
    {
      "buffer" : 0,
      "byteOffset" : 1282992,
      "byteLength" : 99936
    },
    {
      "buffer" : 0,
      "byteOffset" : 1382928,
      "byteLength" : 133248
    },
    {
      "buffer" : 0,
      "byteOffset" : 1516176,
      "byteLength" : 66624
    },
    {
      "buffer" : 0,
      "byteOffset" : 1582800,
      "byteLength" : 2424
    },
    {
      "buffer" : 0,
      "byteOffset" : 1585224,
      "byteLength" : 14544
    },
    {
      "buffer" : 0,
      "byteOffset" : 1599768,
      "byteLength" : 14544
    },
    {
      "buffer" : 0,
      "byteOffset" : 1614312,
      "byteLength" : 19392
    },
    {
      "buffer" : 0,
      "byteOffset" : 1633704,
      "byteLength" : 9696
    },
    {
      "buffer" : 0,
      "byteOffset" : 1643400,
      "byteLength" : 72
    },
    {
      "buffer" : 0,
      "byteOffset" : 1643472,
      "byteLength" : 432
    },
    {
      "buffer" : 0,
      "byteOffset" : 1643904,
      "byteLength" : 432
    },
    {
      "buffer" : 0,
      "byteOffset" : 1644336,
      "byteLength" : 576
    },
    {
      "buffer" : 0,
      "byteOffset" : 1644912,
      "byteLength" : 288
    },
    {
      "buffer" : 0,
      "byteOffset" : 1645200,
      "byteLength" : 3636
    },
    {
      "buffer" : 0,
      "byteOffset" : 1648836,
      "byteLength" : 21816
    },
    {
      "buffer" : 0,
      "byteOffset" : 1670652,
      "byteLength" : 21816
    },
    {
      "buffer" : 0,
      "byteOffset" : 1692468,
      "byteLength" : 29088
    },
    {
      "buffer" : 0,
      "byteOffset" : 1721556,
      "byteLength" : 14544
    },
    {
      "buffer" : 0,
      "byteOffset" : 1736100,
      "byteLength" : 72
    },
    {
      "buffer" : 0,
      "byteOffset" : 1736172,
      "byteLength" : 432
    },
    {
      "buffer" : 0,
      "byteOffset" : 1736604,
      "byteLength" : 432
    },
    {
      "buffer" : 0,
      "byteOffset" : 1737036,
      "byteLength" : 576
    },
    {
      "buffer" : 0,
      "byteOffset" : 1737612,
      "byteLength" : 288
    },
    {
      "buffer" : 0,
      "byteOffset" : 1737900,
      "byteLength" : 4848
    },
    {
      "buffer" : 0,
      "byteOffset" : 1742748,
      "byteLength" : 29088
    },
    {
      "buffer" : 0,
      "byteOffset" : 1771836,
      "byteLength" : 29088
    },
    {
      "buffer" : 0,
      "byteOffset" : 1800924,
      "byteLength" : 38784
    },
    {
      "buffer" : 0,
      "byteOffset" : 1839708,
      "byteLength" : 19392
    },
    {
      "buffer" : 0,
      "byteOffset" : 1859100,
      "byteLength" : 72
    },
    {
      "buffer" : 0,
      "byteOffset" : 1859172,
      "byteLength" : 432
    },
    {
      "buffer" : 0,
      "byteOffset" : 1859604,
      "byteLength" : 432
    },
    {
      "buffer" : 0,
      "byteOffset" : 1860036,
      "byteLength" : 576
    },
    {
      "buffer" : 0,
      "byteOffset" : 1860612,
      "byteLength" : 288
    },
    {
      "buffer" : 0,
      "byteOffset" : 1860900,
      "byteLength" : 8484
    },
    {
      "buffer" : 0,
      "byteOffset" : 1869384,
      "byteLength" : 50904
    },
    {
      "buffer" : 0,
      "byteOffset" : 1920288,
      "byteLength" : 50904
    },
    {
      "buffer" : 0,
      "byteOffset" : 1971192,
      "byteLength" : 67872
    },
    {
      "buffer" : 0,
      "byteOffset" : 2039064,
      "byteLength" : 33936
    }
  ],
  "accessors" : [
    {
      "bufferView" : 0,
      "componentType" : 5123,
      "count" : 10896,
      "type" : "SCALAR"
    },
    {
      "bufferView" : 1,
      "min" : [ -0.446711, 1.25072, -0.653456 ],
      "max" : [ 0.387705, 1.44211, 0.573459 ],
      "componentType" : 5126,
      "count" : 10896,
      "type" : "VEC3"
    },
    {
      "bufferView" : 2,
      "componentType" : 5126,
      "count" : 10896,
      "type" : "VEC3"
    },
    {
      "bufferView" : 3,
      "componentType" : 5126,
      "count" : 10896,
      "type" : "VEC4"
    },
    {
      "bufferView" : 4,
      "componentType" : 5126,
      "count" : 10896,
      "type" : "VEC2"
    },
    {
      "bufferView" : 5,
      "componentType" : 5123,
      "count" : 12432,
      "type" : "SCALAR"
    },
    {
      "bufferView" : 6,
      "min" : [ -0.444508, -0.00222949, -0.0852076 ],
      "max" : [ -0.103757, 1.54821, 0.562123 ],
      "componentType" : 5126,
      "count" : 12432,
      "type" : "VEC3"
    },
    {
      "bufferView" : 7,
      "componentType" : 5126,
      "count" : 12432,
      "type" : "VEC3"
    },
    {
      "bufferView" : 8,
      "componentType" : 5126,
      "count" : 12432,
      "type" : "VEC4"
    },
    {
      "bufferView" : 9,
      "componentType" : 5126,
      "count" : 12432,
      "type" : "VEC2"
    },
    {
      "bufferView" : 10,
      "componentType" : 5123,
      "count" : 8328,
      "type" : "SCALAR"
    },
    {
      "bufferView" : 11,
      "min" : [ -0.444508, -0.00222949, -0.637033 ],
      "max" : [ 0.378881, 1.33245, 0.562123 ],
      "componentType" : 5126,
      "count" : 8328,
      "type" : "VEC3"
    },
    {
      "bufferView" : 12,
      "componentType" : 5126,
      "count" : 8328,
      "type" : "VEC3"
    },
    {
      "bufferView" : 13,
      "componentType" : 5126,
      "count" : 8328,
      "type" : "VEC4"
    },
    {
      "bufferView" : 14,
      "componentType" : 5126,
      "count" : 8328,
      "type" : "VEC2"
    },
    {
      "bufferView" : 15,
      "componentType" : 5123,
      "count" : 1212,
      "type" : "SCALAR"
    },
    {
      "bufferView" : 16,
      "min" : [ -0.326712, 0.076316, -0.611858 ],
      "max" : [ 0.259797, 1.33174, -0.586432 ],
      "componentType" : 5126,
      "count" : 1212,
      "type" : "VEC3"
    },
    {
      "bufferView" : 17,
      "componentType" : 5126,
      "count" : 1212,
      "type" : "VEC3"
    },
    {
      "bufferView" : 18,
      "componentType" : 5126,
      "count" : 1212,
      "type" : "VEC4"
    },
    {
      "bufferView" : 19,
      "componentType" : 5126,
      "count" : 1212,
      "type" : "VEC2"
    },
    {
      "bufferView" : 20,
      "componentType" : 5123,
      "count" : 36,
      "type" : "SCALAR"
    },
    {
      "bufferView" : 21,
      "min" : [ -0.367168, 0.0762094, -0.590459 ],
      "max" : [ 0.340907, 1.24162, -0.581358 ],
      "componentType" : 5126,
      "count" : 36,
      "type" : "VEC3"
    },
    {
      "bufferView" : 22,
      "componentType" : 5126,
      "count" : 36,
      "type" : "VEC3"
    },
    {
      "bufferView" : 23,
      "componentType" : 5126,
      "count" : 36,
      "type" : "VEC4"
    },
    {
      "bufferView" : 24,
      "componentType" : 5126,
      "count" : 36,
      "type" : "VEC2"
    },
    {
      "bufferView" : 25,
      "componentType" : 5123,
      "count" : 1818,
      "type" : "SCALAR"
    },
    {
      "bufferView" : 26,
      "min" : [ -0.221983, 0.0764689, -0.611858 ],
      "max" : [ 0.153613, 1.32948, 0.541037 ],
      "componentType" : 5126,
      "count" : 1818,
      "type" : "VEC3"
    },
    {
      "bufferView" : 27,
      "componentType" : 5126,
      "count" : 1818,
      "type" : "VEC3"
    },
    {
      "bufferView" : 28,
      "componentType" : 5126,
      "count" : 1818,
      "type" : "VEC4"
    },
    {
      "bufferView" : 29,
      "componentType" : 5126,
      "count" : 1818,
      "type" : "VEC2"
    },
    {
      "bufferView" : 30,
      "componentType" : 5123,
      "count" : 36,
      "type" : "SCALAR"
    },
    {
      "bufferView" : 31,
      "min" : [ -0.367168, 0.0762097, 0.510538 ],
      "max" : [ 0.340905, 1.24162, 0.519639 ],
      "componentType" : 5126,
      "count" : 36,
      "type" : "VEC3"
    },
    {
      "bufferView" : 32,
      "componentType" : 5126,
      "count" : 36,
      "type" : "VEC3"
    },
    {
      "bufferView" : 33,
      "componentType" : 5126,
      "count" : 36,
      "type" : "VEC4"
    },
    {
      "bufferView" : 34,
      "componentType" : 5126,
      "count" : 36,
      "type" : "VEC2"
    },
    {
      "bufferView" : 35,
      "componentType" : 5123,
      "count" : 2424,
      "type" : "SCALAR"
    },
    {
      "bufferView" : 36,
      "min" : [ -0.326712, 0.076316, -0.519109 ],
      "max" : [ 0.36775, 1.33174, 0.541037 ],
      "componentType" : 5126,
      "count" : 2424,
      "type" : "VEC3"
    },
    {
      "bufferView" : 37,
      "componentType" : 5126,
      "count" : 2424,
      "type" : "VEC3"
    },
    {
      "bufferView" : 38,
      "componentType" : 5126,
      "count" : 2424,
      "type" : "VEC4"
    },
    {
      "bufferView" : 39,
      "componentType" : 5126,
      "count" : 2424,
      "type" : "VEC2"
    },
    {
      "bufferView" : 40,
      "componentType" : 5123,
      "count" : 36,
      "type" : "SCALAR"
    },
    {
      "bufferView" : 41,
      "min" : [ 0.337249, 0.07621, -0.600219 ],
      "max" : [ 0.346351, 1.04198, 0.521576 ],
      "componentType" : 5126,
      "count" : 36,
      "type" : "VEC3"
    },
    {
      "bufferView" : 42,
      "componentType" : 5126,
      "count" : 36,
      "type" : "VEC3"
    },
    {
      "bufferView" : 43,
      "componentType" : 5126,
      "count" : 36,
      "type" : "VEC4"
    },
    {
      "bufferView" : 44,
      "componentType" : 5126,
      "count" : 36,
      "type" : "VEC2"
    },
    {
      "bufferView" : 45,
      "componentType" : 5123,
      "count" : 4242,
      "type" : "SCALAR"
    },
    {
      "bufferView" : 46,
      "min" : [ -0.221983, 0.0763162, -0.611858 ],
      "max" : [ 0.36775, 1.13481, 0.442587 ],
      "componentType" : 5126,
      "count" : 4242,
      "type" : "VEC3"
    },
    {
      "bufferView" : 47,
      "componentType" : 5126,
      "count" : 4242,
      "type" : "VEC3"
    },
    {
      "bufferView" : 48,
      "componentType" : 5126,
      "count" : 4242,
      "type" : "VEC4"
    },
    {
      "bufferView" : 49,
      "componentType" : 5126,
      "count" : 4242,
      "type" : "VEC2"
    }
  ]
}
