{
  "asset" : {
    "generator" : "UE Viewer (umodel) build 1587",
    "version" : "2.0"
  },
  "scene" : 0,
  "scenes" : [
    {
      "nodes" : [ 0 ]
    }
  ],
  "nodes" : [
    {
      "name" : "toiletmesh",
      "mesh" : 0
    }
  ],
  "materials" : [
    {
      "name" : "01_-_Default",
      "pbrMetallicRoughness" : {
        "baseColorFactor" : [ 0.3, 0.3, 0.3, 1.0 ],
        "metallicFactor" : 0.1,
        "roughnessFactor" : 0.5
      }
    },
    {
      "name" : "M_Metal_Gold",
      "pbrMetallicRoughness" : {
        "baseColorFactor" : [ 0.9, 0.3, 0.3, 1.0 ],
        "metallicFactor" : 0.1,
        "roughnessFactor" : 0.5
      }
    },
    {
      "name" : "01_-_Default",
      "pbrMetallicRoughness" : {
        "baseColorFactor" : [ 0.3, 0.9, 0.3, 1.0 ],
        "metallicFactor" : 0.1,
        "roughnessFactor" : 0.5
      }
    },
    {
      "name" : "M_Metal_Gold",
      "pbrMetallicRoughness" : {
        "baseColorFactor" : [ 0.3, 0.3, 0.9, 1.0 ],
        "metallicFactor" : 0.1,
        "roughnessFactor" : 0.5
      }
    },
    {
      "name" : "01_-_Default",
      "pbrMetallicRoughness" : {
        "baseColorFactor" : [ 0.9, 0.9, 0.9, 1.0 ],
        "metallicFactor" : 0.1,
        "roughnessFactor" : 0.5
      }
    },
    {
      "name" : "04_-_Default",
      "pbrMetallicRoughness" : {
        "baseColorFactor" : [ 0.9, 0.9, 0.3, 1.0 ],
        "metallicFactor" : 0.1,
        "roughnessFactor" : 0.5
      }
    },
    {
      "name" : "01_-_Default",
      "pbrMetallicRoughness" : {
        "baseColorFactor" : [ 0.9, 0.3, 0.9, 1.0 ],
        "metallicFactor" : 0.1,
        "roughnessFactor" : 0.5
      }
    }
  ],
  "meshes" : [
    {
      "primitives" : [
        {
          "attributes" : {
            "POSITION" : 1,
            "NORMAL" : 2,
            "TANGENT" : 3,
            "TEXCOORD_0" : 4
          },
          "indices" : 0,
          "material" : 0
        },
        {
          "attributes" : {
            "POSITION" : 6,
            "NORMAL" : 7,
            "TANGENT" : 8,
            "TEXCOORD_0" : 9
          },
          "indices" : 5,
          "material" : 1
        },
        {
          "attributes" : {
            "POSITION" : 11,
            "NORMAL" : 12,
            "TANGENT" : 13,
            "TEXCOORD_0" : 14
          },
          "indices" : 10,
          "material" : 2
        },
        {
          "attributes" : {
            "POSITION" : 16,
            "NORMAL" : 17,
            "TANGENT" : 18,
            "TEXCOORD_0" : 19
          },
          "indices" : 15,
          "material" : 3
        },
        {
          "attributes" : {
            "POSITION" : 21,
            "NORMAL" : 22,
            "TANGENT" : 23,
            "TEXCOORD_0" : 24
          },
          "indices" : 20,
          "material" : 4
        },
        {
          "attributes" : {
            "POSITION" : 26,
            "NORMAL" : 27,
            "TANGENT" : 28,
            "TEXCOORD_0" : 29
          },
          "indices" : 25,
          "material" : 5
        },
        {
          "attributes" : {
            "POSITION" : 31,
            "NORMAL" : 32,
            "TANGENT" : 33,
            "TEXCOORD_0" : 34
          },
          "indices" : 30,
          "material" : 6
        }
      ],
      "name" : "toiletmesh"
    }
  ],
  "buffers" : [
    {
      "uri" : "toiletmesh.bin",
      "byteLength" : 6567264
    }
  ],
  "bufferViews" : [
    {
      "buffer" : 0,
      "byteOffset" : 0,
      "byteLength" : 38376
    },
    {
      "buffer" : 0,
      "byteOffset" : 38376,
      "byteLength" : 230256
    },
    {
      "buffer" : 0,
      "byteOffset" : 268632,
      "byteLength" : 230256
    },
    {
      "buffer" : 0,
      "byteOffset" : 498888,
      "byteLength" : 307008
    },
    {
      "buffer" : 0,
      "byteOffset" : 805896,
      "byteLength" : 153504
    },
    {
      "buffer" : 0,
      "byteOffset" : 959400,
      "byteLength" : 294528
    },
    {
      "buffer" : 0,
      "byteOffset" : 1253928,
      "byteLength" : 883584
    },
    {
      "buffer" : 0,
      "byteOffset" : 2137512,
      "byteLength" : 883584
    },
    {
      "buffer" : 0,
      "byteOffset" : 3021096,
      "byteLength" : 1178112
    },
    {
      "buffer" : 0,
      "byteOffset" : 4199208,
      "byteLength" : 589056
    },
    {
      "buffer" : 0,
      "byteOffset" : 4788264,
      "byteLength" : 1248
    },
    {
      "buffer" : 0,
      "byteOffset" : 4789512,
      "byteLength" : 7488
    },
    {
      "buffer" : 0,
      "byteOffset" : 4797000,
      "byteLength" : 7488
    },
    {
      "buffer" : 0,
      "byteOffset" : 4804488,
      "byteLength" : 9984
    },
    {
      "buffer" : 0,
      "byteOffset" : 4814472,
      "byteLength" : 4992
    },
    {
      "buffer" : 0,
      "byteOffset" : 4819464,
      "byteLength" : 29472
    },
    {
      "buffer" : 0,
      "byteOffset" : 4848936,
      "byteLength" : 176832
    },
    {
      "buffer" : 0,
      "byteOffset" : 5025768,
      "byteLength" : 176832
    },
    {
      "buffer" : 0,
      "byteOffset" : 5202600,
      "byteLength" : 235776
    },
    {
      "buffer" : 0,
      "byteOffset" : 5438376,
      "byteLength" : 117888
    },
    {
      "buffer" : 0,
      "byteOffset" : 5556264,
      "byteLength" : 16200
    },
    {
      "buffer" : 0,
      "byteOffset" : 5572464,
      "byteLength" : 97200
    },
    {
      "buffer" : 0,
      "byteOffset" : 5669664,
      "byteLength" : 97200
    },
    {
      "buffer" : 0,
      "byteOffset" : 5766864,
      "byteLength" : 129600
    },
    {
      "buffer" : 0,
      "byteOffset" : 5896464,
      "byteLength" : 64800
    },
    {
      "buffer" : 0,
      "byteOffset" : 5961264,
      "byteLength" : 18624
    },
    {
      "buffer" : 0,
      "byteOffset" : 5979888,
      "byteLength" : 111744
    },
    {
      "buffer" : 0,
      "byteOffset" : 6091632,
      "byteLength" : 111744
    },
    {
      "buffer" : 0,
      "byteOffset" : 6203376,
      "byteLength" : 148992
    },
    {
      "buffer" : 0,
      "byteOffset" : 6352368,
      "byteLength" : 74496
    },
    {
      "buffer" : 0,
      "byteOffset" : 6426864,
      "byteLength" : 5616
    },
    {
      "buffer" : 0,
      "byteOffset" : 6432480,
      "byteLength" : 33696
    },
    {
      "buffer" : 0,
      "byteOffset" : 6466176,
      "byteLength" : 33696
    },
    {
      "buffer" : 0,
      "byteOffset" : 6499872,
      "byteLength" : 44928
    },
    {
      "buffer" : 0,
      "byteOffset" : 6544800,
      "byteLength" : 22464
    }
  ],
  "accessors" : [
    {
      "bufferView" : 0,
      "componentType" : 5123,
      "count" : 19188,
      "type" : "SCALAR"
    },
    {
      "bufferView" : 1,
      "min" : [ -0.338277, -0.00499911, -0.633666 ],
      "max" : [ 0.331916, 0.786463, 0.651823 ],
      "componentType" : 5126,
      "count" : 19188,
      "type" : "VEC3"
    },
    {
      "bufferView" : 2,
      "componentType" : 5126,
      "count" : 19188,
      "type" : "VEC3"
    },
    {
      "bufferView" : 3,
      "componentType" : 5126,
      "count" : 19188,
      "type" : "VEC4"
    },
    {
      "bufferView" : 4,
      "componentType" : 5126,
      "count" : 19188,
      "type" : "VEC2"
    },
    {
      "bufferView" : 5,
      "componentType" : 5125,
      "count" : 73632,
      "type" : "SCALAR"
    },
    {
      "bufferView" : 6,
      "min" : [ -0.224226, 0.0464398, -0.238137 ],
      "max" : [ 0.219904, 0.809577, -0.058043 ],
      "componentType" : 5126,
      "count" : 73632,
      "type" : "VEC3"
    },
    {
      "bufferView" : 7,
      "componentType" : 5126,
      "count" : 73632,
      "type" : "VEC3"
    },
    {
      "bufferView" : 8,
      "componentType" : 5126,
      "count" : 73632,
      "type" : "VEC4"
    },
    {
      "bufferView" : 9,
      "componentType" : 5126,
      "count" : 73632,
      "type" : "VEC2"
    },
    {
      "bufferView" : 10,
      "componentType" : 5123,
      "count" : 624,
      "type" : "SCALAR"
    },
    {
      "bufferView" : 11,
      "min" : [ -0.336748, 0.681211, -0.633651 ],
      "max" : [ 0.332083, 0.785345, 0.651823 ],
      "componentType" : 5126,
      "count" : 624,
      "type" : "VEC3"
    },
    {
      "bufferView" : 12,
      "componentType" : 5126,
      "count" : 624,
      "type" : "VEC3"
    },
    {
      "bufferView" : 13,
      "componentType" : 5126,
      "count" : 624,
      "type" : "VEC4"
    },
    {
      "bufferView" : 14,
      "componentType" : 5126,
      "count" : 624,
      "type" : "VEC2"
    },
    {
      "bufferView" : 15,
      "componentType" : 5123,
      "count" : 14736,
      "type" : "SCALAR"
    },
    {
      "bufferView" : 16,
      "min" : [ -0.214972, 0.0464024, -0.54623 ],
      "max" : [ 0.356483, 1.56922, -0.0580043 ],
      "componentType" : 5126,
      "count" : 14736,
      "type" : "VEC3"
    },
    {
      "bufferView" : 17,
      "componentType" : 5126,
      "count" : 14736,
      "type" : "VEC3"
    },
    {
      "bufferView" : 18,
      "componentType" : 5126,
      "count" : 14736,
      "type" : "VEC4"
    },
    {
      "bufferView" : 19,
      "componentType" : 5126,
      "count" : 14736,
      "type" : "VEC2"
    },
    {
      "bufferView" : 20,
      "componentType" : 5123,
      "count" : 8100,
      "type" : "SCALAR"
    },
    {
      "bufferView" : 21,
      "min" : [ -0.338314, 0.783729, -0.232334 ],
      "max" : [ 0.331495, 0.865514, 0.653852 ],
      "componentType" : 5126,
      "count" : 8100,
      "type" : "VEC3"
    },
    {
      "bufferView" : 22,
      "componentType" : 5126,
      "count" : 8100,
      "type" : "VEC3"
    },
    {
      "bufferView" : 23,
      "componentType" : 5126,
      "count" : 8100,
      "type" : "VEC4"
    },
    {
      "bufferView" : 24,
      "componentType" : 5126,
      "count" : 8100,
      "type" : "VEC2"
    },
    {
      "bufferView" : 25,
      "componentType" : 5123,
      "count" : 9312,
      "type" : "SCALAR"
    },
    {
      "bufferView" : 26,
      "min" : [ -0.330622, 0.781493, -0.232278 ],
      "max" : [ 0.324271, 0.825408, 0.643283 ],
      "componentType" : 5126,
      "count" : 9312,
      "type" : "VEC3"
    },
    {
      "bufferView" : 27,
      "componentType" : 5126,
      "count" : 9312,
      "type" : "VEC3"
    },
    {
      "bufferView" : 28,
      "componentType" : 5126,
      "count" : 9312,
      "type" : "VEC4"
    },
    {
      "bufferView" : 29,
      "componentType" : 5126,
      "count" : 9312,
      "type" : "VEC2"
    },
    {
      "bufferView" : 30,
      "componentType" : 5123,
      "count" : 2808,
      "type" : "SCALAR"
    },
    {
      "bufferView" : 31,
      "min" : [ -0.367121, 0.780713, -0.632452 ],
      "max" : [ 0.351405, 1.5536, -0.337179 ],
      "componentType" : 5126,
      "count" : 2808,
      "type" : "VEC3"
    },
    {
      "bufferView" : 32,
      "componentType" : 5126,
      "count" : 2808,
      "type" : "VEC3"
    },
    {
      "bufferView" : 33,
      "componentType" : 5126,
      "count" : 2808,
      "type" : "VEC4"
    },
    {
      "bufferView" : 34,
      "componentType" : 5126,
      "count" : 2808,
      "type" : "VEC2"
    }
  ]
}
