{
  "asset" : {
    "generator" : "UE Viewer (umodel) build 1587",
    "version" : "2.0"
  },
  "scene" : 0,
  "scenes" : [
    {
      "nodes" : [ 0 ]
    }
  ],
  "nodes" : [
    {
      "name" : "elevatorDoors",
      "mesh" : 0
    }
  ],
  "materials" : [
    {
      "name" : "09_-_Default",
      "pbrMetallicRoughness" : {
        "baseColorFactor" : [ 0.3, 0.3, 0.3, 1.0 ],
        "metallicFactor" : 0.1,
        "roughnessFactor" : 0.5
      }
    },
    {
      "name" : "08_-_Default",
      "pbrMetallicRoughness" : {
        "baseColorFactor" : [ 0.9, 0.3, 0.3, 1.0 ],
        "metallicFactor" : 0.1,
        "roughnessFactor" : 0.5
      }
    },
    {
      "name" : "09_-_Default",
      "pbrMetallicRoughness" : {
        "baseColorFactor" : [ 0.3, 0.9, 0.3, 1.0 ],
        "metallicFactor" : 0.1,
        "roughnessFactor" : 0.5
      }
    },
    {
      "name" : "08_-_Default",
      "pbrMetallicRoughness" : {
        "baseColorFactor" : [ 0.3, 0.3, 0.9, 1.0 ],
        "metallicFactor" : 0.1,
        "roughnessFactor" : 0.5
      }
    },
    {
      "name" : "08_-_Default",
      "pbrMetallicRoughness" : {
        "baseColorFactor" : [ 0.9, 0.9, 0.9, 1.0 ],
        "metallicFactor" : 0.1,
        "roughnessFactor" : 0.5
      }
    },
    {
      "name" : "08_-_Default",
      "pbrMetallicRoughness" : {
        "baseColorFactor" : [ 0.9, 0.9, 0.3, 1.0 ],
        "metallicFactor" : 0.1,
        "roughnessFactor" : 0.5
      }
    },
    {
      "name" : "08_-_Default",
      "pbrMetallicRoughness" : {
        "baseColorFactor" : [ 0.9, 0.3, 0.9, 1.0 ],
        "metallicFactor" : 0.1,
        "roughnessFactor" : 0.5
      }
    },
    {
      "name" : "08_-_Default",
      "pbrMetallicRoughness" : {
        "baseColorFactor" : [ 0.3, 0.9, 0.9, 1.0 ],
        "metallicFactor" : 0.1,
        "roughnessFactor" : 0.5
      }
    },
    {
      "name" : "08_-_Default",
      "pbrMetallicRoughness" : {
        "baseColorFactor" : [ 1, 0.3, 0.3, 1.0 ],
        "metallicFactor" : 0.1,
        "roughnessFactor" : 0.5
      }
    },
    {
      "name" : "08_-_Default",
      "pbrMetallicRoughness" : {
        "baseColorFactor" : [ 0.6, 0.3, 0.3, 1.0 ],
        "metallicFactor" : 0.1,
        "roughnessFactor" : 0.5
      }
    },
    {
      "name" : "08_-_Default",
      "pbrMetallicRoughness" : {
        "baseColorFactor" : [ 1, 0.9, 0.3, 1.0 ],
        "metallicFactor" : 0.1,
        "roughnessFactor" : 0.5
      }
    },
    {
      "name" : "08_-_Default",
      "pbrMetallicRoughness" : {
        "baseColorFactor" : [ 1, 0.3, 0.9, 1.0 ],
        "metallicFactor" : 0.1,
        "roughnessFactor" : 0.5
      }
    },
    {
      "name" : "08_-_Default",
      "pbrMetallicRoughness" : {
        "baseColorFactor" : [ 0.6, 0.9, 0.9, 1.0 ],
        "metallicFactor" : 0.1,
        "roughnessFactor" : 0.5
      }
    },
    {
      "name" : "08_-_Default",
      "pbrMetallicRoughness" : {
        "baseColorFactor" : [ 0.6, 0.9, 0.3, 1.0 ],
        "metallicFactor" : 0.1,
        "roughnessFactor" : 0.5
      }
    }
  ],
  "meshes" : [
    {
      "primitives" : [
        {
          "attributes" : {
            "POSITION" : 1,
            "NORMAL" : 2,
            "TANGENT" : 3,
            "TEXCOORD_0" : 4
          },
          "indices" : 0,
          "material" : 0
        },
        {
          "attributes" : {
            "POSITION" : 6,
            "NORMAL" : 7,
            "TANGENT" : 8,
            "TEXCOORD_0" : 9
          },
          "indices" : 5,
          "material" : 1
        },
        {
          "attributes" : {
            "POSITION" : 11,
            "NORMAL" : 12,
            "TANGENT" : 13,
            "TEXCOORD_0" : 14
          },
          "indices" : 10,
          "material" : 2
        },
        {
          "attributes" : {
            "POSITION" : 16,
            "NORMAL" : 17,
            "TANGENT" : 18,
            "TEXCOORD_0" : 19
          },
          "indices" : 15,
          "material" : 3
        },
        {
          "attributes" : {
            "POSITION" : 21,
            "NORMAL" : 22,
            "TANGENT" : 23,
            "TEXCOORD_0" : 24
          },
          "indices" : 20,
          "material" : 4
        },
        {
          "attributes" : {
            "POSITION" : 26,
            "NORMAL" : 27,
            "TANGENT" : 28,
            "TEXCOORD_0" : 29
          },
          "indices" : 25,
          "material" : 5
        },
        {
          "attributes" : {
            "POSITION" : 31,
            "NORMAL" : 32,
            "TANGENT" : 33,
            "TEXCOORD_0" : 34
          },
          "indices" : 30,
          "material" : 6
        },
        {
          "attributes" : {
            "POSITION" : 36,
            "NORMAL" : 37,
            "TANGENT" : 38,
            "TEXCOORD_0" : 39
          },
          "indices" : 35,
          "material" : 7
        },
        {
          "attributes" : {
            "POSITION" : 41,
            "NORMAL" : 42,
            "TANGENT" : 43,
            "TEXCOORD_0" : 44
          },
          "indices" : 40,
          "material" : 8
        },
        {
          "attributes" : {
            "POSITION" : 46,
            "NORMAL" : 47,
            "TANGENT" : 48,
            "TEXCOORD_0" : 49
          },
          "indices" : 45,
          "material" : 9
        },
        {
          "attributes" : {
            "POSITION" : 51,
            "NORMAL" : 52,
            "TANGENT" : 53,
            "TEXCOORD_0" : 54
          },
          "indices" : 50,
          "material" : 10
        },
        {
          "attributes" : {
            "POSITION" : 56,
            "NORMAL" : 57,
            "TANGENT" : 58,
            "TEXCOORD_0" : 59
          },
          "indices" : 55,
          "material" : 11
        },
        {
          "attributes" : {
            "POSITION" : 61,
            "NORMAL" : 62,
            "TANGENT" : 63,
            "TEXCOORD_0" : 64
          },
          "indices" : 60,
          "material" : 12
        },
        {
          "attributes" : {
            "POSITION" : 66,
            "NORMAL" : 67,
            "TANGENT" : 68,
            "TEXCOORD_0" : 69
          },
          "indices" : 65,
          "material" : 13
        }
      ],
      "name" : "elevatorDoors"
    }
  ],
  "buffers" : [
    {
      "uri" : "elevatorDoors.bin",
      "byteLength" : 137400
    }
  ],
  "bufferViews" : [
    {
      "buffer" : 0,
      "byteOffset" : 0,
      "byteLength" : 600
    },
    {
      "buffer" : 0,
      "byteOffset" : 600,
      "byteLength" : 3600
    },
    {
      "buffer" : 0,
      "byteOffset" : 4200,
      "byteLength" : 3600
    },
    {
      "buffer" : 0,
      "byteOffset" : 7800,
      "byteLength" : 4800
    },
    {
      "buffer" : 0,
      "byteOffset" : 12600,
      "byteLength" : 2400
    },
    {
      "buffer" : 0,
      "byteOffset" : 15000,
      "byteLength" : 72
    },
    {
      "buffer" : 0,
      "byteOffset" : 15072,
      "byteLength" : 432
    },
    {
      "buffer" : 0,
      "byteOffset" : 15504,
      "byteLength" : 432
    },
    {
      "buffer" : 0,
      "byteOffset" : 15936,
      "byteLength" : 576
    },
    {
      "buffer" : 0,
      "byteOffset" : 16512,
      "byteLength" : 288
    },
    {
      "buffer" : 0,
      "byteOffset" : 16800,
      "byteLength" : 600
    },
    {
      "buffer" : 0,
      "byteOffset" : 17400,
      "byteLength" : 3600
    },
    {
      "buffer" : 0,
      "byteOffset" : 21000,
      "byteLength" : 3600
    },
    {
      "buffer" : 0,
      "byteOffset" : 24600,
      "byteLength" : 4800
    },
    {
      "buffer" : 0,
      "byteOffset" : 29400,
      "byteLength" : 2400
    },
    {
      "buffer" : 0,
      "byteOffset" : 31800,
      "byteLength" : 528
    },
    {
      "buffer" : 0,
      "byteOffset" : 32328,
      "byteLength" : 3168
    },
    {
      "buffer" : 0,
      "byteOffset" : 35496,
      "byteLength" : 3168
    },
    {
      "buffer" : 0,
      "byteOffset" : 38664,
      "byteLength" : 4224
    },
    {
      "buffer" : 0,
      "byteOffset" : 42888,
      "byteLength" : 2112
    },
    {
      "buffer" : 0,
      "byteOffset" : 45000,
      "byteLength" : 168
    },
    {
      "buffer" : 0,
      "byteOffset" : 45168,
      "byteLength" : 1008
    },
    {
      "buffer" : 0,
      "byteOffset" : 46176,
      "byteLength" : 1008
    },
    {
      "buffer" : 0,
      "byteOffset" : 47184,
      "byteLength" : 1344
    },
    {
      "buffer" : 0,
      "byteOffset" : 48528,
      "byteLength" : 672
    },
    {
      "buffer" : 0,
      "byteOffset" : 49200,
      "byteLength" : 72
    },
    {
      "buffer" : 0,
      "byteOffset" : 49272,
      "byteLength" : 432
    },
    {
      "buffer" : 0,
      "byteOffset" : 49704,
      "byteLength" : 432
    },
    {
      "buffer" : 0,
      "byteOffset" : 50136,
      "byteLength" : 576
    },
    {
      "buffer" : 0,
      "byteOffset" : 50712,
      "byteLength" : 288
    },
    {
      "buffer" : 0,
      "byteOffset" : 51000,
      "byteLength" : 888
    },
    {
      "buffer" : 0,
      "byteOffset" : 51888,
      "byteLength" : 5328
    },
    {
      "buffer" : 0,
      "byteOffset" : 57216,
      "byteLength" : 5328
    },
    {
      "buffer" : 0,
      "byteOffset" : 62544,
      "byteLength" : 7104
    },
    {
      "buffer" : 0,
      "byteOffset" : 69648,
      "byteLength" : 3552
    },
    {
      "buffer" : 0,
      "byteOffset" : 73200,
      "byteLength" : 72
    },
    {
      "buffer" : 0,
      "byteOffset" : 73272,
      "byteLength" : 432
    },
    {
      "buffer" : 0,
      "byteOffset" : 73704,
      "byteLength" : 432
    },
    {
      "buffer" : 0,
      "byteOffset" : 74136,
      "byteLength" : 576
    },
    {
      "buffer" : 0,
      "byteOffset" : 74712,
      "byteLength" : 288
    },
    {
      "buffer" : 0,
      "byteOffset" : 75000,
      "byteLength" : 1104
    },
    {
      "buffer" : 0,
      "byteOffset" : 76104,
      "byteLength" : 6624
    },
    {
      "buffer" : 0,
      "byteOffset" : 82728,
      "byteLength" : 6624
    },
    {
      "buffer" : 0,
      "byteOffset" : 89352,
      "byteLength" : 8832
    },
    {
      "buffer" : 0,
      "byteOffset" : 98184,
      "byteLength" : 4416
    },
    {
      "buffer" : 0,
      "byteOffset" : 102600,
      "byteLength" : 528
    },
    {
      "buffer" : 0,
      "byteOffset" : 103128,
      "byteLength" : 3168
    },
    {
      "buffer" : 0,
      "byteOffset" : 106296,
      "byteLength" : 3168
    },
    {
      "buffer" : 0,
      "byteOffset" : 109464,
      "byteLength" : 4224
    },
    {
      "buffer" : 0,
      "byteOffset" : 113688,
      "byteLength" : 2112
    },
    {
      "buffer" : 0,
      "byteOffset" : 115800,
      "byteLength" : 552
    },
    {
      "buffer" : 0,
      "byteOffset" : 116352,
      "byteLength" : 3312
    },
    {
      "buffer" : 0,
      "byteOffset" : 119664,
      "byteLength" : 3312
    },
    {
      "buffer" : 0,
      "byteOffset" : 122976,
      "byteLength" : 4416
    },
    {
      "buffer" : 0,
      "byteOffset" : 127392,
      "byteLength" : 2208
    },
    {
      "buffer" : 0,
      "byteOffset" : 129600,
      "byteLength" : 72
    },
    {
      "buffer" : 0,
      "byteOffset" : 129672,
      "byteLength" : 432
    },
    {
      "buffer" : 0,
      "byteOffset" : 130104,
      "byteLength" : 432
    },
    {
      "buffer" : 0,
      "byteOffset" : 130536,
      "byteLength" : 576
    },
    {
      "buffer" : 0,
      "byteOffset" : 131112,
      "byteLength" : 288
    },
    {
      "buffer" : 0,
      "byteOffset" : 131400,
      "byteLength" : 168
    },
    {
      "buffer" : 0,
      "byteOffset" : 131568,
      "byteLength" : 1008
    },
    {
      "buffer" : 0,
      "byteOffset" : 132576,
      "byteLength" : 1008
    },
    {
      "buffer" : 0,
      "byteOffset" : 133584,
      "byteLength" : 1344
    },
    {
      "buffer" : 0,
      "byteOffset" : 134928,
      "byteLength" : 672
    },
    {
      "buffer" : 0,
      "byteOffset" : 135600,
      "byteLength" : 72
    },
    {
      "buffer" : 0,
      "byteOffset" : 135672,
      "byteLength" : 432
    },
    {
      "buffer" : 0,
      "byteOffset" : 136104,
      "byteLength" : 432
    },
    {
      "buffer" : 0,
      "byteOffset" : 136536,
      "byteLength" : 576
    },
    {
      "buffer" : 0,
      "byteOffset" : 137112,
      "byteLength" : 288
    }
  ],
  "accessors" : [
    {
      "bufferView" : 0,
      "componentType" : 5123,
      "count" : 300,
      "type" : "SCALAR"
    },
    {
      "bufferView" : 1,
      "min" : [ 0.150179, 0.00836618, -0.23525 ],
      "max" : [ 1.91061, 2.96337, 0.0676516 ],
      "componentType" : 5126,
      "count" : 300,
      "type" : "VEC3"
    },
    {
      "bufferView" : 2,
      "componentType" : 5126,
      "count" : 300,
      "type" : "VEC3"
    },
    {
      "bufferView" : 3,
      "componentType" : 5126,
      "count" : 300,
      "type" : "VEC4"
    },
    {
      "bufferView" : 4,
      "componentType" : 5126,
      "count" : 300,
      "type" : "VEC2"
    },
    {
      "bufferView" : 5,
      "componentType" : 5123,
      "count" : 36,
      "type" : "SCALAR"
    },
    {
      "bufferView" : 6,
      "min" : [ -0.140821, 0.00836618, -0.227752 ],
      "max" : [ 0.150179, 0.158366, -0.220252 ],
      "componentType" : 5126,
      "count" : 36,
      "type" : "VEC3"
    },
    {
      "bufferView" : 7,
      "componentType" : 5126,
      "count" : 36,
      "type" : "VEC3"
    },
    {
      "bufferView" : 8,
      "componentType" : 5126,
      "count" : 36,
      "type" : "VEC4"
    },
    {
      "bufferView" : 9,
      "componentType" : 5126,
      "count" : 36,
      "type" : "VEC2"
    },
    {
      "bufferView" : 10,
      "componentType" : 5123,
      "count" : 300,
      "type" : "SCALAR"
    },
    {
      "bufferView" : 11,
      "min" : [ -1.90126, 0.00836618, -0.23525 ],
      "max" : [ -0.140821, 2.96337, 0.0676516 ],
      "componentType" : 5126,
      "count" : 300,
      "type" : "VEC3"
    },
    {
      "bufferView" : 12,
      "componentType" : 5126,
      "count" : 300,
      "type" : "VEC3"
    },
    {
      "bufferView" : 13,
      "componentType" : 5126,
      "count" : 300,
      "type" : "VEC4"
    },
    {
      "bufferView" : 14,
      "componentType" : 5126,
      "count" : 300,
      "type" : "VEC2"
    },
    {
      "bufferView" : 15,
      "componentType" : 5123,
      "count" : 264,
      "type" : "SCALAR"
    },
    {
      "bufferView" : 16,
      "min" : [ -1.90126, 0.00836618, -0.00217017 ],
      "max" : [ 1.91061, 2.96337, 0.188626 ],
      "componentType" : 5126,
      "count" : 264,
      "type" : "VEC3"
    },
    {
      "bufferView" : 17,
      "componentType" : 5126,
      "count" : 264,
      "type" : "VEC3"
    },
    {
      "bufferView" : 18,
      "componentType" : 5126,
      "count" : 264,
      "type" : "VEC4"
    },
    {
      "bufferView" : 19,
      "componentType" : 5126,
      "count" : 264,
      "type" : "VEC2"
    },
    {
      "bufferView" : 20,
      "componentType" : 5123,
      "count" : 84,
      "type" : "SCALAR"
    },
    {
      "bufferView" : 21,
      "min" : [ -0.0703215, 1.37719, -0.233731 ],
      "max" : [ 0.0796785, 1.66954, -0.218731 ],
      "componentType" : 5126,
      "count" : 84,
      "type" : "VEC3"
    },
    {
      "bufferView" : 22,
      "componentType" : 5126,
      "count" : 84,
      "type" : "VEC3"
    },
    {
      "bufferView" : 23,
      "componentType" : 5126,
      "count" : 84,
      "type" : "VEC4"
    },
    {
      "bufferView" : 24,
      "componentType" : 5126,
      "count" : 84,
      "type" : "VEC2"
    },
    {
      "bufferView" : 25,
      "componentType" : 5123,
      "count" : 36,
      "type" : "SCALAR"
    },
    {
      "bufferView" : 26,
      "min" : [ -0.0598215, 1.38837, -0.235252 ],
      "max" : [ 0.0691785, 1.65837, -0.220252 ],
      "componentType" : 5126,
      "count" : 36,
      "type" : "VEC3"
    },
    {
      "bufferView" : 27,
      "componentType" : 5126,
      "count" : 36,
      "type" : "VEC3"
    },
    {
      "bufferView" : 28,
      "componentType" : 5126,
      "count" : 36,
      "type" : "VEC4"
    },
    {
      "bufferView" : 29,
      "componentType" : 5126,
      "count" : 36,
      "type" : "VEC2"
    },
    {
      "bufferView" : 30,
      "componentType" : 5123,
      "count" : 444,
      "type" : "SCALAR"
    },
    {
      "bufferView" : 31,
      "min" : [ -1.20696, 1.52337, -0.241366 ],
      "max" : [ 0.0271785, 2.88837, -0.0488621 ],
      "componentType" : 5126,
      "count" : 444,
      "type" : "VEC3"
    },
    {
      "bufferView" : 32,
      "componentType" : 5126,
      "count" : 444,
      "type" : "VEC3"
    },
    {
      "bufferView" : 33,
      "componentType" : 5126,
      "count" : 444,
      "type" : "VEC4"
    },
    {
      "bufferView" : 34,
      "componentType" : 5126,
      "count" : 444,
      "type" : "VEC2"
    },
    {
      "bufferView" : 35,
      "componentType" : 5123,
      "count" : 36,
      "type" : "SCALAR"
    },
    {
      "bufferView" : 36,
      "min" : [ -1.19579, 2.74887, -0.0673484 ],
      "max" : [ -0.92579, 2.87787, -0.0523484 ],
      "componentType" : 5126,
      "count" : 36,
      "type" : "VEC3"
    },
    {
      "bufferView" : 37,
      "componentType" : 5126,
      "count" : 36,
      "type" : "VEC3"
    },
    {
      "bufferView" : 38,
      "componentType" : 5126,
      "count" : 36,
      "type" : "VEC4"
    },
    {
      "bufferView" : 39,
      "componentType" : 5126,
      "count" : 36,
      "type" : "VEC2"
    },
    {
      "bufferView" : 40,
      "componentType" : 5123,
      "count" : 552,
      "type" : "SCALAR"
    },
    {
      "bufferView" : 41,
      "min" : [ -1.15975, 2.77833, -0.0763484 ],
      "max" : [ 1.0341, 2.85593, -0.0673484 ],
      "componentType" : 5126,
      "count" : 552,
      "type" : "VEC3"
    },
    {
      "bufferView" : 42,
      "componentType" : 5126,
      "count" : 552,
      "type" : "VEC3"
    },
    {
      "bufferView" : 43,
      "componentType" : 5126,
      "count" : 552,
      "type" : "VEC4"
    },
    {
      "bufferView" : 44,
      "componentType" : 5126,
      "count" : 552,
      "type" : "VEC2"
    },
    {
      "bufferView" : 45,
      "componentType" : 5123,
      "count" : 264,
      "type" : "SCALAR"
    },
    {
      "bufferView" : 46,
      "min" : [ -1.90126, 0.00836618, -0.127351 ],
      "max" : [ 1.91061, 0.0263662, 0.0676487 ],
      "componentType" : 5126,
      "count" : 264,
      "type" : "VEC3"
    },
    {
      "bufferView" : 47,
      "componentType" : 5126,
      "count" : 264,
      "type" : "VEC3"
    },
    {
      "bufferView" : 48,
      "componentType" : 5126,
      "count" : 264,
      "type" : "VEC4"
    },
    {
      "bufferView" : 49,
      "componentType" : 5126,
      "count" : 264,
      "type" : "VEC2"
    },
    {
      "bufferView" : 50,
      "componentType" : 5123,
      "count" : 276,
      "type" : "SCALAR"
    },
    {
      "bufferView" : 51,
      "min" : [ 1.10619, 2.77833, -0.0763484 ],
      "max" : [ 1.1691, 2.85593, -0.0673484 ],
      "componentType" : 5126,
      "count" : 276,
      "type" : "VEC3"
    },
    {
      "bufferView" : 52,
      "componentType" : 5126,
      "count" : 276,
      "type" : "VEC3"
    },
    {
      "bufferView" : 53,
      "componentType" : 5126,
      "count" : 276,
      "type" : "VEC4"
    },
    {
      "bufferView" : 54,
      "componentType" : 5126,
      "count" : 276,
      "type" : "VEC2"
    },
    {
      "bufferView" : 55,
      "componentType" : 5123,
      "count" : 36,
      "type" : "SCALAR"
    },
    {
      "bufferView" : 56,
      "min" : [ 0.935144, 2.74887, -0.0673484 ],
      "max" : [ 1.20514, 2.87787, -0.0523484 ],
      "componentType" : 5126,
      "count" : 36,
      "type" : "VEC3"
    },
    {
      "bufferView" : 57,
      "componentType" : 5126,
      "count" : 36,
      "type" : "VEC3"
    },
    {
      "bufferView" : 58,
      "componentType" : 5126,
      "count" : 36,
      "type" : "VEC4"
    },
    {
      "bufferView" : 59,
      "componentType" : 5126,
      "count" : 36,
      "type" : "VEC2"
    },
    {
      "bufferView" : 60,
      "componentType" : 5123,
      "count" : 84,
      "type" : "SCALAR"
    },
    {
      "bufferView" : 61,
      "min" : [ 0.923973, 2.73837, -0.0641287 ],
      "max" : [ 1.21632, 2.88837, -0.0491287 ],
      "componentType" : 5126,
      "count" : 84,
      "type" : "VEC3"
    },
    {
      "bufferView" : 62,
      "componentType" : 5126,
      "count" : 84,
      "type" : "VEC3"
    },
    {
      "bufferView" : 63,
      "componentType" : 5126,
      "count" : 84,
      "type" : "VEC4"
    },
    {
      "bufferView" : 64,
      "componentType" : 5126,
      "count" : 84,
      "type" : "VEC2"
    },
    {
      "bufferView" : 65,
      "componentType" : 5123,
      "count" : 36,
      "type" : "SCALAR"
    },
    {
      "bufferView" : 66,
      "min" : [ -0.145321, 0.00836618, -0.220251 ],
      "max" : [ 0.154679, 2.96337, 0.178126 ],
      "componentType" : 5126,
      "count" : 36,
      "type" : "VEC3"
    },
    {
      "bufferView" : 67,
      "componentType" : 5126,
      "count" : 36,
      "type" : "VEC3"
    },
    {
      "bufferView" : 68,
      "componentType" : 5126,
      "count" : 36,
      "type" : "VEC4"
    },
    {
      "bufferView" : 69,
      "componentType" : 5126,
      "count" : 36,
      "type" : "VEC2"
    }
  ]
}
