{
  "asset" : {
    "generator" : "UE Viewer (umodel) build 1587",
    "version" : "2.0"
  },
  "scene" : 0,
  "scenes" : [
    {
      "nodes" : [ 0 ]
    }
  ],
  "nodes" : [
    {
      "name" : "shelf2",
      "mesh" : 0
    }
  ],
  "materials" : [
    {
      "name" : "M_Wood_Floor_Walnut_Worn",
      "pbrMetallicRoughness" : {
        "baseColorFactor" : [ 0.3, 0.3, 0.3, 1.0 ],
        "metallicFactor" : 0.1,
        "roughnessFactor" : 0.5
      }
    },
    {
      "name" : "M_Wood_Floor_Walnut_Worn",
      "pbrMetallicRoughness" : {
        "baseColorFactor" : [ 0.9, 0.3, 0.3, 1.0 ],
        "metallicFactor" : 0.1,
        "roughnessFactor" : 0.5
      }
    },
    {
      "name" : "M_Metal_Steel",
      "pbrMetallicRoughness" : {
        "baseColorFactor" : [ 0.3, 0.9, 0.3, 1.0 ],
        "metallicFactor" : 0.1,
        "roughnessFactor" : 0.5
      }
    },
    {
      "name" : "M_Glass",
      "pbrMetallicRoughness" : {
        "baseColorFactor" : [ 0.3, 0.3, 0.9, 1.0 ],
        "metallicFactor" : 0.1,
        "roughnessFactor" : 0.5
      }
    },
    {
      "name" : "M_Metal_Steel",
      "pbrMetallicRoughness" : {
        "baseColorFactor" : [ 0.9, 0.9, 0.9, 1.0 ],
        "metallicFactor" : 0.1,
        "roughnessFactor" : 0.5
      }
    },
    {
      "name" : "M_Glass",
      "pbrMetallicRoughness" : {
        "baseColorFactor" : [ 0.9, 0.9, 0.3, 1.0 ],
        "metallicFactor" : 0.1,
        "roughnessFactor" : 0.5
      }
    },
    {
      "name" : "M_Wood_Floor_Walnut_Worn",
      "pbrMetallicRoughness" : {
        "baseColorFactor" : [ 0.9, 0.3, 0.9, 1.0 ],
        "metallicFactor" : 0.1,
        "roughnessFactor" : 0.5
      }
    }
  ],
  "meshes" : [
    {
      "primitives" : [
        {
          "attributes" : {
            "POSITION" : 1,
            "NORMAL" : 2,
            "TANGENT" : 3,
            "TEXCOORD_0" : 4
          },
          "indices" : 0,
          "material" : 0
        },
        {
          "attributes" : {
            "POSITION" : 6,
            "NORMAL" : 7,
            "TANGENT" : 8,
            "TEXCOORD_0" : 9
          },
          "indices" : 5,
          "material" : 1
        },
        {
          "attributes" : {
            "POSITION" : 11,
            "NORMAL" : 12,
            "TANGENT" : 13,
            "TEXCOORD_0" : 14
          },
          "indices" : 10,
          "material" : 2
        },
        {
          "attributes" : {
            "POSITION" : 16,
            "NORMAL" : 17,
            "TANGENT" : 18,
            "TEXCOORD_0" : 19
          },
          "indices" : 15,
          "material" : 3
        },
        {
          "attributes" : {
            "POSITION" : 21,
            "NORMAL" : 22,
            "TANGENT" : 23,
            "TEXCOORD_0" : 24
          },
          "indices" : 20,
          "material" : 4
        },
        {
          "attributes" : {
            "POSITION" : 26,
            "NORMAL" : 27,
            "TANGENT" : 28,
            "TEXCOORD_0" : 29
          },
          "indices" : 25,
          "material" : 5
        },
        {
          "attributes" : {
            "POSITION" : 31,
            "NORMAL" : 32,
            "TANGENT" : 33,
            "TEXCOORD_0" : 34
          },
          "indices" : 30,
          "material" : 6
        }
      ],
      "name" : "shelf2"
    }
  ],
  "buffers" : [
    {
      "uri" : "shelf2.bin",
      "byteLength" : 117000
    }
  ],
  "bufferViews" : [
    {
      "buffer" : 0,
      "byteOffset" : 0,
      "byteLength" : 624
    },
    {
      "buffer" : 0,
      "byteOffset" : 624,
      "byteLength" : 3744
    },
    {
      "buffer" : 0,
      "byteOffset" : 4368,
      "byteLength" : 3744
    },
    {
      "buffer" : 0,
      "byteOffset" : 8112,
      "byteLength" : 4992
    },
    {
      "buffer" : 0,
      "byteOffset" : 13104,
      "byteLength" : 2496
    },
    {
      "buffer" : 0,
      "byteOffset" : 15600,
      "byteLength" : 744
    },
    {
      "buffer" : 0,
      "byteOffset" : 16344,
      "byteLength" : 4464
    },
    {
      "buffer" : 0,
      "byteOffset" : 20808,
      "byteLength" : 4464
    },
    {
      "buffer" : 0,
      "byteOffset" : 25272,
      "byteLength" : 5952
    },
    {
      "buffer" : 0,
      "byteOffset" : 31224,
      "byteLength" : 2976
    },
    {
      "buffer" : 0,
      "byteOffset" : 34200,
      "byteLength" : 384
    },
    {
      "buffer" : 0,
      "byteOffset" : 34584,
      "byteLength" : 2304
    },
    {
      "buffer" : 0,
      "byteOffset" : 36888,
      "byteLength" : 2304
    },
    {
      "buffer" : 0,
      "byteOffset" : 39192,
      "byteLength" : 3072
    },
    {
      "buffer" : 0,
      "byteOffset" : 42264,
      "byteLength" : 1536
    },
    {
      "buffer" : 0,
      "byteOffset" : 43800,
      "byteLength" : 24
    },
    {
      "buffer" : 0,
      "byteOffset" : 43824,
      "byteLength" : 144
    },
    {
      "buffer" : 0,
      "byteOffset" : 43968,
      "byteLength" : 144
    },
    {
      "buffer" : 0,
      "byteOffset" : 44112,
      "byteLength" : 192
    },
    {
      "buffer" : 0,
      "byteOffset" : 44304,
      "byteLength" : 96
    },
    {
      "buffer" : 0,
      "byteOffset" : 44400,
      "byteLength" : 384
    },
    {
      "buffer" : 0,
      "byteOffset" : 44784,
      "byteLength" : 2304
    },
    {
      "buffer" : 0,
      "byteOffset" : 47088,
      "byteLength" : 2304
    },
    {
      "buffer" : 0,
      "byteOffset" : 49392,
      "byteLength" : 3072
    },
    {
      "buffer" : 0,
      "byteOffset" : 52464,
      "byteLength" : 1536
    },
    {
      "buffer" : 0,
      "byteOffset" : 54000,
      "byteLength" : 24
    },
    {
      "buffer" : 0,
      "byteOffset" : 54024,
      "byteLength" : 144
    },
    {
      "buffer" : 0,
      "byteOffset" : 54168,
      "byteLength" : 144
    },
    {
      "buffer" : 0,
      "byteOffset" : 54312,
      "byteLength" : 192
    },
    {
      "buffer" : 0,
      "byteOffset" : 54504,
      "byteLength" : 96
    },
    {
      "buffer" : 0,
      "byteOffset" : 54600,
      "byteLength" : 2496
    },
    {
      "buffer" : 0,
      "byteOffset" : 57096,
      "byteLength" : 14976
    },
    {
      "buffer" : 0,
      "byteOffset" : 72072,
      "byteLength" : 14976
    },
    {
      "buffer" : 0,
      "byteOffset" : 87048,
      "byteLength" : 19968
    },
    {
      "buffer" : 0,
      "byteOffset" : 107016,
      "byteLength" : 9984
    }
  ],
  "accessors" : [
    {
      "bufferView" : 0,
      "componentType" : 5123,
      "count" : 312,
      "type" : "SCALAR"
    },
    {
      "bufferView" : 1,
      "min" : [ 0, 0.0498476, 0.192717 ],
      "max" : [ 0.85, 0.499848, 0.712717 ],
      "componentType" : 5126,
      "count" : 312,
      "type" : "VEC3"
    },
    {
      "bufferView" : 2,
      "componentType" : 5126,
      "count" : 312,
      "type" : "VEC3"
    },
    {
      "bufferView" : 3,
      "componentType" : 5126,
      "count" : 312,
      "type" : "VEC4"
    },
    {
      "bufferView" : 4,
      "componentType" : 5126,
      "count" : 312,
      "type" : "VEC2"
    },
    {
      "bufferView" : 5,
      "componentType" : 5123,
      "count" : 372,
      "type" : "SCALAR"
    },
    {
      "bufferView" : 6,
      "min" : [ -0.9, -1.83697e-17, -0.3 ],
      "max" : [ 0.9, 3, 0.3 ],
      "componentType" : 5126,
      "count" : 372,
      "type" : "VEC3"
    },
    {
      "bufferView" : 7,
      "componentType" : 5126,
      "count" : 372,
      "type" : "VEC3"
    },
    {
      "bufferView" : 8,
      "componentType" : 5126,
      "count" : 372,
      "type" : "VEC4"
    },
    {
      "bufferView" : 9,
      "componentType" : 5126,
      "count" : 372,
      "type" : "VEC2"
    },
    {
      "bufferView" : 10,
      "componentType" : 5123,
      "count" : 192,
      "type" : "SCALAR"
    },
    {
      "bufferView" : 11,
      "min" : [ -0.864142, 1.5, 0.260858 ],
      "max" : [ -0.234817, 2.95, 0.890183 ],
      "componentType" : 5126,
      "count" : 192,
      "type" : "VEC3"
    },
    {
      "bufferView" : 12,
      "componentType" : 5126,
      "count" : 192,
      "type" : "VEC3"
    },
    {
      "bufferView" : 13,
      "componentType" : 5126,
      "count" : 192,
      "type" : "VEC4"
    },
    {
      "bufferView" : 14,
      "componentType" : 5126,
      "count" : 192,
      "type" : "VEC2"
    },
    {
      "bufferView" : 15,
      "componentType" : 5123,
      "count" : 12,
      "type" : "SCALAR"
    },
    {
      "bufferView" : 16,
      "min" : [ -0.817736, 1.545, 0.306376 ],
      "max" : [ -0.280335, 2.905, 0.843777 ],
      "componentType" : 5126,
      "count" : 12,
      "type" : "VEC3"
    },
    {
      "bufferView" : 17,
      "componentType" : 5126,
      "count" : 12,
      "type" : "VEC3"
    },
    {
      "bufferView" : 18,
      "componentType" : 5126,
      "count" : 12,
      "type" : "VEC4"
    },
    {
      "bufferView" : 19,
      "componentType" : 5126,
      "count" : 12,
      "type" : "VEC2"
    },
    {
      "bufferView" : 20,
      "componentType" : 5123,
      "count" : 192,
      "type" : "SCALAR"
    },
    {
      "bufferView" : 21,
      "min" : [ 0.103878, 1.5, 0.255849 ],
      "max" : [ 0.86, 2.95, 0.719151 ],
      "componentType" : 5126,
      "count" : 192,
      "type" : "VEC3"
    },
    {
      "bufferView" : 22,
      "componentType" : 5126,
      "count" : 192,
      "type" : "VEC3"
    },
    {
      "bufferView" : 23,
      "componentType" : 5126,
      "count" : 192,
      "type" : "VEC4"
    },
    {
      "bufferView" : 24,
      "componentType" : 5126,
      "count" : 192,
      "type" : "VEC2"
    },
    {
      "bufferView" : 25,
      "componentType" : 5123,
      "count" : 12,
      "type" : "SCALAR"
    },
    {
      "bufferView" : 26,
      "min" : [ 0.153164, 1.545, 0.298044 ],
      "max" : [ 0.811343, 2.905, 0.678044 ],
      "componentType" : 5126,
      "count" : 12,
      "type" : "VEC3"
    },
    {
      "bufferView" : 27,
      "componentType" : 5126,
      "count" : 12,
      "type" : "VEC3"
    },
    {
      "bufferView" : 28,
      "componentType" : 5126,
      "count" : 12,
      "type" : "VEC4"
    },
    {
      "bufferView" : 29,
      "componentType" : 5126,
      "count" : 12,
      "type" : "VEC2"
    },
    {
      "bufferView" : 30,
      "componentType" : 5123,
      "count" : 1248,
      "type" : "SCALAR"
    },
    {
      "bufferView" : 31,
      "min" : [ -0.85, 0.0498476, -0.25 ],
      "max" : [ 0.845, 1, 0.735931 ],
      "componentType" : 5126,
      "count" : 1248,
      "type" : "VEC3"
    },
    {
      "bufferView" : 32,
      "componentType" : 5126,
      "count" : 1248,
      "type" : "VEC3"
    },
    {
      "bufferView" : 33,
      "componentType" : 5126,
      "count" : 1248,
      "type" : "VEC4"
    },
    {
      "bufferView" : 34,
      "componentType" : 5126,
      "count" : 1248,
      "type" : "VEC2"
    }
  ]
}
