{
  "asset" : {
    "generator" : "UE Viewer (umodel) build 1587",
    "version" : "2.0"
  },
  "scene" : 0,
  "scenes" : [
    {
      "nodes" : [ 0 ]
    }
  ],
  "nodes" : [
    {
      "name" : "office_table",
      "mesh" : 0
    }
  ],
  "materials" : [
    {
      "name" : "01_-_Default",
      "pbrMetallicRoughness" : {
        "baseColorFactor" : [ 0.3, 0.3, 0.3, 1.0 ],
        "metallicFactor" : 0.1,
        "roughnessFactor" : 0.5
      }
    }
  ],
  "meshes" : [
    {
      "primitives" : [
        {
          "attributes" : {
            "POSITION" : 1,
            "NORMAL" : 2,
            "TANGENT" : 3,
            "TEXCOORD_0" : 4
          },
          "indices" : 0,
          "material" : 0
        }
      ],
      "name" : "office_table"
    }
  ],
  "buffers" : [
    {
      "uri" : "office_table.bin",
      "byteLength" : 34800
    }
  ],
  "bufferViews" : [
    {
      "buffer" : 0,
      "byteOffset" : 0,
      "byteLength" : 1392
    },
    {
      "buffer" : 0,
      "byteOffset" : 1392,
      "byteLength" : 8352
    },
    {
      "buffer" : 0,
      "byteOffset" : 9744,
      "byteLength" : 8352
    },
    {
      "buffer" : 0,
      "byteOffset" : 18096,
      "byteLength" : 11136
    },
    {
      "buffer" : 0,
      "byteOffset" : 29232,
      "byteLength" : 5568
    }
  ],
  "accessors" : [
    {
      "bufferView" : 0,
      "componentType" : 5123,
      "count" : 696,
      "type" : "SCALAR"
    },
    {
      "bufferView" : 1,
      "min" : [ -1.46997, 0.00757697, -3.44644 ],
      "max" : [ 1.46997, 1.3006, 3.44644 ],
      "componentType" : 5126,
      "count" : 696,
      "type" : "VEC3"
    },
    {
      "bufferView" : 2,
      "componentType" : 5126,
      "count" : 696,
      "type" : "VEC3"
    },
    {
      "bufferView" : 3,
      "componentType" : 5126,
      "count" : 696,
      "type" : "VEC4"
    },
    {
      "bufferView" : 4,
      "componentType" : 5126,
      "count" : 696,
      "type" : "VEC2"
    }
  ]
}
