{
  "asset" : {
    "generator" : "UE Viewer (umodel) build 1587",
    "version" : "2.0"
  },
  "scene" : 0,
  "scenes" : [
    {
      "nodes" : [ 0 ]
    }
  ],
  "nodes" : [
    {
      "name" : "bed",
      "mesh" : 0
    }
  ],
  "materials" : [
    {
      "name" : "M_Wood_Floor_Walnut_Polished",
      "pbrMetallicRoughness" : {
        "baseColorFactor" : [ 0.3, 0.3, 0.3, 1.0 ],
        "metallicFactor" : 0.1,
        "roughnessFactor" : 0.5
      }
    },
    {
      "name" : "01_-_Default",
      "pbrMetallicRoughness" : {
        "baseColorFactor" : [ 0.9, 0.3, 0.3, 1.0 ],
        "metallicFactor" : 0.1,
        "roughnessFactor" : 0.5
      }
    },
    {
      "name" : "M_Wood_Floor_Walnut_Polished",
      "pbrMetallicRoughness" : {
        "baseColorFactor" : [ 0.3, 0.9, 0.3, 1.0 ],
        "metallicFactor" : 0.1,
        "roughnessFactor" : 0.5
      }
    },
    {
      "name" : "01_-_Default",
      "pbrMetallicRoughness" : {
        "baseColorFactor" : [ 0.3, 0.3, 0.9, 1.0 ],
        "metallicFactor" : 0.1,
        "roughnessFactor" : 0.5
      }
    },
    {
      "name" : "M_Wood_Floor_Walnut_Polished",
      "pbrMetallicRoughness" : {
        "baseColorFactor" : [ 0.9, 0.9, 0.9, 1.0 ],
        "metallicFactor" : 0.1,
        "roughnessFactor" : 0.5
      }
    }
  ],
  "meshes" : [
    {
      "primitives" : [
        {
          "attributes" : {
            "POSITION" : 1,
            "NORMAL" : 2,
            "TANGENT" : 3,
            "TEXCOORD_0" : 4
          },
          "indices" : 0,
          "material" : 0
        },
        {
          "attributes" : {
            "POSITION" : 6,
            "NORMAL" : 7,
            "TANGENT" : 8,
            "TEXCOORD_0" : 9
          },
          "indices" : 5,
          "material" : 1
        },
        {
          "attributes" : {
            "POSITION" : 11,
            "NORMAL" : 12,
            "TANGENT" : 13,
            "TEXCOORD_0" : 14
          },
          "indices" : 10,
          "material" : 2
        },
        {
          "attributes" : {
            "POSITION" : 16,
            "NORMAL" : 17,
            "TANGENT" : 18,
            "TEXCOORD_0" : 19
          },
          "indices" : 15,
          "material" : 3
        },
        {
          "attributes" : {
            "POSITION" : 21,
            "NORMAL" : 22,
            "TANGENT" : 23,
            "TEXCOORD_0" : 24
          },
          "indices" : 20,
          "material" : 4
        }
      ],
      "name" : "bed"
    }
  ],
  "buffers" : [
    {
      "uri" : "bed.bin",
      "byteLength" : 237600
    }
  ],
  "bufferViews" : [
    {
      "buffer" : 0,
      "byteOffset" : 0,
      "byteLength" : 144
    },
    {
      "buffer" : 0,
      "byteOffset" : 144,
      "byteLength" : 864
    },
    {
      "buffer" : 0,
      "byteOffset" : 1008,
      "byteLength" : 864
    },
    {
      "buffer" : 0,
      "byteOffset" : 1872,
      "byteLength" : 1152
    },
    {
      "buffer" : 0,
      "byteOffset" : 3024,
      "byteLength" : 576
    },
    {
      "buffer" : 0,
      "byteOffset" : 3600,
      "byteLength" : 4608
    },
    {
      "buffer" : 0,
      "byteOffset" : 8208,
      "byteLength" : 27648
    },
    {
      "buffer" : 0,
      "byteOffset" : 35856,
      "byteLength" : 27648
    },
    {
      "buffer" : 0,
      "byteOffset" : 63504,
      "byteLength" : 36864
    },
    {
      "buffer" : 0,
      "byteOffset" : 100368,
      "byteLength" : 18432
    },
    {
      "buffer" : 0,
      "byteOffset" : 118800,
      "byteLength" : 1152
    },
    {
      "buffer" : 0,
      "byteOffset" : 119952,
      "byteLength" : 6912
    },
    {
      "buffer" : 0,
      "byteOffset" : 126864,
      "byteLength" : 6912
    },
    {
      "buffer" : 0,
      "byteOffset" : 133776,
      "byteLength" : 9216
    },
    {
      "buffer" : 0,
      "byteOffset" : 142992,
      "byteLength" : 4608
    },
    {
      "buffer" : 0,
      "byteOffset" : 147600,
      "byteLength" : 2304
    },
    {
      "buffer" : 0,
      "byteOffset" : 149904,
      "byteLength" : 13824
    },
    {
      "buffer" : 0,
      "byteOffset" : 163728,
      "byteLength" : 13824
    },
    {
      "buffer" : 0,
      "byteOffset" : 177552,
      "byteLength" : 18432
    },
    {
      "buffer" : 0,
      "byteOffset" : 195984,
      "byteLength" : 9216
    },
    {
      "buffer" : 0,
      "byteOffset" : 205200,
      "byteLength" : 1296
    },
    {
      "buffer" : 0,
      "byteOffset" : 206496,
      "byteLength" : 7776
    },
    {
      "buffer" : 0,
      "byteOffset" : 214272,
      "byteLength" : 7776
    },
    {
      "buffer" : 0,
      "byteOffset" : 222048,
      "byteLength" : 10368
    },
    {
      "buffer" : 0,
      "byteOffset" : 232416,
      "byteLength" : 5184
    }
  ],
  "accessors" : [
    {
      "bufferView" : 0,
      "componentType" : 5123,
      "count" : 72,
      "type" : "SCALAR"
    },
    {
      "bufferView" : 1,
      "min" : [ -0.858541, -0.527973, 1.22806 ],
      "max" : [ 0.863104, -0.227973, 1.30536 ],
      "componentType" : 5126,
      "count" : 72,
      "type" : "VEC3"
    },
    {
      "bufferView" : 2,
      "componentType" : 5126,
      "count" : 72,
      "type" : "VEC3"
    },
    {
      "bufferView" : 3,
      "componentType" : 5126,
      "count" : 72,
      "type" : "VEC4"
    },
    {
      "bufferView" : 4,
      "componentType" : 5126,
      "count" : 72,
      "type" : "VEC2"
    },
    {
      "bufferView" : 5,
      "componentType" : 5123,
      "count" : 2304,
      "type" : "SCALAR"
    },
    {
      "bufferView" : 6,
      "min" : [ -0.82535, -0.15, -1.26511 ],
      "max" : [ 0.82535, 0.15, 1.26511 ],
      "componentType" : 5126,
      "count" : 2304,
      "type" : "VEC3"
    },
    {
      "bufferView" : 7,
      "componentType" : 5126,
      "count" : 2304,
      "type" : "VEC3"
    },
    {
      "bufferView" : 8,
      "componentType" : 5126,
      "count" : 2304,
      "type" : "VEC4"
    },
    {
      "bufferView" : 9,
      "componentType" : 5126,
      "count" : 2304,
      "type" : "VEC2"
    },
    {
      "bufferView" : 10,
      "componentType" : 5123,
      "count" : 576,
      "type" : "SCALAR"
    },
    {
      "bufferView" : 11,
      "min" : [ -0.864919, -0.240889, -1.39846 ],
      "max" : [ 0.864919, 0.313209, -1.27622 ],
      "componentType" : 5126,
      "count" : 576,
      "type" : "VEC3"
    },
    {
      "bufferView" : 12,
      "componentType" : 5126,
      "count" : 576,
      "type" : "VEC3"
    },
    {
      "bufferView" : 13,
      "componentType" : 5126,
      "count" : 576,
      "type" : "VEC4"
    },
    {
      "bufferView" : 14,
      "componentType" : 5126,
      "count" : 576,
      "type" : "VEC2"
    },
    {
      "bufferView" : 15,
      "componentType" : 5123,
      "count" : 1152,
      "type" : "SCALAR"
    },
    {
      "bufferView" : 16,
      "min" : [ -0.744072, 0.105133, -1.15878 ],
      "max" : [ 0.70477, 0.290942, -0.629518 ],
      "componentType" : 5126,
      "count" : 1152,
      "type" : "VEC3"
    },
    {
      "bufferView" : 17,
      "componentType" : 5126,
      "count" : 1152,
      "type" : "VEC3"
    },
    {
      "bufferView" : 18,
      "componentType" : 5126,
      "count" : 1152,
      "type" : "VEC4"
    },
    {
      "bufferView" : 19,
      "componentType" : 5126,
      "count" : 1152,
      "type" : "VEC2"
    },
    {
      "bufferView" : 20,
      "componentType" : 5123,
      "count" : 648,
      "type" : "SCALAR"
    },
    {
      "bufferView" : 21,
      "min" : [ -0.864919, -0.527973, -1.39784 ],
      "max" : [ 0.864919, -0.00326722, 1.31102 ],
      "componentType" : 5126,
      "count" : 648,
      "type" : "VEC3"
    },
    {
      "bufferView" : 22,
      "componentType" : 5126,
      "count" : 648,
      "type" : "VEC3"
    },
    {
      "bufferView" : 23,
      "componentType" : 5126,
      "count" : 648,
      "type" : "VEC4"
    },
    {
      "bufferView" : 24,
      "componentType" : 5126,
      "count" : 648,
      "type" : "VEC2"
    }
  ]
}
