{
  "asset" : {
    "generator" : "UE Viewer (umodel) build 1587",
    "version" : "2.0"
  },
  "scene" : 0,
  "scenes" : [
    {
      "nodes" : [ 0 ]
    }
  ],
  "nodes" : [
    {
      "name" : "lamppost",
      "mesh" : 0
    }
  ],
  "materials" : [
    {
      "name" : "hardwood",
      "pbrMetallicRoughness" : {
        "baseColorFactor" : [ 0.3, 0.3, 0.3, 1.0 ],
        "metallicFactor" : 0.1,
        "roughnessFactor" : 0.5
      }
    }
  ],
  "meshes" : [
    {
      "primitives" : [
        {
          "attributes" : {
            "POSITION" : 1,
            "NORMAL" : 2,
            "TANGENT" : 3,
            "TEXCOORD_0" : 4
          },
          "indices" : 0,
          "material" : 0
        }
      ],
      "name" : "lamppost"
    }
  ],
  "buffers" : [
    {
      "uri" : "lamppost.bin",
      "byteLength" : 10800
    }
  ],
  "bufferViews" : [
    {
      "buffer" : 0,
      "byteOffset" : 0,
      "byteLength" : 432
    },
    {
      "buffer" : 0,
      "byteOffset" : 432,
      "byteLength" : 2592
    },
    {
      "buffer" : 0,
      "byteOffset" : 3024,
      "byteLength" : 2592
    },
    {
      "buffer" : 0,
      "byteOffset" : 5616,
      "byteLength" : 3456
    },
    {
      "buffer" : 0,
      "byteOffset" : 9072,
      "byteLength" : 1728
    }
  ],
  "accessors" : [
    {
      "bufferView" : 0,
      "componentType" : 5123,
      "count" : 216,
      "type" : "SCALAR"
    },
    {
      "bufferView" : 1,
      "min" : [ -0.0713435, 0.00421859, -0.0763465 ],
      "max" : [ 1.07866, 3.66422, 0.0636535 ],
      "componentType" : 5126,
      "count" : 216,
      "type" : "VEC3"
    },
    {
      "bufferView" : 2,
      "componentType" : 5126,
      "count" : 216,
      "type" : "VEC3"
    },
    {
      "bufferView" : 3,
      "componentType" : 5126,
      "count" : 216,
      "type" : "VEC4"
    },
    {
      "bufferView" : 4,
      "componentType" : 5126,
      "count" : 216,
      "type" : "VEC2"
    }
  ]
}
