{
  "asset" : {
    "generator" : "UE Viewer (umodel) build 1587",
    "version" : "2.0"
  },
  "scene" : 0,
  "scenes" : [
    {
      "nodes" : [ 0 ]
    }
  ],
  "nodes" : [
    {
      "name" : "stairmesh",
      "mesh" : 0
    }
  ],
  "materials" : [
    {
      "name" : "M_Metal_Steel",
      "pbrMetallicRoughness" : {
        "baseColorFactor" : [ 0.3, 0.3, 0.3, 1.0 ],
        "metallicFactor" : 0.1,
        "roughnessFactor" : 0.5
      }
    },
    {
      "name" : "M_Metal_Steel",
      "pbrMetallicRoughness" : {
        "baseColorFactor" : [ 0.9, 0.3, 0.3, 1.0 ],
        "metallicFactor" : 0.1,
        "roughnessFactor" : 0.5
      }
    },
    {
      "name" : "oakfloor",
      "pbrMetallicRoughness" : {
        "baseColorFactor" : [ 0.3, 0.9, 0.3, 1.0 ],
        "metallicFactor" : 0.1,
        "roughnessFactor" : 0.5
      }
    },
    {
      "name" : "M_Metal_Steel",
      "pbrMetallicRoughness" : {
        "baseColorFactor" : [ 0.3, 0.3, 0.9, 1.0 ],
        "metallicFactor" : 0.1,
        "roughnessFactor" : 0.5
      }
    },
    {
      "name" : "oakfloor",
      "pbrMetallicRoughness" : {
        "baseColorFactor" : [ 0.9, 0.9, 0.9, 1.0 ],
        "metallicFactor" : 0.1,
        "roughnessFactor" : 0.5
      }
    },
    {
      "name" : "oakfloor",
      "pbrMetallicRoughness" : {
        "baseColorFactor" : [ 0.9, 0.9, 0.3, 1.0 ],
        "metallicFactor" : 0.1,
        "roughnessFactor" : 0.5
      }
    }
  ],
  "meshes" : [
    {
      "primitives" : [
        {
          "attributes" : {
            "POSITION" : 1,
            "NORMAL" : 2,
            "TANGENT" : 3,
            "TEXCOORD_0" : 4
          },
          "indices" : 0,
          "material" : 0
        },
        {
          "attributes" : {
            "POSITION" : 6,
            "NORMAL" : 7,
            "TANGENT" : 8,
            "TEXCOORD_0" : 9
          },
          "indices" : 5,
          "material" : 1
        },
        {
          "attributes" : {
            "POSITION" : 11,
            "NORMAL" : 12,
            "TANGENT" : 13,
            "TEXCOORD_0" : 14
          },
          "indices" : 10,
          "material" : 2
        },
        {
          "attributes" : {
            "POSITION" : 16,
            "NORMAL" : 17,
            "TANGENT" : 18,
            "TEXCOORD_0" : 19
          },
          "indices" : 15,
          "material" : 3
        },
        {
          "attributes" : {
            "POSITION" : 21,
            "NORMAL" : 22,
            "TANGENT" : 23,
            "TEXCOORD_0" : 24
          },
          "indices" : 20,
          "material" : 4
        },
        {
          "attributes" : {
            "POSITION" : 26,
            "NORMAL" : 27,
            "TANGENT" : 28,
            "TEXCOORD_0" : 29
          },
          "indices" : 25,
          "material" : 5
        }
      ],
      "name" : "stairmesh"
    }
  ],
  "buffers" : [
    {
      "uri" : "stairmesh.bin",
      "byteLength" : 2164800
    }
  ],
  "bufferViews" : [
    {
      "buffer" : 0,
      "byteOffset" : 0,
      "byteLength" : 1152
    },
    {
      "buffer" : 0,
      "byteOffset" : 1152,
      "byteLength" : 6912
    },
    {
      "buffer" : 0,
      "byteOffset" : 8064,
      "byteLength" : 6912
    },
    {
      "buffer" : 0,
      "byteOffset" : 14976,
      "byteLength" : 9216
    },
    {
      "buffer" : 0,
      "byteOffset" : 24192,
      "byteLength" : 4608
    },
    {
      "buffer" : 0,
      "byteOffset" : 28800,
      "byteLength" : 47616
    },
    {
      "buffer" : 0,
      "byteOffset" : 76416,
      "byteLength" : 285696
    },
    {
      "buffer" : 0,
      "byteOffset" : 362112,
      "byteLength" : 285696
    },
    {
      "buffer" : 0,
      "byteOffset" : 647808,
      "byteLength" : 380928
    },
    {
      "buffer" : 0,
      "byteOffset" : 1028736,
      "byteLength" : 190464
    },
    {
      "buffer" : 0,
      "byteOffset" : 1219200,
      "byteLength" : 1128
    },
    {
      "buffer" : 0,
      "byteOffset" : 1220328,
      "byteLength" : 6768
    },
    {
      "buffer" : 0,
      "byteOffset" : 1227096,
      "byteLength" : 6768
    },
    {
      "buffer" : 0,
      "byteOffset" : 1233864,
      "byteLength" : 9024
    },
    {
      "buffer" : 0,
      "byteOffset" : 1242888,
      "byteLength" : 4512
    },
    {
      "buffer" : 0,
      "byteOffset" : 1247400,
      "byteLength" : 23064
    },
    {
      "buffer" : 0,
      "byteOffset" : 1270464,
      "byteLength" : 138384
    },
    {
      "buffer" : 0,
      "byteOffset" : 1408848,
      "byteLength" : 138384
    },
    {
      "buffer" : 0,
      "byteOffset" : 1547232,
      "byteLength" : 184512
    },
    {
      "buffer" : 0,
      "byteOffset" : 1731744,
      "byteLength" : 92256
    },
    {
      "buffer" : 0,
      "byteOffset" : 1824000,
      "byteLength" : 12456
    },
    {
      "buffer" : 0,
      "byteOffset" : 1836456,
      "byteLength" : 74736
    },
    {
      "buffer" : 0,
      "byteOffset" : 1911192,
      "byteLength" : 74736
    },
    {
      "buffer" : 0,
      "byteOffset" : 1985928,
      "byteLength" : 99648
    },
    {
      "buffer" : 0,
      "byteOffset" : 2085576,
      "byteLength" : 49824
    },
    {
      "buffer" : 0,
      "byteOffset" : 2135400,
      "byteLength" : 1176
    },
    {
      "buffer" : 0,
      "byteOffset" : 2136576,
      "byteLength" : 7056
    },
    {
      "buffer" : 0,
      "byteOffset" : 2143632,
      "byteLength" : 7056
    },
    {
      "buffer" : 0,
      "byteOffset" : 2150688,
      "byteLength" : 9408
    },
    {
      "buffer" : 0,
      "byteOffset" : 2160096,
      "byteLength" : 4704
    }
  ],
  "accessors" : [
    {
      "bufferView" : 0,
      "componentType" : 5123,
      "count" : 576,
      "type" : "SCALAR"
    },
    {
      "bufferView" : 1,
      "min" : [ -1.87907, 0.00958994, -2.09396 ],
      "max" : [ 1.87093, 4.16834, 2.13754 ],
      "componentType" : 5126,
      "count" : 576,
      "type" : "VEC3"
    },
    {
      "bufferView" : 2,
      "componentType" : 5126,
      "count" : 576,
      "type" : "VEC3"
    },
    {
      "bufferView" : 3,
      "componentType" : 5126,
      "count" : 576,
      "type" : "VEC4"
    },
    {
      "bufferView" : 4,
      "componentType" : 5126,
      "count" : 576,
      "type" : "VEC2"
    },
    {
      "bufferView" : 5,
      "componentType" : 5123,
      "count" : 23808,
      "type" : "SCALAR"
    },
    {
      "bufferView" : 6,
      "min" : [ -1.87907, 0.29084, -2.09396 ],
      "max" : [ 1.85593, 5.65947, 2.07004 ],
      "componentType" : 5126,
      "count" : 23808,
      "type" : "VEC3"
    },
    {
      "bufferView" : 7,
      "componentType" : 5126,
      "count" : 23808,
      "type" : "VEC3"
    },
    {
      "bufferView" : 8,
      "componentType" : 5126,
      "count" : 23808,
      "type" : "VEC4"
    },
    {
      "bufferView" : 9,
      "componentType" : 5126,
      "count" : 23808,
      "type" : "VEC2"
    },
    {
      "bufferView" : 10,
      "componentType" : 5123,
      "count" : 564,
      "type" : "SCALAR"
    },
    {
      "bufferView" : 11,
      "min" : [ -1.87907, 1.47353, -2.09396 ],
      "max" : [ 1.87093, 5.76728, 2.13754 ],
      "componentType" : 5126,
      "count" : 564,
      "type" : "VEC3"
    },
    {
      "bufferView" : 12,
      "componentType" : 5126,
      "count" : 564,
      "type" : "VEC3"
    },
    {
      "bufferView" : 13,
      "componentType" : 5126,
      "count" : 564,
      "type" : "VEC4"
    },
    {
      "bufferView" : 14,
      "componentType" : 5126,
      "count" : 564,
      "type" : "VEC2"
    },
    {
      "bufferView" : 15,
      "componentType" : 5123,
      "count" : 11532,
      "type" : "SCALAR"
    },
    {
      "bufferView" : 16,
      "min" : [ -0.281567, 0.29084, -0.646455 ],
      "max" : [ 0.273433, 5.65839, 2.07004 ],
      "componentType" : 5126,
      "count" : 11532,
      "type" : "VEC3"
    },
    {
      "bufferView" : 17,
      "componentType" : 5126,
      "count" : 11532,
      "type" : "VEC3"
    },
    {
      "bufferView" : 18,
      "componentType" : 5126,
      "count" : 11532,
      "type" : "VEC4"
    },
    {
      "bufferView" : 19,
      "componentType" : 5126,
      "count" : 11532,
      "type" : "VEC2"
    },
    {
      "bufferView" : 20,
      "componentType" : 5123,
      "count" : 6228,
      "type" : "SCALAR"
    },
    {
      "bufferView" : 21,
      "min" : [ -0.309201, 1.4648, -0.674089 ],
      "max" : [ 0.295933, 5.77602, 2.13754 ],
      "componentType" : 5126,
      "count" : 6228,
      "type" : "VEC3"
    },
    {
      "bufferView" : 22,
      "componentType" : 5126,
      "count" : 6228,
      "type" : "VEC3"
    },
    {
      "bufferView" : 23,
      "componentType" : 5126,
      "count" : 6228,
      "type" : "VEC4"
    },
    {
      "bufferView" : 24,
      "componentType" : 5126,
      "count" : 6228,
      "type" : "VEC2"
    },
    {
      "bufferView" : 25,
      "componentType" : 5123,
      "count" : 588,
      "type" : "SCALAR"
    },
    {
      "bufferView" : 26,
      "min" : [ -1.87907, 0.23084, -2.09396 ],
      "max" : [ 1.87093, 4.22834, 2.16754 ],
      "componentType" : 5126,
      "count" : 588,
      "type" : "VEC3"
    },
    {
      "bufferView" : 27,
      "componentType" : 5126,
      "count" : 588,
      "type" : "VEC3"
    },
    {
      "bufferView" : 28,
      "componentType" : 5126,
      "count" : 588,
      "type" : "VEC4"
    },
    {
      "bufferView" : 29,
      "componentType" : 5126,
      "count" : 588,
      "type" : "VEC2"
    }
  ]
}
