{
  "asset" : {
    "generator" : "UE Viewer (umodel) build 1587",
    "version" : "2.0"
  },
  "scene" : 0,
  "scenes" : [
    {
      "nodes" : [ 0 ]
    }
  ],
  "nodes" : [
    {
      "name" : "shelf4_Box07",
      "mesh" : 0
    }
  ],
  "materials" : [
    {
      "name" : "lambert1",
      "pbrMetallicRoughness" : {
        "baseColorFactor" : [ 0.3, 0.3, 0.3, 1.0 ],
        "metallicFactor" : 0.1,
        "roughnessFactor" : 0.5
      }
    },
    {
      "name" : "lambert2",
      "pbrMetallicRoughness" : {
        "baseColorFactor" : [ 0.9, 0.3, 0.3, 1.0 ],
        "metallicFactor" : 0.1,
        "roughnessFactor" : 0.5
      }
    },
    {
      "name" : "lambert2",
      "pbrMetallicRoughness" : {
        "baseColorFactor" : [ 0.3, 0.9, 0.3, 1.0 ],
        "metallicFactor" : 0.1,
        "roughnessFactor" : 0.5
      }
    },
    {
      "name" : "lambert1",
      "pbrMetallicRoughness" : {
        "baseColorFactor" : [ 0.3, 0.3, 0.9, 1.0 ],
        "metallicFactor" : 0.1,
        "roughnessFactor" : 0.5
      }
    },
    {
      "name" : "Standard_4",
      "pbrMetallicRoughness" : {
        "baseColorFactor" : [ 0.9, 0.9, 0.9, 1.0 ],
        "metallicFactor" : 0.1,
        "roughnessFactor" : 0.5
      }
    },
    {
      "name" : "lambert2",
      "pbrMetallicRoughness" : {
        "baseColorFactor" : [ 0.9, 0.9, 0.3, 1.0 ],
        "metallicFactor" : 0.1,
        "roughnessFactor" : 0.5
      }
    },
    {
      "name" : "mirror",
      "pbrMetallicRoughness" : {
        "baseColorFactor" : [ 0.9, 0.3, 0.9, 1.0 ],
        "metallicFactor" : 0.1,
        "roughnessFactor" : 0.5
      }
    },
    {
      "name" : "lambert2",
      "pbrMetallicRoughness" : {
        "baseColorFactor" : [ 0.3, 0.9, 0.9, 1.0 ],
        "metallicFactor" : 0.1,
        "roughnessFactor" : 0.5
      }
    },
    {
      "name" : "mirror",
      "pbrMetallicRoughness" : {
        "baseColorFactor" : [ 1, 0.3, 0.3, 1.0 ],
        "metallicFactor" : 0.1,
        "roughnessFactor" : 0.5
      }
    },
    {
      "name" : "lambert1",
      "pbrMetallicRoughness" : {
        "baseColorFactor" : [ 0.6, 0.3, 0.3, 1.0 ],
        "metallicFactor" : 0.1,
        "roughnessFactor" : 0.5
      }
    }
  ],
  "meshes" : [
    {
      "primitives" : [
        {
          "attributes" : {
            "POSITION" : 1,
            "NORMAL" : 2,
            "TANGENT" : 3,
            "TEXCOORD_0" : 4
          },
          "indices" : 0,
          "material" : 0
        },
        {
          "attributes" : {
            "POSITION" : 6,
            "NORMAL" : 7,
            "TANGENT" : 8,
            "TEXCOORD_0" : 9
          },
          "indices" : 5,
          "material" : 1
        },
        {
          "attributes" : {
            "POSITION" : 11,
            "NORMAL" : 12,
            "TANGENT" : 13,
            "TEXCOORD_0" : 14
          },
          "indices" : 10,
          "material" : 2
        },
        {
          "attributes" : {
            "POSITION" : 16,
            "NORMAL" : 17,
            "TANGENT" : 18,
            "TEXCOORD_0" : 19
          },
          "indices" : 15,
          "material" : 3
        },
        {
          "attributes" : {
            "POSITION" : 21,
            "NORMAL" : 22,
            "TANGENT" : 23,
            "TEXCOORD_0" : 24
          },
          "indices" : 20,
          "material" : 4
        },
        {
          "attributes" : {
            "POSITION" : 26,
            "NORMAL" : 27,
            "TANGENT" : 28,
            "TEXCOORD_0" : 29
          },
          "indices" : 25,
          "material" : 5
        },
        {
          "attributes" : {
            "POSITION" : 31,
            "NORMAL" : 32,
            "TANGENT" : 33,
            "TEXCOORD_0" : 34
          },
          "indices" : 30,
          "material" : 6
        },
        {
          "attributes" : {
            "POSITION" : 36,
            "NORMAL" : 37,
            "TANGENT" : 38,
            "TEXCOORD_0" : 39
          },
          "indices" : 35,
          "material" : 7
        },
        {
          "attributes" : {
            "POSITION" : 41,
            "NORMAL" : 42,
            "TANGENT" : 43,
            "TEXCOORD_0" : 44
          },
          "indices" : 40,
          "material" : 8
        },
        {
          "attributes" : {
            "POSITION" : 46,
            "NORMAL" : 47,
            "TANGENT" : 48,
            "TEXCOORD_0" : 49
          },
          "indices" : 45,
          "material" : 9
        }
      ],
      "name" : "shelf4_Box07"
    }
  ],
  "buffers" : [
    {
      "uri" : "shelf4_Box07.bin",
      "byteLength" : 174000
    }
  ],
  "bufferViews" : [
    {
      "buffer" : 0,
      "byteOffset" : 0,
      "byteLength" : 1488
    },
    {
      "buffer" : 0,
      "byteOffset" : 1488,
      "byteLength" : 8928
    },
    {
      "buffer" : 0,
      "byteOffset" : 10416,
      "byteLength" : 8928
    },
    {
      "buffer" : 0,
      "byteOffset" : 19344,
      "byteLength" : 11904
    },
    {
      "buffer" : 0,
      "byteOffset" : 31248,
      "byteLength" : 5952
    },
    {
      "buffer" : 0,
      "byteOffset" : 37200,
      "byteLength" : 768
    },
    {
      "buffer" : 0,
      "byteOffset" : 37968,
      "byteLength" : 4608
    },
    {
      "buffer" : 0,
      "byteOffset" : 42576,
      "byteLength" : 4608
    },
    {
      "buffer" : 0,
      "byteOffset" : 47184,
      "byteLength" : 6144
    },
    {
      "buffer" : 0,
      "byteOffset" : 53328,
      "byteLength" : 3072
    },
    {
      "buffer" : 0,
      "byteOffset" : 56400,
      "byteLength" : 24
    },
    {
      "buffer" : 0,
      "byteOffset" : 56424,
      "byteLength" : 144
    },
    {
      "buffer" : 0,
      "byteOffset" : 56568,
      "byteLength" : 144
    },
    {
      "buffer" : 0,
      "byteOffset" : 56712,
      "byteLength" : 192
    },
    {
      "buffer" : 0,
      "byteOffset" : 56904,
      "byteLength" : 96
    },
    {
      "buffer" : 0,
      "byteOffset" : 57000,
      "byteLength" : 624
    },
    {
      "buffer" : 0,
      "byteOffset" : 57624,
      "byteLength" : 3744
    },
    {
      "buffer" : 0,
      "byteOffset" : 61368,
      "byteLength" : 3744
    },
    {
      "buffer" : 0,
      "byteOffset" : 65112,
      "byteLength" : 4992
    },
    {
      "buffer" : 0,
      "byteOffset" : 70104,
      "byteLength" : 2496
    },
    {
      "buffer" : 0,
      "byteOffset" : 72600,
      "byteLength" : 744
    },
    {
      "buffer" : 0,
      "byteOffset" : 73344,
      "byteLength" : 4464
    },
    {
      "buffer" : 0,
      "byteOffset" : 77808,
      "byteLength" : 4464
    },
    {
      "buffer" : 0,
      "byteOffset" : 82272,
      "byteLength" : 5952
    },
    {
      "buffer" : 0,
      "byteOffset" : 88224,
      "byteLength" : 2976
    },
    {
      "buffer" : 0,
      "byteOffset" : 91200,
      "byteLength" : 384
    },
    {
      "buffer" : 0,
      "byteOffset" : 91584,
      "byteLength" : 2304
    },
    {
      "buffer" : 0,
      "byteOffset" : 93888,
      "byteLength" : 2304
    },
    {
      "buffer" : 0,
      "byteOffset" : 96192,
      "byteLength" : 3072
    },
    {
      "buffer" : 0,
      "byteOffset" : 99264,
      "byteLength" : 1536
    },
    {
      "buffer" : 0,
      "byteOffset" : 100800,
      "byteLength" : 24
    },
    {
      "buffer" : 0,
      "byteOffset" : 100824,
      "byteLength" : 144
    },
    {
      "buffer" : 0,
      "byteOffset" : 100968,
      "byteLength" : 144
    },
    {
      "buffer" : 0,
      "byteOffset" : 101112,
      "byteLength" : 192
    },
    {
      "buffer" : 0,
      "byteOffset" : 101304,
      "byteLength" : 96
    },
    {
      "buffer" : 0,
      "byteOffset" : 101400,
      "byteLength" : 384
    },
    {
      "buffer" : 0,
      "byteOffset" : 101784,
      "byteLength" : 2304
    },
    {
      "buffer" : 0,
      "byteOffset" : 104088,
      "byteLength" : 2304
    },
    {
      "buffer" : 0,
      "byteOffset" : 106392,
      "byteLength" : 3072
    },
    {
      "buffer" : 0,
      "byteOffset" : 109464,
      "byteLength" : 1536
    },
    {
      "buffer" : 0,
      "byteOffset" : 111000,
      "byteLength" : 24
    },
    {
      "buffer" : 0,
      "byteOffset" : 111024,
      "byteLength" : 144
    },
    {
      "buffer" : 0,
      "byteOffset" : 111168,
      "byteLength" : 144
    },
    {
      "buffer" : 0,
      "byteOffset" : 111312,
      "byteLength" : 192
    },
    {
      "buffer" : 0,
      "byteOffset" : 111504,
      "byteLength" : 96
    },
    {
      "buffer" : 0,
      "byteOffset" : 111600,
      "byteLength" : 2496
    },
    {
      "buffer" : 0,
      "byteOffset" : 114096,
      "byteLength" : 14976
    },
    {
      "buffer" : 0,
      "byteOffset" : 129072,
      "byteLength" : 14976
    },
    {
      "buffer" : 0,
      "byteOffset" : 144048,
      "byteLength" : 19968
    },
    {
      "buffer" : 0,
      "byteOffset" : 164016,
      "byteLength" : 9984
    }
  ],
  "accessors" : [
    {
      "bufferView" : 0,
      "componentType" : 5123,
      "count" : 744,
      "type" : "SCALAR"
    },
    {
      "bufferView" : 1,
      "min" : [ -2.90297, -1.83697e-17, -0.3 ],
      "max" : [ 2.9, 3, 0.3 ],
      "componentType" : 5126,
      "count" : 744,
      "type" : "VEC3"
    },
    {
      "bufferView" : 2,
      "componentType" : 5126,
      "count" : 744,
      "type" : "VEC3"
    },
    {
      "bufferView" : 3,
      "componentType" : 5126,
      "count" : 744,
      "type" : "VEC4"
    },
    {
      "bufferView" : 4,
      "componentType" : 5126,
      "count" : 744,
      "type" : "VEC2"
    },
    {
      "bufferView" : 5,
      "componentType" : 5123,
      "count" : 384,
      "type" : "SCALAR"
    },
    {
      "bufferView" : 6,
      "min" : [ -2.82744, 1.5, 0.25 ],
      "max" : [ -1.12744, 2.95, 0.3 ],
      "componentType" : 5126,
      "count" : 384,
      "type" : "VEC3"
    },
    {
      "bufferView" : 7,
      "componentType" : 5126,
      "count" : 384,
      "type" : "VEC3"
    },
    {
      "bufferView" : 8,
      "componentType" : 5126,
      "count" : 384,
      "type" : "VEC4"
    },
    {
      "bufferView" : 9,
      "componentType" : 5126,
      "count" : 384,
      "type" : "VEC2"
    },
    {
      "bufferView" : 10,
      "componentType" : 5123,
      "count" : 12,
      "type" : "SCALAR"
    },
    {
      "bufferView" : 11,
      "min" : [ -2.78244, 1.545, 0.274372 ],
      "max" : [ -2.02244, 2.905, 0.274372 ],
      "componentType" : 5126,
      "count" : 12,
      "type" : "VEC3"
    },
    {
      "bufferView" : 12,
      "componentType" : 5126,
      "count" : 12,
      "type" : "VEC3"
    },
    {
      "bufferView" : 13,
      "componentType" : 5126,
      "count" : 12,
      "type" : "VEC4"
    },
    {
      "bufferView" : 14,
      "componentType" : 5126,
      "count" : 12,
      "type" : "VEC2"
    },
    {
      "bufferView" : 15,
      "componentType" : 5123,
      "count" : 312,
      "type" : "SCALAR"
    },
    {
      "bufferView" : 16,
      "min" : [ 0, 0.0498476, 0.192717 ],
      "max" : [ 0.85, 0.499848, 0.712717 ],
      "componentType" : 5126,
      "count" : 312,
      "type" : "VEC3"
    },
    {
      "bufferView" : 17,
      "componentType" : 5126,
      "count" : 312,
      "type" : "VEC3"
    },
    {
      "bufferView" : 18,
      "componentType" : 5126,
      "count" : 312,
      "type" : "VEC4"
    },
    {
      "bufferView" : 19,
      "componentType" : 5126,
      "count" : 312,
      "type" : "VEC2"
    },
    {
      "bufferView" : 20,
      "componentType" : 5123,
      "count" : 372,
      "type" : "SCALAR"
    },
    {
      "bufferView" : 21,
      "min" : [ -0.9, -1.83697e-17, -0.3 ],
      "max" : [ 0.9, 3, 0.3 ],
      "componentType" : 5126,
      "count" : 372,
      "type" : "VEC3"
    },
    {
      "bufferView" : 22,
      "componentType" : 5126,
      "count" : 372,
      "type" : "VEC3"
    },
    {
      "bufferView" : 23,
      "componentType" : 5126,
      "count" : 372,
      "type" : "VEC4"
    },
    {
      "bufferView" : 24,
      "componentType" : 5126,
      "count" : 372,
      "type" : "VEC2"
    },
    {
      "bufferView" : 25,
      "componentType" : 5123,
      "count" : 192,
      "type" : "SCALAR"
    },
    {
      "bufferView" : 26,
      "min" : [ -0.864142, 1.5, 0.260858 ],
      "max" : [ -0.234817, 2.95, 0.890183 ],
      "componentType" : 5126,
      "count" : 192,
      "type" : "VEC3"
    },
    {
      "bufferView" : 27,
      "componentType" : 5126,
      "count" : 192,
      "type" : "VEC3"
    },
    {
      "bufferView" : 28,
      "componentType" : 5126,
      "count" : 192,
      "type" : "VEC4"
    },
    {
      "bufferView" : 29,
      "componentType" : 5126,
      "count" : 192,
      "type" : "VEC2"
    },
    {
      "bufferView" : 30,
      "componentType" : 5123,
      "count" : 12,
      "type" : "SCALAR"
    },
    {
      "bufferView" : 31,
      "min" : [ -0.817736, 1.545, 0.306376 ],
      "max" : [ -0.280335, 2.905, 0.843777 ],
      "componentType" : 5126,
      "count" : 12,
      "type" : "VEC3"
    },
    {
      "bufferView" : 32,
      "componentType" : 5126,
      "count" : 12,
      "type" : "VEC3"
    },
    {
      "bufferView" : 33,
      "componentType" : 5126,
      "count" : 12,
      "type" : "VEC4"
    },
    {
      "bufferView" : 34,
      "componentType" : 5126,
      "count" : 12,
      "type" : "VEC2"
    },
    {
      "bufferView" : 35,
      "componentType" : 5123,
      "count" : 192,
      "type" : "SCALAR"
    },
    {
      "bufferView" : 36,
      "min" : [ 0.103878, 1.5, 0.255849 ],
      "max" : [ 0.86, 2.95, 0.719151 ],
      "componentType" : 5126,
      "count" : 192,
      "type" : "VEC3"
    },
    {
      "bufferView" : 37,
      "componentType" : 5126,
      "count" : 192,
      "type" : "VEC3"
    },
    {
      "bufferView" : 38,
      "componentType" : 5126,
      "count" : 192,
      "type" : "VEC4"
    },
    {
      "bufferView" : 39,
      "componentType" : 5126,
      "count" : 192,
      "type" : "VEC2"
    },
    {
      "bufferView" : 40,
      "componentType" : 5123,
      "count" : 12,
      "type" : "SCALAR"
    },
    {
      "bufferView" : 41,
      "min" : [ 0.153164, 1.545, 0.298044 ],
      "max" : [ 0.811343, 2.905, 0.678044 ],
      "componentType" : 5126,
      "count" : 12,
      "type" : "VEC3"
    },
    {
      "bufferView" : 42,
      "componentType" : 5126,
      "count" : 12,
      "type" : "VEC3"
    },
    {
      "bufferView" : 43,
      "componentType" : 5126,
      "count" : 12,
      "type" : "VEC4"
    },
    {
      "bufferView" : 44,
      "componentType" : 5126,
      "count" : 12,
      "type" : "VEC2"
    },
    {
      "bufferView" : 45,
      "componentType" : 5123,
      "count" : 1248,
      "type" : "SCALAR"
    },
    {
      "bufferView" : 46,
      "min" : [ -0.85, 0.0498476, -0.25 ],
      "max" : [ 0.845, 1, 0.735931 ],
      "componentType" : 5126,
      "count" : 1248,
      "type" : "VEC3"
    },
    {
      "bufferView" : 47,
      "componentType" : 5126,
      "count" : 1248,
      "type" : "VEC3"
    },
    {
      "bufferView" : 48,
      "componentType" : 5126,
      "count" : 1248,
      "type" : "VEC4"
    },
    {
      "bufferView" : 49,
      "componentType" : 5126,
      "count" : 1248,
      "type" : "VEC2"
    }
  ]
}
