{
  "asset" : {
    "generator" : "UE Viewer (umodel) build 1587",
    "version" : "2.0"
  },
  "scene" : 0,
  "scenes" : [
    {
      "nodes" : [ 0 ]
    }
  ],
  "nodes" : [
    {
      "name" : "untitled_Cube_001",
      "mesh" : 0
    }
  ],
  "materials" : [
    {
      "name" : "dummy_material_0",
      "pbrMetallicRoughness" : {
        "baseColorFactor" : [ 0.3, 0.3, 0.3, 1.0 ],
        "metallicFactor" : 0.1,
        "roughnessFactor" : 0.5
      }
    }
  ],
  "meshes" : [
    {
      "primitives" : [
        {
          "attributes" : {
            "POSITION" : 1,
            "NORMAL" : 2,
            "TANGENT" : 3,
            "TEXCOORD_0" : 4
          },
          "indices" : 0,
          "material" : 0
        }
      ],
      "name" : "untitled_Cube_001"
    }
  ],
  "buffers" : [
    {
      "uri" : "untitled_Cube_001.bin",
      "byteLength" : 1904852
    }
  ],
  "bufferViews" : [
    {
      "buffer" : 0,
      "byteOffset" : 0,
      "byteLength" : 76196
    },
    {
      "buffer" : 0,
      "byteOffset" : 76196,
      "byteLength" : 457164
    },
    {
      "buffer" : 0,
      "byteOffset" : 533360,
      "byteLength" : 457164
    },
    {
      "buffer" : 0,
      "byteOffset" : 990524,
      "byteLength" : 609552
    },
    {
      "buffer" : 0,
      "byteOffset" : 1600076,
      "byteLength" : 304776
    }
  ],
  "accessors" : [
    {
      "bufferView" : 0,
      "componentType" : 5123,
      "count" : 38097,
      "type" : "SCALAR"
    },
    {
      "bufferView" : 1,
      "min" : [ -0.599492, 0.369243, 0.106499 ],
      "max" : [ 0.601143, 1.36728, 0.599491 ],
      "componentType" : 5126,
      "count" : 38097,
      "type" : "VEC3"
    },
    {
      "bufferView" : 2,
      "componentType" : 5126,
      "count" : 38097,
      "type" : "VEC3"
    },
    {
      "bufferView" : 3,
      "componentType" : 5126,
      "count" : 38097,
      "type" : "VEC4"
    },
    {
      "bufferView" : 4,
      "componentType" : 5126,
      "count" : 38097,
      "type" : "VEC2"
    }
  ]
}
